%TF.GenerationSoftware,KiCad,Pcbnew,8.0.0-dirty*%
%TF.CreationDate,2024-04-13T11:17:01-04:00*%
%TF.ProjectId,UltrasonicPCB,556c7472-6173-46f6-9e69-635043422e6b,rev?*%
%TF.SameCoordinates,Original*%
%TF.FileFunction,Legend,Bot*%
%TF.FilePolarity,Positive*%
%FSLAX46Y46*%
G04 Gerber Fmt 4.6, Leading zero omitted, Abs format (unit mm)*
G04 Created by KiCad (PCBNEW 8.0.0-dirty) date 2024-04-13 11:17:01*
%MOMM*%
%LPD*%
G01*
G04 APERTURE LIST*
%ADD10C,0.150000*%
%ADD11C,0.120000*%
G04 APERTURE END LIST*
D10*
X116656666Y-82874819D02*
X116989999Y-82398628D01*
X117228094Y-82874819D02*
X117228094Y-81874819D01*
X117228094Y-81874819D02*
X116847142Y-81874819D01*
X116847142Y-81874819D02*
X116751904Y-81922438D01*
X116751904Y-81922438D02*
X116704285Y-81970057D01*
X116704285Y-81970057D02*
X116656666Y-82065295D01*
X116656666Y-82065295D02*
X116656666Y-82208152D01*
X116656666Y-82208152D02*
X116704285Y-82303390D01*
X116704285Y-82303390D02*
X116751904Y-82351009D01*
X116751904Y-82351009D02*
X116847142Y-82398628D01*
X116847142Y-82398628D02*
X117228094Y-82398628D01*
X116275713Y-81970057D02*
X116228094Y-81922438D01*
X116228094Y-81922438D02*
X116132856Y-81874819D01*
X116132856Y-81874819D02*
X115894761Y-81874819D01*
X115894761Y-81874819D02*
X115799523Y-81922438D01*
X115799523Y-81922438D02*
X115751904Y-81970057D01*
X115751904Y-81970057D02*
X115704285Y-82065295D01*
X115704285Y-82065295D02*
X115704285Y-82160533D01*
X115704285Y-82160533D02*
X115751904Y-82303390D01*
X115751904Y-82303390D02*
X116323332Y-82874819D01*
X116323332Y-82874819D02*
X115704285Y-82874819D01*
X116636666Y-85274819D02*
X116969999Y-84798628D01*
X117208094Y-85274819D02*
X117208094Y-84274819D01*
X117208094Y-84274819D02*
X116827142Y-84274819D01*
X116827142Y-84274819D02*
X116731904Y-84322438D01*
X116731904Y-84322438D02*
X116684285Y-84370057D01*
X116684285Y-84370057D02*
X116636666Y-84465295D01*
X116636666Y-84465295D02*
X116636666Y-84608152D01*
X116636666Y-84608152D02*
X116684285Y-84703390D01*
X116684285Y-84703390D02*
X116731904Y-84751009D01*
X116731904Y-84751009D02*
X116827142Y-84798628D01*
X116827142Y-84798628D02*
X117208094Y-84798628D01*
X115684285Y-85274819D02*
X116255713Y-85274819D01*
X115969999Y-85274819D02*
X115969999Y-84274819D01*
X115969999Y-84274819D02*
X116065237Y-84417676D01*
X116065237Y-84417676D02*
X116160475Y-84512914D01*
X116160475Y-84512914D02*
X116255713Y-84560533D01*
D11*
%TO.C,R2*%
X116262936Y-83335000D02*
X116717064Y-83335000D01*
X116262936Y-84805000D02*
X116717064Y-84805000D01*
%TO.C,R1*%
X116242936Y-85735000D02*
X116697064Y-85735000D01*
X116242936Y-87205000D02*
X116697064Y-87205000D01*
%TD*%
M02*
