%TF.GenerationSoftware,KiCad,Pcbnew,8.0.0-dirty*%
%TF.CreationDate,2024-04-13T23:55:43-04:00*%
%TF.ProjectId,UltrasonicPCB,556c7472-6173-46f6-9e69-635043422e6b,rev?*%
%TF.SameCoordinates,Original*%
%TF.FileFunction,Copper,L1,Top*%
%TF.FilePolarity,Positive*%
%FSLAX46Y46*%
G04 Gerber Fmt 4.6, Leading zero omitted, Abs format (unit mm)*
G04 Created by KiCad (PCBNEW 8.0.0-dirty) date 2024-04-13 23:55:43*
%MOMM*%
%LPD*%
G01*
G04 APERTURE LIST*
G04 Aperture macros list*
%AMRoundRect*
0 Rectangle with rounded corners*
0 $1 Rounding radius*
0 $2 $3 $4 $5 $6 $7 $8 $9 X,Y pos of 4 corners*
0 Add a 4 corners polygon primitive as box body*
4,1,4,$2,$3,$4,$5,$6,$7,$8,$9,$2,$3,0*
0 Add four circle primitives for the rounded corners*
1,1,$1+$1,$2,$3*
1,1,$1+$1,$4,$5*
1,1,$1+$1,$6,$7*
1,1,$1+$1,$8,$9*
0 Add four rect primitives between the rounded corners*
20,1,$1+$1,$2,$3,$4,$5,0*
20,1,$1+$1,$4,$5,$6,$7,0*
20,1,$1+$1,$6,$7,$8,$9,0*
20,1,$1+$1,$8,$9,$2,$3,0*%
G04 Aperture macros list end*
%TA.AperFunction,SMDPad,CuDef*%
%ADD10RoundRect,0.225000X-0.375000X0.225000X-0.375000X-0.225000X0.375000X-0.225000X0.375000X0.225000X0*%
%TD*%
%TA.AperFunction,ComponentPad*%
%ADD11R,1.700000X1.700000*%
%TD*%
%TA.AperFunction,ComponentPad*%
%ADD12O,1.700000X1.700000*%
%TD*%
%TA.AperFunction,SMDPad,CuDef*%
%ADD13RoundRect,0.225000X0.225000X0.375000X-0.225000X0.375000X-0.225000X-0.375000X0.225000X-0.375000X0*%
%TD*%
%TA.AperFunction,ComponentPad*%
%ADD14RoundRect,0.250000X-0.600000X-0.600000X0.600000X-0.600000X0.600000X0.600000X-0.600000X0.600000X0*%
%TD*%
%TA.AperFunction,ComponentPad*%
%ADD15C,1.700000*%
%TD*%
%TA.AperFunction,ViaPad*%
%ADD16C,0.800000*%
%TD*%
%TA.AperFunction,Conductor*%
%ADD17C,0.500000*%
%TD*%
G04 APERTURE END LIST*
D10*
%TO.P,D4,1,K*%
%TO.N,ECHO*%
X151942500Y-97692500D03*
%TO.P,D4,2,A*%
%TO.N,Net-(D4-A)*%
X151942500Y-100992500D03*
%TD*%
D11*
%TO.P,U3,1,VCC*%
%TO.N,5V*%
X121140000Y-70060000D03*
D12*
%TO.P,U3,2,TRIG*%
%TO.N,TRIG3*%
X123680000Y-70060000D03*
%TO.P,U3,3,ECHO*%
%TO.N,Net-(D3-A)*%
X126220000Y-70060000D03*
%TO.P,U3,4,OUT*%
%TO.N,unconnected-(U3-OUT-Pad4)*%
X128760000Y-70060000D03*
%TO.P,U3,5,GND*%
%TO.N,GND*%
X131300000Y-70060000D03*
%TD*%
D11*
%TO.P,U2,1,VCC*%
%TO.N,5V*%
X121140000Y-127340000D03*
D12*
%TO.P,U2,2,TRIG*%
%TO.N,TRIG2*%
X123680000Y-127340000D03*
%TO.P,U2,3,ECHO*%
%TO.N,Net-(D2-A)*%
X126220000Y-127340000D03*
%TO.P,U2,4,OUT*%
%TO.N,unconnected-(U2-OUT-Pad4)*%
X128760000Y-127340000D03*
%TO.P,U2,5,GND*%
%TO.N,GND*%
X131300000Y-127340000D03*
%TD*%
D13*
%TO.P,D2,1,K*%
%TO.N,ECHO*%
X140600000Y-101000000D03*
%TO.P,D2,2,A*%
%TO.N,Net-(D2-A)*%
X137300000Y-101000000D03*
%TD*%
%TO.P,D3,1,K*%
%TO.N,ECHO*%
X140600000Y-103600000D03*
%TO.P,D3,2,A*%
%TO.N,Net-(D3-A)*%
X137300000Y-103600000D03*
%TD*%
D11*
%TO.P,U5,1,VCC*%
%TO.N,5V*%
X146230000Y-103780000D03*
D12*
%TO.P,U5,2,TRIG*%
%TO.N,TRIG4*%
X146230000Y-101240000D03*
%TO.P,U5,3,ECHO*%
%TO.N,Net-(D4-A)*%
X146230000Y-98700000D03*
%TO.P,U5,4,OUT*%
%TO.N,unconnected-(U5-OUT-Pad4)*%
X146230000Y-96160000D03*
%TO.P,U5,5,GND*%
%TO.N,GND*%
X146230000Y-93620000D03*
%TD*%
D13*
%TO.P,D1,1,K*%
%TO.N,ECHO*%
X140555000Y-98600000D03*
%TO.P,D1,2,A*%
%TO.N,Net-(D1-A)*%
X137255000Y-98600000D03*
%TD*%
D11*
%TO.P,U1,1,VCC*%
%TO.N,5V*%
X106220000Y-103785000D03*
D12*
%TO.P,U1,2,TRIG*%
%TO.N,TRIG1*%
X106220000Y-101245000D03*
%TO.P,U1,3,ECHO*%
%TO.N,Net-(D1-A)*%
X106220000Y-98705000D03*
%TO.P,U1,4,OUT*%
%TO.N,unconnected-(U1-OUT-Pad4)*%
X106220000Y-96165000D03*
%TO.P,U1,5,GND*%
%TO.N,GND*%
X106220000Y-93625000D03*
%TD*%
D14*
%TO.P,J2,1,Pin_1*%
%TO.N,5V*%
X115590000Y-103740000D03*
D15*
%TO.P,J2,2,Pin_2*%
%TO.N,TRIG1*%
X118130000Y-103740000D03*
%TO.P,J2,3,Pin_3*%
%TO.N,TRIG2*%
X115590000Y-101200000D03*
%TO.P,J2,4,Pin_4*%
%TO.N,TRIG3*%
X118130000Y-101200000D03*
%TO.P,J2,5,Pin_5*%
%TO.N,TRIG4*%
X115590000Y-98660000D03*
%TO.P,J2,6,Pin_6*%
%TO.N,Net-(J2-Pin_6)*%
X118130000Y-98660000D03*
%TO.P,J2,7,Pin_7*%
%TO.N,GND*%
X115590000Y-96120000D03*
%TO.P,J2,8*%
%TO.N,N/C*%
X118130000Y-96120000D03*
%TD*%
D16*
%TO.N,ECHO*%
X151940000Y-97670000D03*
%TO.N,Net-(J2-Pin_6)*%
X115550000Y-86480000D03*
%TD*%
D17*
%TO.N,Net-(D3-A)*%
X126220000Y-70060000D02*
X136270000Y-80110000D01*
X136270000Y-80110000D02*
X136270000Y-97034222D01*
X136270000Y-97034222D02*
X135655000Y-97649223D01*
X135655000Y-97649223D02*
X135655000Y-101955000D01*
X135655000Y-101955000D02*
X137300000Y-103600000D01*
%TO.N,GND*%
X131300000Y-127340000D02*
X145635000Y-113005000D01*
X145635000Y-113005000D02*
X147530000Y-111110000D01*
X131300000Y-70060000D02*
X142200000Y-80960000D01*
X142200000Y-80960000D02*
X142200000Y-109570000D01*
X142200000Y-109570000D02*
X145635000Y-113005000D01*
X115590000Y-96120000D02*
X113095000Y-93625000D01*
X113095000Y-93625000D02*
X106220000Y-93625000D01*
%TO.N,ECHO*%
X140555000Y-98600000D02*
X140555000Y-103555000D01*
X140555000Y-103555000D02*
X140600000Y-103600000D01*
X151942500Y-97692500D02*
X152992500Y-98742500D01*
X152992500Y-98742500D02*
X152992500Y-107557500D01*
X152992500Y-107557500D02*
X131810000Y-128740000D01*
X119270000Y-126610000D02*
X130544975Y-115335025D01*
X131810000Y-128740000D02*
X119940000Y-128740000D01*
X119940000Y-128740000D02*
X119270000Y-128070000D01*
X119270000Y-128070000D02*
X119270000Y-126610000D01*
X130544975Y-115335025D02*
X134634975Y-115335025D01*
X134634975Y-115335025D02*
X140600000Y-109370000D01*
X140600000Y-109370000D02*
X140600000Y-103600000D01*
%TO.N,Net-(D4-A)*%
X146230000Y-98700000D02*
X144930000Y-97400000D01*
X144930000Y-97400000D02*
X144930000Y-92540000D01*
X144930000Y-92540000D02*
X145380000Y-92090000D01*
X145380000Y-92090000D02*
X146538478Y-92090000D01*
X150892500Y-96444022D02*
X150892500Y-99942500D01*
X146538478Y-92090000D02*
X150892500Y-96444022D01*
X150892500Y-99942500D02*
X151942500Y-100992500D01*
%TO.N,GND*%
X147530000Y-111110000D02*
X147530000Y-94920000D01*
X147530000Y-94920000D02*
X146230000Y-93620000D01*
%TO.N,Net-(D2-A)*%
X126220000Y-127340000D02*
X141500000Y-112060000D01*
X141500000Y-97984172D02*
X141065828Y-97550000D01*
X141500000Y-112060000D02*
X141500000Y-97984172D01*
X141065828Y-97550000D02*
X136744172Y-97550000D01*
X136355000Y-97939172D02*
X136355000Y-100055000D01*
X136744172Y-97550000D02*
X136355000Y-97939172D01*
X136355000Y-100055000D02*
X137300000Y-101000000D01*
%TO.N,Net-(D1-A)*%
X106220000Y-98705000D02*
X104920000Y-100005000D01*
X104920000Y-100005000D02*
X104920000Y-105085000D01*
X133990000Y-114610000D02*
X139450000Y-109150000D01*
X104920000Y-105085000D02*
X114445000Y-114610000D01*
X139450000Y-99380000D02*
X138670000Y-98600000D01*
X114445000Y-114610000D02*
X133990000Y-114610000D01*
X139450000Y-109150000D02*
X139450000Y-99380000D01*
X138670000Y-98600000D02*
X137255000Y-98600000D01*
%TO.N,Net-(J2-Pin_6)*%
X118130000Y-98660000D02*
X119430000Y-97360000D01*
X119430000Y-97360000D02*
X119430000Y-91240000D01*
X115550000Y-87360000D02*
X115550000Y-86480000D01*
X119430000Y-91240000D02*
X115550000Y-87360000D01*
X115530000Y-86480000D02*
X115510000Y-86460000D01*
X115550000Y-86480000D02*
X115530000Y-86480000D01*
%TO.N,TRIG3*%
X118130000Y-101200000D02*
X118920000Y-100410000D01*
X122990000Y-70750000D02*
X123680000Y-70060000D01*
X118920000Y-100410000D02*
X122990000Y-100410000D01*
X122990000Y-100410000D02*
X122990000Y-70750000D01*
%TO.N,TRIG1*%
X118130000Y-103740000D02*
X116785000Y-105085000D01*
X116785000Y-105085000D02*
X110060000Y-105085000D01*
X110060000Y-105085000D02*
X106220000Y-101245000D01*
%TD*%
%TA.AperFunction,Conductor*%
%TO.N,GND*%
G36*
X116704925Y-96881373D02*
G01*
X116758119Y-96805405D01*
X116812696Y-96761781D01*
X116882195Y-96754588D01*
X116944549Y-96786110D01*
X116961269Y-96805405D01*
X117091505Y-96991401D01*
X117091506Y-96991402D01*
X117258597Y-97158493D01*
X117258603Y-97158498D01*
X117444158Y-97288425D01*
X117487783Y-97343002D01*
X117494977Y-97412500D01*
X117463454Y-97474855D01*
X117444158Y-97491575D01*
X117258597Y-97621505D01*
X117091505Y-97788597D01*
X116961575Y-97974158D01*
X116906998Y-98017783D01*
X116837500Y-98024977D01*
X116775145Y-97993454D01*
X116758425Y-97974158D01*
X116628494Y-97788597D01*
X116461402Y-97621506D01*
X116461401Y-97621505D01*
X116275405Y-97491269D01*
X116231781Y-97436692D01*
X116224588Y-97367193D01*
X116256110Y-97304839D01*
X116275405Y-97288119D01*
X116351373Y-97234925D01*
X115719409Y-96602962D01*
X115782993Y-96585925D01*
X115897007Y-96520099D01*
X115990099Y-96427007D01*
X116055925Y-96312993D01*
X116072962Y-96249410D01*
X116704925Y-96881373D01*
G37*
%TD.AperFunction*%
%TA.AperFunction,Conductor*%
G36*
X155720858Y-66600005D02*
G01*
X155779039Y-66600816D01*
X155882007Y-66602254D01*
X155894140Y-66603019D01*
X156215276Y-66639148D01*
X156228965Y-66641470D01*
X156543192Y-66713081D01*
X156556530Y-66716918D01*
X156860797Y-66823216D01*
X156873614Y-66828517D01*
X157139222Y-66956211D01*
X157164091Y-66968167D01*
X157176248Y-66974875D01*
X157449271Y-67146113D01*
X157460603Y-67154138D01*
X157712771Y-67354828D01*
X157723134Y-67364068D01*
X157951295Y-67591701D01*
X157960560Y-67602044D01*
X158161833Y-67853751D01*
X158169884Y-67865063D01*
X158341758Y-68137701D01*
X158348493Y-68149843D01*
X158488806Y-68439978D01*
X158494142Y-68452797D01*
X158589923Y-68724938D01*
X158601140Y-68756807D01*
X158605009Y-68770142D01*
X158677346Y-69084205D01*
X158679700Y-69097889D01*
X158716569Y-69418926D01*
X158717363Y-69431057D01*
X158719982Y-69592085D01*
X158719998Y-69594102D01*
X158720000Y-73700000D01*
X158720000Y-123700000D01*
X158719998Y-127799141D01*
X158719987Y-127800816D01*
X158717807Y-127962232D01*
X158717038Y-127974441D01*
X158680806Y-128296007D01*
X158678477Y-128309716D01*
X158606654Y-128624392D01*
X158602805Y-128637754D01*
X158496198Y-128942420D01*
X158490876Y-128955267D01*
X158350833Y-129246067D01*
X158344107Y-129258237D01*
X158172382Y-129531536D01*
X158164335Y-129542877D01*
X157963090Y-129795231D01*
X157953824Y-129805599D01*
X157725596Y-130033827D01*
X157715228Y-130043093D01*
X157462874Y-130244338D01*
X157451533Y-130252385D01*
X157178234Y-130424109D01*
X157166064Y-130430835D01*
X156875263Y-130570878D01*
X156862416Y-130576200D01*
X156557748Y-130682808D01*
X156544385Y-130686657D01*
X156229714Y-130758477D01*
X156216005Y-130760806D01*
X155894434Y-130797038D01*
X155882232Y-130797807D01*
X155720808Y-130799995D01*
X155719127Y-130800006D01*
X96720856Y-130799984D01*
X96719183Y-130799973D01*
X96714544Y-130799910D01*
X96557766Y-130797793D01*
X96545557Y-130797024D01*
X96223991Y-130760791D01*
X96210282Y-130758462D01*
X95895600Y-130686638D01*
X95882238Y-130682788D01*
X95577589Y-130576186D01*
X95564742Y-130570865D01*
X95273934Y-130430819D01*
X95261764Y-130424093D01*
X94988466Y-130252368D01*
X94977125Y-130244321D01*
X94724773Y-130043075D01*
X94714405Y-130033809D01*
X94486175Y-129805578D01*
X94476909Y-129795209D01*
X94474377Y-129792034D01*
X94275667Y-129542858D01*
X94267624Y-129531523D01*
X94188177Y-129405083D01*
X94095894Y-129258214D01*
X94089170Y-129246046D01*
X94075864Y-129218416D01*
X93949126Y-128955238D01*
X93943814Y-128942415D01*
X93837200Y-128637727D01*
X93833356Y-128624384D01*
X93761533Y-128309699D01*
X93759205Y-128295992D01*
X93722971Y-127974400D01*
X93722205Y-127962232D01*
X93720011Y-127800793D01*
X93720000Y-127799109D01*
X93720000Y-126825734D01*
X112622466Y-126825734D01*
X112661801Y-127074090D01*
X112739508Y-127313244D01*
X112853668Y-127537293D01*
X113001463Y-127740717D01*
X113001467Y-127740722D01*
X113179277Y-127918532D01*
X113179282Y-127918536D01*
X113356720Y-128047451D01*
X113382710Y-128066334D01*
X113525474Y-128139076D01*
X113606755Y-128180491D01*
X113606757Y-128180491D01*
X113606760Y-128180493D01*
X113734949Y-128222144D01*
X113845909Y-128258198D01*
X114094266Y-128297534D01*
X114345729Y-128297534D01*
X114345734Y-128297534D01*
X114594090Y-128258198D01*
X114833240Y-128180493D01*
X115057290Y-128066334D01*
X115260724Y-127918531D01*
X115438531Y-127740724D01*
X115586334Y-127537290D01*
X115700493Y-127313240D01*
X115778198Y-127074090D01*
X115817534Y-126825729D01*
X115820000Y-126700000D01*
X115817534Y-126574271D01*
X115778198Y-126325910D01*
X115700493Y-126086760D01*
X115700491Y-126086757D01*
X115700491Y-126086755D01*
X115642107Y-125972171D01*
X115586334Y-125862710D01*
X115524657Y-125777819D01*
X115438536Y-125659282D01*
X115438532Y-125659277D01*
X115260722Y-125481467D01*
X115260717Y-125481463D01*
X115057293Y-125333668D01*
X115057292Y-125333667D01*
X115057290Y-125333666D01*
X114987322Y-125298015D01*
X114833244Y-125219508D01*
X114594090Y-125141801D01*
X114345734Y-125102466D01*
X114345729Y-125102466D01*
X114094271Y-125102466D01*
X114094266Y-125102466D01*
X113845909Y-125141801D01*
X113606755Y-125219508D01*
X113382706Y-125333668D01*
X113179282Y-125481463D01*
X113179277Y-125481467D01*
X113001467Y-125659277D01*
X113001463Y-125659282D01*
X112853668Y-125862706D01*
X112739508Y-126086755D01*
X112661801Y-126325909D01*
X112622466Y-126574265D01*
X112622466Y-126825734D01*
X93720000Y-126825734D01*
X93720000Y-123317887D01*
X95872568Y-123317887D01*
X95913507Y-123550067D01*
X95994147Y-123771621D01*
X95994150Y-123771628D01*
X96112032Y-123975805D01*
X96112034Y-123975809D01*
X96179773Y-124056536D01*
X96263583Y-124156417D01*
X96382614Y-124256296D01*
X96444190Y-124307965D01*
X96444191Y-124307965D01*
X96444193Y-124307967D01*
X96648376Y-124425852D01*
X96869927Y-124506491D01*
X96869931Y-124506491D01*
X96869932Y-124506492D01*
X96916560Y-124514713D01*
X97102115Y-124547432D01*
X97337883Y-124547432D01*
X97337885Y-124547432D01*
X97570073Y-124506491D01*
X97791624Y-124425852D01*
X97995807Y-124307967D01*
X98176417Y-124156417D01*
X98327967Y-123975807D01*
X98445852Y-123771624D01*
X98526491Y-123550073D01*
X98567432Y-123317885D01*
X98570000Y-123200000D01*
X98567432Y-123082115D01*
X98526491Y-122849927D01*
X98445852Y-122628376D01*
X98327967Y-122424193D01*
X98327965Y-122424191D01*
X98327965Y-122424190D01*
X98276296Y-122362614D01*
X98176417Y-122243583D01*
X98076536Y-122159773D01*
X97995809Y-122092034D01*
X97995805Y-122092032D01*
X97791628Y-121974150D01*
X97791625Y-121974149D01*
X97791624Y-121974148D01*
X97570073Y-121893509D01*
X97570072Y-121893508D01*
X97570067Y-121893507D01*
X97337887Y-121852568D01*
X97337885Y-121852568D01*
X97102115Y-121852568D01*
X97102112Y-121852568D01*
X96869932Y-121893507D01*
X96648378Y-121974147D01*
X96648371Y-121974150D01*
X96444194Y-122092032D01*
X96444190Y-122092034D01*
X96263583Y-122243583D01*
X96112034Y-122424190D01*
X96112032Y-122424194D01*
X95994150Y-122628371D01*
X95994147Y-122628378D01*
X95913507Y-122849932D01*
X95872568Y-123082112D01*
X95872568Y-123317887D01*
X93720000Y-123317887D01*
X93720000Y-105158920D01*
X104169499Y-105158920D01*
X104198340Y-105303907D01*
X104198343Y-105303917D01*
X104254914Y-105440492D01*
X104287812Y-105489727D01*
X104287813Y-105489730D01*
X104337046Y-105563414D01*
X104337052Y-105563421D01*
X113862049Y-115088416D01*
X113966584Y-115192951D01*
X113966585Y-115192952D01*
X114089498Y-115275080D01*
X114089511Y-115275087D01*
X114226082Y-115331656D01*
X114226087Y-115331658D01*
X114226091Y-115331658D01*
X114226092Y-115331659D01*
X114371079Y-115360500D01*
X114371082Y-115360500D01*
X129158771Y-115360500D01*
X129225810Y-115380185D01*
X129271565Y-115432989D01*
X129281509Y-115502147D01*
X129252484Y-115565703D01*
X129246452Y-115572181D01*
X118687047Y-126131584D01*
X118687043Y-126131589D01*
X118664076Y-126165964D01*
X118664076Y-126165965D01*
X118604913Y-126254508D01*
X118548343Y-126391082D01*
X118548340Y-126391092D01*
X118519500Y-126536079D01*
X118519500Y-126536082D01*
X118519500Y-128143918D01*
X118519500Y-128143920D01*
X118519499Y-128143920D01*
X118548340Y-128288907D01*
X118548342Y-128288913D01*
X118604916Y-128425495D01*
X118609482Y-128432328D01*
X118609483Y-128432331D01*
X118609484Y-128432331D01*
X118687051Y-128548420D01*
X118687052Y-128548421D01*
X119357049Y-129218416D01*
X119461583Y-129322950D01*
X119461585Y-129322952D01*
X119584498Y-129405080D01*
X119584511Y-129405087D01*
X119721082Y-129461656D01*
X119721087Y-129461658D01*
X119721091Y-129461658D01*
X119721092Y-129461659D01*
X119866079Y-129490500D01*
X119866082Y-129490500D01*
X131883920Y-129490500D01*
X131981462Y-129471096D01*
X132028913Y-129461658D01*
X132165495Y-129405084D01*
X132214729Y-129372186D01*
X132288416Y-129322952D01*
X134785634Y-126825734D01*
X136622466Y-126825734D01*
X136661801Y-127074090D01*
X136739508Y-127313244D01*
X136853668Y-127537293D01*
X137001463Y-127740717D01*
X137001467Y-127740722D01*
X137179277Y-127918532D01*
X137179282Y-127918536D01*
X137356720Y-128047451D01*
X137382710Y-128066334D01*
X137525474Y-128139076D01*
X137606755Y-128180491D01*
X137606757Y-128180491D01*
X137606760Y-128180493D01*
X137734949Y-128222144D01*
X137845909Y-128258198D01*
X138094266Y-128297534D01*
X138345729Y-128297534D01*
X138345734Y-128297534D01*
X138594090Y-128258198D01*
X138833240Y-128180493D01*
X139057290Y-128066334D01*
X139260724Y-127918531D01*
X139438531Y-127740724D01*
X139586334Y-127537290D01*
X139700493Y-127313240D01*
X139778198Y-127074090D01*
X139817534Y-126825729D01*
X139820000Y-126700000D01*
X139817534Y-126574271D01*
X139778198Y-126325910D01*
X139700493Y-126086760D01*
X139700491Y-126086757D01*
X139700491Y-126086755D01*
X139642107Y-125972171D01*
X139586334Y-125862710D01*
X139524657Y-125777819D01*
X139438536Y-125659282D01*
X139438532Y-125659277D01*
X139260722Y-125481467D01*
X139260717Y-125481463D01*
X139057293Y-125333668D01*
X139057292Y-125333667D01*
X139057290Y-125333666D01*
X138987322Y-125298015D01*
X138833244Y-125219508D01*
X138594090Y-125141801D01*
X138345734Y-125102466D01*
X138345729Y-125102466D01*
X138094271Y-125102466D01*
X138094266Y-125102466D01*
X137845909Y-125141801D01*
X137606755Y-125219508D01*
X137382706Y-125333668D01*
X137179282Y-125481463D01*
X137179277Y-125481467D01*
X137001467Y-125659277D01*
X137001463Y-125659282D01*
X136853668Y-125862706D01*
X136739508Y-126086755D01*
X136661801Y-126325909D01*
X136622466Y-126574265D01*
X136622466Y-126825734D01*
X134785634Y-126825734D01*
X138293481Y-123317887D01*
X153872568Y-123317887D01*
X153913507Y-123550067D01*
X153994147Y-123771621D01*
X153994150Y-123771628D01*
X154112032Y-123975805D01*
X154112034Y-123975809D01*
X154179773Y-124056536D01*
X154263583Y-124156417D01*
X154382614Y-124256296D01*
X154444190Y-124307965D01*
X154444191Y-124307965D01*
X154444193Y-124307967D01*
X154648376Y-124425852D01*
X154869927Y-124506491D01*
X154869931Y-124506491D01*
X154869932Y-124506492D01*
X154916560Y-124514713D01*
X155102115Y-124547432D01*
X155337883Y-124547432D01*
X155337885Y-124547432D01*
X155570073Y-124506491D01*
X155791624Y-124425852D01*
X155995807Y-124307967D01*
X156176417Y-124156417D01*
X156327967Y-123975807D01*
X156445852Y-123771624D01*
X156526491Y-123550073D01*
X156567432Y-123317885D01*
X156570000Y-123200000D01*
X156567432Y-123082115D01*
X156526491Y-122849927D01*
X156445852Y-122628376D01*
X156327967Y-122424193D01*
X156327965Y-122424191D01*
X156327965Y-122424190D01*
X156276296Y-122362614D01*
X156176417Y-122243583D01*
X156076536Y-122159773D01*
X155995809Y-122092034D01*
X155995805Y-122092032D01*
X155791628Y-121974150D01*
X155791625Y-121974149D01*
X155791624Y-121974148D01*
X155570073Y-121893509D01*
X155570072Y-121893508D01*
X155570067Y-121893507D01*
X155337887Y-121852568D01*
X155337885Y-121852568D01*
X155102115Y-121852568D01*
X155102112Y-121852568D01*
X154869932Y-121893507D01*
X154648378Y-121974147D01*
X154648371Y-121974150D01*
X154444194Y-122092032D01*
X154444190Y-122092034D01*
X154263583Y-122243583D01*
X154112034Y-122424190D01*
X154112032Y-122424194D01*
X153994150Y-122628371D01*
X153994147Y-122628378D01*
X153913507Y-122849932D01*
X153872568Y-123082112D01*
X153872568Y-123317887D01*
X138293481Y-123317887D01*
X153575452Y-108035916D01*
X153624686Y-107962229D01*
X153657584Y-107912995D01*
X153714158Y-107776413D01*
X153743000Y-107631418D01*
X153743000Y-98668582D01*
X153743000Y-98668579D01*
X153714159Y-98523592D01*
X153714158Y-98523591D01*
X153714158Y-98523587D01*
X153683603Y-98449820D01*
X153657587Y-98387011D01*
X153657580Y-98386998D01*
X153575452Y-98264085D01*
X153547702Y-98236335D01*
X153470916Y-98159549D01*
X153079318Y-97767951D01*
X153045833Y-97706628D01*
X153042999Y-97680270D01*
X153042999Y-97419162D01*
X153042998Y-97419144D01*
X153032849Y-97319792D01*
X153032848Y-97319789D01*
X152994312Y-97203495D01*
X152979503Y-97158803D01*
X152979499Y-97158797D01*
X152979498Y-97158794D01*
X152890470Y-97014459D01*
X152890467Y-97014455D01*
X152770544Y-96894532D01*
X152770540Y-96894529D01*
X152626205Y-96805501D01*
X152626199Y-96805498D01*
X152626197Y-96805497D01*
X152602302Y-96797579D01*
X152465209Y-96752151D01*
X152365852Y-96742000D01*
X152365845Y-96742000D01*
X151767000Y-96742000D01*
X151699961Y-96722315D01*
X151654206Y-96669511D01*
X151643000Y-96618000D01*
X151643000Y-96370101D01*
X151614159Y-96225114D01*
X151614158Y-96225113D01*
X151614158Y-96225109D01*
X151557584Y-96088527D01*
X151512771Y-96021459D01*
X151512771Y-96021458D01*
X151475450Y-95965603D01*
X147016899Y-91507052D01*
X147016892Y-91507046D01*
X146943207Y-91457812D01*
X146943207Y-91457813D01*
X146893969Y-91424913D01*
X146757395Y-91368343D01*
X146757385Y-91368340D01*
X146612398Y-91339500D01*
X146612396Y-91339500D01*
X145306082Y-91339500D01*
X145306080Y-91339500D01*
X145161092Y-91368340D01*
X145161082Y-91368343D01*
X145024511Y-91424912D01*
X145024504Y-91424916D01*
X144999065Y-91441914D01*
X144973625Y-91458913D01*
X144973624Y-91458914D01*
X144901581Y-91507050D01*
X144901580Y-91507051D01*
X144347050Y-92061580D01*
X144347044Y-92061588D01*
X144297812Y-92135268D01*
X144297813Y-92135269D01*
X144264921Y-92184496D01*
X144264914Y-92184508D01*
X144208342Y-92321086D01*
X144208340Y-92321092D01*
X144179500Y-92466079D01*
X144179500Y-92466082D01*
X144179500Y-97473918D01*
X144179500Y-97473920D01*
X144179499Y-97473920D01*
X144208340Y-97618907D01*
X144208343Y-97618917D01*
X144264914Y-97755492D01*
X144264915Y-97755494D01*
X144264916Y-97755495D01*
X144287035Y-97788599D01*
X144297812Y-97804727D01*
X144297813Y-97804730D01*
X144347046Y-97878414D01*
X144347052Y-97878421D01*
X144857130Y-98388497D01*
X144890615Y-98449820D01*
X144892977Y-98486985D01*
X144874341Y-98699997D01*
X144874341Y-98700000D01*
X144894936Y-98935403D01*
X144894938Y-98935413D01*
X144956094Y-99163655D01*
X144956096Y-99163659D01*
X144956097Y-99163663D01*
X145020706Y-99302217D01*
X145055965Y-99377830D01*
X145055967Y-99377834D01*
X145091125Y-99428044D01*
X145175098Y-99547970D01*
X145191501Y-99571395D01*
X145191506Y-99571402D01*
X145358597Y-99738493D01*
X145358603Y-99738498D01*
X145544158Y-99868425D01*
X145587783Y-99923002D01*
X145594977Y-99992500D01*
X145563454Y-100054855D01*
X145544158Y-100071575D01*
X145358597Y-100201505D01*
X145191505Y-100368597D01*
X145055965Y-100562169D01*
X145055964Y-100562171D01*
X144956098Y-100776335D01*
X144956094Y-100776344D01*
X144894938Y-101004586D01*
X144894936Y-101004596D01*
X144874341Y-101239999D01*
X144874341Y-101240000D01*
X144894936Y-101475403D01*
X144894938Y-101475413D01*
X144956094Y-101703655D01*
X144956096Y-101703659D01*
X144956097Y-101703663D01*
X145038093Y-101879503D01*
X145055965Y-101917830D01*
X145055967Y-101917834D01*
X145077069Y-101947970D01*
X145191501Y-102111396D01*
X145191506Y-102111402D01*
X145313430Y-102233326D01*
X145346915Y-102294649D01*
X145341931Y-102364341D01*
X145300059Y-102420274D01*
X145269083Y-102437189D01*
X145137669Y-102486203D01*
X145137664Y-102486206D01*
X145022455Y-102572452D01*
X145022452Y-102572455D01*
X144936206Y-102687664D01*
X144936202Y-102687671D01*
X144885908Y-102822517D01*
X144880759Y-102870414D01*
X144879501Y-102882123D01*
X144879500Y-102882135D01*
X144879500Y-104677870D01*
X144879501Y-104677876D01*
X144885908Y-104737483D01*
X144936202Y-104872328D01*
X144936206Y-104872335D01*
X145022452Y-104987544D01*
X145022455Y-104987547D01*
X145137664Y-105073793D01*
X145137671Y-105073797D01*
X145272517Y-105124091D01*
X145272516Y-105124091D01*
X145279444Y-105124835D01*
X145332127Y-105130500D01*
X147127872Y-105130499D01*
X147187483Y-105124091D01*
X147322331Y-105073796D01*
X147437546Y-104987546D01*
X147523796Y-104872331D01*
X147574091Y-104737483D01*
X147580500Y-104677873D01*
X147580499Y-102882128D01*
X147574091Y-102822517D01*
X147573401Y-102820668D01*
X147523797Y-102687671D01*
X147523793Y-102687664D01*
X147437547Y-102572455D01*
X147437544Y-102572452D01*
X147322335Y-102486206D01*
X147322328Y-102486202D01*
X147190917Y-102437189D01*
X147134983Y-102395318D01*
X147110566Y-102329853D01*
X147125418Y-102261580D01*
X147146563Y-102233332D01*
X147268495Y-102111401D01*
X147404035Y-101917830D01*
X147503903Y-101703663D01*
X147565063Y-101475408D01*
X147585659Y-101240000D01*
X147565063Y-101004592D01*
X147503903Y-100776337D01*
X147404035Y-100562171D01*
X147383928Y-100533454D01*
X147268494Y-100368597D01*
X147101402Y-100201506D01*
X147101396Y-100201501D01*
X146915842Y-100071575D01*
X146872217Y-100016998D01*
X146865023Y-99947500D01*
X146896546Y-99885145D01*
X146915842Y-99868425D01*
X146972968Y-99828425D01*
X147101401Y-99738495D01*
X147268495Y-99571401D01*
X147404035Y-99377830D01*
X147503903Y-99163663D01*
X147565063Y-98935408D01*
X147585659Y-98700000D01*
X147565063Y-98464592D01*
X147503903Y-98236337D01*
X147404035Y-98022171D01*
X147383928Y-97993454D01*
X147268494Y-97828597D01*
X147101402Y-97661506D01*
X147101396Y-97661501D01*
X146915842Y-97531575D01*
X146872217Y-97476998D01*
X146865023Y-97407500D01*
X146896546Y-97345145D01*
X146915842Y-97328425D01*
X146976314Y-97286082D01*
X147101401Y-97198495D01*
X147268495Y-97031401D01*
X147404035Y-96837830D01*
X147503903Y-96623663D01*
X147565063Y-96395408D01*
X147585659Y-96160000D01*
X147565063Y-95924592D01*
X147503903Y-95696337D01*
X147404035Y-95482171D01*
X147401269Y-95478220D01*
X147268494Y-95288597D01*
X147101402Y-95121506D01*
X147101401Y-95121505D01*
X146915405Y-94991269D01*
X146871781Y-94936692D01*
X146864588Y-94867193D01*
X146896110Y-94804839D01*
X146915405Y-94788119D01*
X147101082Y-94658105D01*
X147268105Y-94491082D01*
X147403599Y-94297579D01*
X147418146Y-94266381D01*
X147464317Y-94213940D01*
X147531510Y-94194786D01*
X147598392Y-94214999D01*
X147618211Y-94231101D01*
X150105681Y-96718571D01*
X150139166Y-96779894D01*
X150142000Y-96806252D01*
X150142000Y-100016418D01*
X150142000Y-100016420D01*
X150141999Y-100016420D01*
X150170840Y-100161407D01*
X150170843Y-100161417D01*
X150227413Y-100297990D01*
X150227414Y-100297991D01*
X150227416Y-100297995D01*
X150237687Y-100313366D01*
X150237688Y-100313369D01*
X150309546Y-100420914D01*
X150309552Y-100420921D01*
X150805681Y-100917048D01*
X150839166Y-100978371D01*
X150842000Y-101004729D01*
X150842000Y-101265836D01*
X150842001Y-101265855D01*
X150852150Y-101365207D01*
X150852151Y-101365210D01*
X150905496Y-101526194D01*
X150905501Y-101526205D01*
X150994529Y-101670540D01*
X150994532Y-101670544D01*
X151114455Y-101790467D01*
X151114459Y-101790470D01*
X151258794Y-101879498D01*
X151258797Y-101879499D01*
X151258803Y-101879503D01*
X151419792Y-101932849D01*
X151519155Y-101943000D01*
X152118000Y-101942999D01*
X152185039Y-101962683D01*
X152230794Y-102015487D01*
X152242000Y-102066999D01*
X152242000Y-107195269D01*
X152222315Y-107262308D01*
X152205681Y-107282950D01*
X132710956Y-126777674D01*
X132649633Y-126811159D01*
X132579941Y-126806175D01*
X132524008Y-126764303D01*
X132510893Y-126742397D01*
X132473602Y-126662426D01*
X132473599Y-126662420D01*
X132338113Y-126468926D01*
X132338108Y-126468920D01*
X132171082Y-126301894D01*
X131977578Y-126166399D01*
X131763492Y-126066570D01*
X131763486Y-126066567D01*
X131550000Y-126009364D01*
X131550000Y-126906988D01*
X131492993Y-126874075D01*
X131365826Y-126840000D01*
X131234174Y-126840000D01*
X131107007Y-126874075D01*
X131050000Y-126906988D01*
X131050000Y-126009364D01*
X131049999Y-126009364D01*
X130836513Y-126066567D01*
X130836507Y-126066570D01*
X130622422Y-126166399D01*
X130622420Y-126166400D01*
X130428926Y-126301886D01*
X130428920Y-126301891D01*
X130261891Y-126468920D01*
X130261890Y-126468922D01*
X130131880Y-126654595D01*
X130077303Y-126698219D01*
X130007804Y-126705412D01*
X129945450Y-126673890D01*
X129928730Y-126654594D01*
X129798494Y-126468597D01*
X129631402Y-126301506D01*
X129631395Y-126301501D01*
X129437832Y-126165966D01*
X129437828Y-126165964D01*
X129223663Y-126066097D01*
X129223659Y-126066096D01*
X129223655Y-126066094D01*
X128995413Y-126004938D01*
X128995403Y-126004936D01*
X128911824Y-125997624D01*
X128846755Y-125972171D01*
X128805777Y-125915580D01*
X128801899Y-125845818D01*
X128834949Y-125786417D01*
X142082951Y-112538416D01*
X142165084Y-112415495D01*
X142221658Y-112278913D01*
X142250500Y-112133918D01*
X142250500Y-111986083D01*
X142250500Y-97910254D01*
X142250500Y-97910251D01*
X142221659Y-97765264D01*
X142221658Y-97765263D01*
X142221658Y-97765259D01*
X142201044Y-97715492D01*
X142165087Y-97628683D01*
X142165084Y-97628678D01*
X142165084Y-97628677D01*
X142121198Y-97562997D01*
X142082952Y-97505756D01*
X141863278Y-97286082D01*
X141544249Y-96967052D01*
X141544242Y-96967046D01*
X141470557Y-96917812D01*
X141470557Y-96917813D01*
X141421319Y-96884913D01*
X141284745Y-96828343D01*
X141284735Y-96828340D01*
X141139748Y-96799500D01*
X141139746Y-96799500D01*
X137144500Y-96799500D01*
X137077461Y-96779815D01*
X137031706Y-96727011D01*
X137020500Y-96675500D01*
X137020500Y-80036079D01*
X136991659Y-79891092D01*
X136991658Y-79891091D01*
X136991658Y-79891087D01*
X136991656Y-79891082D01*
X136935087Y-79754511D01*
X136935080Y-79754498D01*
X136852952Y-79631585D01*
X136852951Y-79631584D01*
X136748416Y-79527049D01*
X131539255Y-74317887D01*
X153872568Y-74317887D01*
X153913507Y-74550067D01*
X153994147Y-74771621D01*
X153994150Y-74771628D01*
X154112032Y-74975805D01*
X154112034Y-74975809D01*
X154179773Y-75056536D01*
X154263583Y-75156417D01*
X154382614Y-75256296D01*
X154444190Y-75307965D01*
X154444191Y-75307965D01*
X154444193Y-75307967D01*
X154648376Y-75425852D01*
X154869927Y-75506491D01*
X154869931Y-75506491D01*
X154869932Y-75506492D01*
X154916560Y-75514713D01*
X155102115Y-75547432D01*
X155337883Y-75547432D01*
X155337885Y-75547432D01*
X155570073Y-75506491D01*
X155791624Y-75425852D01*
X155995807Y-75307967D01*
X156176417Y-75156417D01*
X156327967Y-74975807D01*
X156445852Y-74771624D01*
X156526491Y-74550073D01*
X156567432Y-74317885D01*
X156570000Y-74200000D01*
X156567432Y-74082115D01*
X156526491Y-73849927D01*
X156445852Y-73628376D01*
X156327967Y-73424193D01*
X156327965Y-73424191D01*
X156327965Y-73424190D01*
X156276296Y-73362614D01*
X156176417Y-73243583D01*
X156076536Y-73159773D01*
X155995809Y-73092034D01*
X155995805Y-73092032D01*
X155791628Y-72974150D01*
X155791625Y-72974149D01*
X155791624Y-72974148D01*
X155570073Y-72893509D01*
X155570072Y-72893508D01*
X155570067Y-72893507D01*
X155337887Y-72852568D01*
X155337885Y-72852568D01*
X155102115Y-72852568D01*
X155102112Y-72852568D01*
X154869932Y-72893507D01*
X154648378Y-72974147D01*
X154648371Y-72974150D01*
X154444194Y-73092032D01*
X154444190Y-73092034D01*
X154263583Y-73243583D01*
X154112034Y-73424190D01*
X154112032Y-73424194D01*
X153994150Y-73628371D01*
X153994147Y-73628378D01*
X153913507Y-73849932D01*
X153872568Y-74082112D01*
X153872568Y-74317887D01*
X131539255Y-74317887D01*
X128834952Y-71613584D01*
X128801467Y-71552261D01*
X128806451Y-71482569D01*
X128848323Y-71426636D01*
X128911823Y-71402375D01*
X128995408Y-71395063D01*
X129223663Y-71333903D01*
X129437830Y-71234035D01*
X129631401Y-71098495D01*
X129798495Y-70931401D01*
X129928730Y-70745405D01*
X129983307Y-70701781D01*
X130052805Y-70694587D01*
X130115160Y-70726110D01*
X130131879Y-70745405D01*
X130261890Y-70931078D01*
X130428917Y-71098105D01*
X130622421Y-71233600D01*
X130836507Y-71333429D01*
X130836516Y-71333433D01*
X131050000Y-71390634D01*
X131050000Y-70493012D01*
X131107007Y-70525925D01*
X131234174Y-70560000D01*
X131365826Y-70560000D01*
X131492993Y-70525925D01*
X131550000Y-70493012D01*
X131550000Y-71390633D01*
X131763483Y-71333433D01*
X131763492Y-71333429D01*
X131977578Y-71233600D01*
X132171082Y-71098105D01*
X132338105Y-70931082D01*
X132411872Y-70825734D01*
X136622466Y-70825734D01*
X136661801Y-71074090D01*
X136739508Y-71313244D01*
X136797285Y-71426636D01*
X136848356Y-71526869D01*
X136853668Y-71537293D01*
X137001463Y-71740717D01*
X137001467Y-71740722D01*
X137179277Y-71918532D01*
X137179282Y-71918536D01*
X137356720Y-72047451D01*
X137382710Y-72066334D01*
X137525474Y-72139076D01*
X137606755Y-72180491D01*
X137606757Y-72180491D01*
X137606760Y-72180493D01*
X137734949Y-72222144D01*
X137845909Y-72258198D01*
X138094266Y-72297534D01*
X138345729Y-72297534D01*
X138345734Y-72297534D01*
X138594090Y-72258198D01*
X138833240Y-72180493D01*
X139057290Y-72066334D01*
X139260724Y-71918531D01*
X139438531Y-71740724D01*
X139586334Y-71537290D01*
X139700493Y-71313240D01*
X139778198Y-71074090D01*
X139817534Y-70825729D01*
X139820000Y-70700000D01*
X139817534Y-70574271D01*
X139778198Y-70325910D01*
X139700493Y-70086760D01*
X139700491Y-70086757D01*
X139700491Y-70086755D01*
X139659076Y-70005474D01*
X139586334Y-69862710D01*
X139548037Y-69809999D01*
X139438536Y-69659282D01*
X139438532Y-69659277D01*
X139260722Y-69481467D01*
X139260717Y-69481463D01*
X139057293Y-69333668D01*
X139057292Y-69333667D01*
X139057290Y-69333666D01*
X138987322Y-69298015D01*
X138833244Y-69219508D01*
X138594090Y-69141801D01*
X138345734Y-69102466D01*
X138345729Y-69102466D01*
X138094271Y-69102466D01*
X138094266Y-69102466D01*
X137845909Y-69141801D01*
X137606755Y-69219508D01*
X137382706Y-69333668D01*
X137179282Y-69481463D01*
X137179277Y-69481467D01*
X137001467Y-69659277D01*
X137001463Y-69659282D01*
X136853668Y-69862706D01*
X136739508Y-70086755D01*
X136661801Y-70325909D01*
X136622466Y-70574265D01*
X136622466Y-70825734D01*
X132411872Y-70825734D01*
X132473600Y-70737578D01*
X132573429Y-70523492D01*
X132573432Y-70523486D01*
X132630636Y-70310000D01*
X131733012Y-70310000D01*
X131765925Y-70252993D01*
X131800000Y-70125826D01*
X131800000Y-69994174D01*
X131765925Y-69867007D01*
X131733012Y-69810000D01*
X132630636Y-69810000D01*
X132630635Y-69809999D01*
X132573432Y-69596513D01*
X132573429Y-69596507D01*
X132473600Y-69382422D01*
X132473599Y-69382420D01*
X132338113Y-69188926D01*
X132338108Y-69188920D01*
X132171082Y-69021894D01*
X131977578Y-68886399D01*
X131763492Y-68786570D01*
X131763486Y-68786567D01*
X131550000Y-68729364D01*
X131550000Y-69626988D01*
X131492993Y-69594075D01*
X131365826Y-69560000D01*
X131234174Y-69560000D01*
X131107007Y-69594075D01*
X131050000Y-69626988D01*
X131050000Y-68729364D01*
X131049999Y-68729364D01*
X130836513Y-68786567D01*
X130836507Y-68786570D01*
X130622422Y-68886399D01*
X130622420Y-68886400D01*
X130428926Y-69021886D01*
X130428920Y-69021891D01*
X130261891Y-69188920D01*
X130261890Y-69188922D01*
X130131880Y-69374595D01*
X130077303Y-69418219D01*
X130007804Y-69425412D01*
X129945450Y-69393890D01*
X129928730Y-69374594D01*
X129798494Y-69188597D01*
X129631402Y-69021506D01*
X129631395Y-69021501D01*
X129437834Y-68885967D01*
X129437830Y-68885965D01*
X129437828Y-68885964D01*
X129223663Y-68786097D01*
X129223659Y-68786096D01*
X129223655Y-68786094D01*
X128995413Y-68724938D01*
X128995403Y-68724936D01*
X128760001Y-68704341D01*
X128759999Y-68704341D01*
X128524596Y-68724936D01*
X128524586Y-68724938D01*
X128296344Y-68786094D01*
X128296335Y-68786098D01*
X128082171Y-68885964D01*
X128082169Y-68885965D01*
X127888597Y-69021505D01*
X127721505Y-69188597D01*
X127591575Y-69374158D01*
X127536998Y-69417783D01*
X127467500Y-69424977D01*
X127405145Y-69393454D01*
X127388425Y-69374158D01*
X127258494Y-69188597D01*
X127091402Y-69021506D01*
X127091395Y-69021501D01*
X126897834Y-68885967D01*
X126897830Y-68885965D01*
X126897828Y-68885964D01*
X126683663Y-68786097D01*
X126683659Y-68786096D01*
X126683655Y-68786094D01*
X126455413Y-68724938D01*
X126455403Y-68724936D01*
X126220001Y-68704341D01*
X126219999Y-68704341D01*
X125984596Y-68724936D01*
X125984586Y-68724938D01*
X125756344Y-68786094D01*
X125756335Y-68786098D01*
X125542171Y-68885964D01*
X125542169Y-68885965D01*
X125348597Y-69021505D01*
X125181505Y-69188597D01*
X125051575Y-69374158D01*
X124996998Y-69417783D01*
X124927500Y-69424977D01*
X124865145Y-69393454D01*
X124848425Y-69374158D01*
X124718494Y-69188597D01*
X124551402Y-69021506D01*
X124551395Y-69021501D01*
X124357834Y-68885967D01*
X124357830Y-68885965D01*
X124357828Y-68885964D01*
X124143663Y-68786097D01*
X124143659Y-68786096D01*
X124143655Y-68786094D01*
X123915413Y-68724938D01*
X123915403Y-68724936D01*
X123680001Y-68704341D01*
X123679999Y-68704341D01*
X123444596Y-68724936D01*
X123444586Y-68724938D01*
X123216344Y-68786094D01*
X123216335Y-68786098D01*
X123002171Y-68885964D01*
X123002169Y-68885965D01*
X122808600Y-69021503D01*
X122686673Y-69143430D01*
X122625350Y-69176914D01*
X122555658Y-69171930D01*
X122499725Y-69130058D01*
X122482810Y-69099081D01*
X122433797Y-68967671D01*
X122433793Y-68967664D01*
X122347547Y-68852455D01*
X122347544Y-68852452D01*
X122232335Y-68766206D01*
X122232328Y-68766202D01*
X122097482Y-68715908D01*
X122097483Y-68715908D01*
X122037883Y-68709501D01*
X122037881Y-68709500D01*
X122037873Y-68709500D01*
X122037864Y-68709500D01*
X120242129Y-68709500D01*
X120242123Y-68709501D01*
X120182516Y-68715908D01*
X120047671Y-68766202D01*
X120047664Y-68766206D01*
X119932455Y-68852452D01*
X119932452Y-68852455D01*
X119846206Y-68967664D01*
X119846202Y-68967671D01*
X119795908Y-69102517D01*
X119789501Y-69162116D01*
X119789500Y-69162135D01*
X119789500Y-70957870D01*
X119789501Y-70957876D01*
X119795908Y-71017483D01*
X119846202Y-71152328D01*
X119846206Y-71152335D01*
X119932452Y-71267544D01*
X119932455Y-71267547D01*
X120047664Y-71353793D01*
X120047671Y-71353797D01*
X120182517Y-71404091D01*
X120182516Y-71404091D01*
X120189444Y-71404835D01*
X120242127Y-71410500D01*
X122037872Y-71410499D01*
X122091407Y-71404744D01*
X122102247Y-71403579D01*
X122171006Y-71415986D01*
X122222143Y-71463597D01*
X122239500Y-71526869D01*
X122239500Y-99535500D01*
X122219815Y-99602539D01*
X122167011Y-99648294D01*
X122115500Y-99659500D01*
X119317001Y-99659500D01*
X119249962Y-99639815D01*
X119204207Y-99587011D01*
X119194263Y-99517853D01*
X119215426Y-99464376D01*
X119240866Y-99428044D01*
X119304035Y-99337830D01*
X119403903Y-99123663D01*
X119465063Y-98895408D01*
X119485659Y-98660000D01*
X119467022Y-98446984D01*
X119480788Y-98378485D01*
X119502865Y-98348500D01*
X120012952Y-97838415D01*
X120048828Y-97784722D01*
X120095084Y-97715495D01*
X120131045Y-97628677D01*
X120151659Y-97578912D01*
X120180500Y-97433917D01*
X120180500Y-97286082D01*
X120180500Y-91166082D01*
X120174763Y-91137241D01*
X120151659Y-91021088D01*
X120097408Y-90890117D01*
X120095764Y-90885522D01*
X120012954Y-90761588D01*
X120012953Y-90761587D01*
X120012951Y-90761584D01*
X119908416Y-90657049D01*
X116342877Y-87091509D01*
X116309392Y-87030186D01*
X116314376Y-86960494D01*
X116323171Y-86941828D01*
X116377179Y-86848284D01*
X116435674Y-86668256D01*
X116455460Y-86480000D01*
X116435674Y-86291744D01*
X116377179Y-86111716D01*
X116282533Y-85947784D01*
X116155871Y-85807112D01*
X116155870Y-85807111D01*
X116002734Y-85695851D01*
X116002729Y-85695848D01*
X115829807Y-85618857D01*
X115829802Y-85618855D01*
X115684001Y-85587865D01*
X115644646Y-85579500D01*
X115455354Y-85579500D01*
X115422897Y-85586398D01*
X115270197Y-85618855D01*
X115270192Y-85618857D01*
X115097270Y-85695848D01*
X115097265Y-85695851D01*
X114944129Y-85807111D01*
X114817466Y-85947785D01*
X114722821Y-86111715D01*
X114722818Y-86111722D01*
X114664327Y-86291740D01*
X114664326Y-86291744D01*
X114644540Y-86480000D01*
X114664326Y-86668256D01*
X114664327Y-86668259D01*
X114722818Y-86848277D01*
X114722821Y-86848284D01*
X114782887Y-86952321D01*
X114799500Y-87014321D01*
X114799500Y-87433918D01*
X114799500Y-87433920D01*
X114799499Y-87433920D01*
X114828340Y-87578907D01*
X114828343Y-87578917D01*
X114884914Y-87715492D01*
X114917812Y-87764727D01*
X114917813Y-87764730D01*
X114967046Y-87838414D01*
X114967052Y-87838421D01*
X118643181Y-91514548D01*
X118676666Y-91575871D01*
X118679500Y-91602229D01*
X118679500Y-94707496D01*
X118659815Y-94774535D01*
X118607011Y-94820290D01*
X118537853Y-94830234D01*
X118523408Y-94827271D01*
X118365416Y-94784939D01*
X118365412Y-94784938D01*
X118365408Y-94784937D01*
X118365406Y-94784936D01*
X118365403Y-94784936D01*
X118130001Y-94764341D01*
X118129999Y-94764341D01*
X117894596Y-94784936D01*
X117894586Y-94784938D01*
X117666344Y-94846094D01*
X117666335Y-94846098D01*
X117452171Y-94945964D01*
X117452169Y-94945965D01*
X117258597Y-95081505D01*
X117091505Y-95248597D01*
X116961269Y-95434595D01*
X116906692Y-95478220D01*
X116837194Y-95485414D01*
X116774839Y-95453891D01*
X116758119Y-95434595D01*
X116704925Y-95358626D01*
X116704925Y-95358625D01*
X116072962Y-95990589D01*
X116055925Y-95927007D01*
X115990099Y-95812993D01*
X115897007Y-95719901D01*
X115782993Y-95654075D01*
X115719410Y-95637037D01*
X116351373Y-95005073D01*
X116351373Y-95005072D01*
X116267583Y-94946402D01*
X116267579Y-94946400D01*
X116053492Y-94846570D01*
X116053483Y-94846566D01*
X115825326Y-94785432D01*
X115825315Y-94785430D01*
X115590002Y-94764843D01*
X115589998Y-94764843D01*
X115354684Y-94785430D01*
X115354673Y-94785432D01*
X115126516Y-94846566D01*
X115126507Y-94846570D01*
X114912419Y-94946401D01*
X114828625Y-95005072D01*
X115460590Y-95637037D01*
X115397007Y-95654075D01*
X115282993Y-95719901D01*
X115189901Y-95812993D01*
X115124075Y-95927007D01*
X115107037Y-95990590D01*
X114475072Y-95358625D01*
X114416401Y-95442419D01*
X114316570Y-95656507D01*
X114316566Y-95656516D01*
X114255432Y-95884673D01*
X114255430Y-95884684D01*
X114234843Y-96119998D01*
X114234843Y-96120001D01*
X114255430Y-96355315D01*
X114255432Y-96355326D01*
X114316566Y-96583483D01*
X114316570Y-96583492D01*
X114416400Y-96797579D01*
X114416402Y-96797583D01*
X114475072Y-96881373D01*
X114475073Y-96881373D01*
X115107037Y-96249409D01*
X115124075Y-96312993D01*
X115189901Y-96427007D01*
X115282993Y-96520099D01*
X115397007Y-96585925D01*
X115460590Y-96602962D01*
X114828625Y-97234925D01*
X114904594Y-97288119D01*
X114948219Y-97342696D01*
X114955413Y-97412194D01*
X114923890Y-97474549D01*
X114904595Y-97491269D01*
X114718594Y-97621508D01*
X114551505Y-97788597D01*
X114415965Y-97982169D01*
X114415964Y-97982171D01*
X114316098Y-98196335D01*
X114316094Y-98196344D01*
X114254938Y-98424586D01*
X114254936Y-98424596D01*
X114234341Y-98659999D01*
X114234341Y-98660000D01*
X114254936Y-98895403D01*
X114254938Y-98895413D01*
X114316094Y-99123655D01*
X114316096Y-99123659D01*
X114316097Y-99123663D01*
X114396004Y-99295023D01*
X114415965Y-99337830D01*
X114415967Y-99337834D01*
X114524281Y-99492521D01*
X114551501Y-99531396D01*
X114551506Y-99531402D01*
X114718597Y-99698493D01*
X114718603Y-99698498D01*
X114904158Y-99828425D01*
X114947783Y-99883002D01*
X114954977Y-99952500D01*
X114923454Y-100014855D01*
X114904158Y-100031575D01*
X114718597Y-100161505D01*
X114551505Y-100328597D01*
X114415965Y-100522169D01*
X114415964Y-100522171D01*
X114316098Y-100736335D01*
X114316094Y-100736344D01*
X114254938Y-100964586D01*
X114254936Y-100964596D01*
X114234341Y-101199999D01*
X114234341Y-101200000D01*
X114254936Y-101435403D01*
X114254938Y-101435413D01*
X114316094Y-101663655D01*
X114316096Y-101663659D01*
X114316097Y-101663663D01*
X114392749Y-101828044D01*
X114415965Y-101877830D01*
X114415967Y-101877834D01*
X114521758Y-102028918D01*
X114551505Y-102071401D01*
X114718599Y-102238495D01*
X114718604Y-102238499D01*
X114719968Y-102239643D01*
X114720407Y-102240303D01*
X114722427Y-102242323D01*
X114722021Y-102242728D01*
X114758669Y-102297815D01*
X114759776Y-102367676D01*
X114722937Y-102427046D01*
X114679267Y-102452336D01*
X114670669Y-102455184D01*
X114670663Y-102455187D01*
X114521342Y-102547289D01*
X114397289Y-102671342D01*
X114305187Y-102820663D01*
X114305185Y-102820668D01*
X114288701Y-102870414D01*
X114250001Y-102987203D01*
X114250001Y-102987204D01*
X114250000Y-102987204D01*
X114239500Y-103089983D01*
X114239500Y-103089991D01*
X114239500Y-103710867D01*
X114239501Y-104210500D01*
X114219816Y-104277539D01*
X114167013Y-104323294D01*
X114115501Y-104334500D01*
X110422230Y-104334500D01*
X110355191Y-104314815D01*
X110334549Y-104298181D01*
X107592869Y-101556501D01*
X107559384Y-101495178D01*
X107557022Y-101458012D01*
X107559000Y-101435413D01*
X107575659Y-101245000D01*
X107575221Y-101239999D01*
X107560793Y-101075084D01*
X107555063Y-101009592D01*
X107493903Y-100781337D01*
X107394035Y-100567171D01*
X107387462Y-100557783D01*
X107258494Y-100373597D01*
X107091402Y-100206506D01*
X107091396Y-100206501D01*
X106905842Y-100076575D01*
X106862217Y-100021998D01*
X106855023Y-99952500D01*
X106886546Y-99890145D01*
X106905842Y-99873425D01*
X106946230Y-99845145D01*
X107091401Y-99743495D01*
X107258495Y-99576401D01*
X107394035Y-99382830D01*
X107493903Y-99168663D01*
X107555063Y-98940408D01*
X107575659Y-98705000D01*
X107575221Y-98699999D01*
X107559787Y-98523587D01*
X107555063Y-98469592D01*
X107493903Y-98241337D01*
X107394035Y-98027171D01*
X107387462Y-98017783D01*
X107258494Y-97833597D01*
X107091402Y-97666506D01*
X107091396Y-97666501D01*
X106905842Y-97536575D01*
X106862217Y-97481998D01*
X106855023Y-97412500D01*
X106886546Y-97350145D01*
X106905842Y-97333425D01*
X106947378Y-97304341D01*
X107091401Y-97203495D01*
X107258495Y-97036401D01*
X107394035Y-96842830D01*
X107493903Y-96628663D01*
X107555063Y-96400408D01*
X107575659Y-96165000D01*
X107575221Y-96159999D01*
X107565963Y-96054174D01*
X107555063Y-95929592D01*
X107493903Y-95701337D01*
X107394035Y-95487171D01*
X107387768Y-95478220D01*
X107258494Y-95293597D01*
X107091402Y-95126506D01*
X107091401Y-95126505D01*
X106905405Y-94996269D01*
X106861781Y-94941692D01*
X106854588Y-94872193D01*
X106886110Y-94809839D01*
X106905405Y-94793119D01*
X107091082Y-94663105D01*
X107258105Y-94496082D01*
X107393600Y-94302578D01*
X107493429Y-94088492D01*
X107493432Y-94088486D01*
X107550636Y-93875000D01*
X106653012Y-93875000D01*
X106685925Y-93817993D01*
X106720000Y-93690826D01*
X106720000Y-93559174D01*
X106685925Y-93432007D01*
X106653012Y-93375000D01*
X107550636Y-93375000D01*
X107550635Y-93374999D01*
X107493432Y-93161513D01*
X107493429Y-93161507D01*
X107393600Y-92947422D01*
X107393599Y-92947420D01*
X107258113Y-92753926D01*
X107258108Y-92753920D01*
X107091082Y-92586894D01*
X106897578Y-92451399D01*
X106683492Y-92351570D01*
X106683486Y-92351567D01*
X106470000Y-92294364D01*
X106470000Y-93191988D01*
X106412993Y-93159075D01*
X106285826Y-93125000D01*
X106154174Y-93125000D01*
X106027007Y-93159075D01*
X105970000Y-93191988D01*
X105970000Y-92294364D01*
X105969999Y-92294364D01*
X105756513Y-92351567D01*
X105756507Y-92351570D01*
X105542422Y-92451399D01*
X105542420Y-92451400D01*
X105348926Y-92586886D01*
X105348920Y-92586891D01*
X105181891Y-92753920D01*
X105181886Y-92753926D01*
X105046400Y-92947420D01*
X105046399Y-92947422D01*
X104946570Y-93161507D01*
X104946567Y-93161513D01*
X104889364Y-93374999D01*
X104889364Y-93375000D01*
X105786988Y-93375000D01*
X105754075Y-93432007D01*
X105720000Y-93559174D01*
X105720000Y-93690826D01*
X105754075Y-93817993D01*
X105786988Y-93875000D01*
X104889364Y-93875000D01*
X104946567Y-94088486D01*
X104946570Y-94088492D01*
X105046399Y-94302578D01*
X105181894Y-94496082D01*
X105348917Y-94663105D01*
X105534595Y-94793119D01*
X105578219Y-94847696D01*
X105585412Y-94917195D01*
X105553890Y-94979549D01*
X105534595Y-94996269D01*
X105348594Y-95126508D01*
X105181505Y-95293597D01*
X105045965Y-95487169D01*
X105045964Y-95487171D01*
X104952401Y-95687816D01*
X104948430Y-95696335D01*
X104946098Y-95701335D01*
X104946094Y-95701344D01*
X104884938Y-95929586D01*
X104884936Y-95929596D01*
X104864341Y-96164999D01*
X104864341Y-96165000D01*
X104884936Y-96400403D01*
X104884938Y-96400413D01*
X104946094Y-96628655D01*
X104946096Y-96628659D01*
X104946097Y-96628663D01*
X105019516Y-96786110D01*
X105045965Y-96842830D01*
X105045967Y-96842834D01*
X105181501Y-97036395D01*
X105181506Y-97036402D01*
X105348597Y-97203493D01*
X105348603Y-97203498D01*
X105534158Y-97333425D01*
X105577783Y-97388002D01*
X105584977Y-97457500D01*
X105553454Y-97519855D01*
X105534158Y-97536575D01*
X105348597Y-97666505D01*
X105181505Y-97833597D01*
X105045965Y-98027169D01*
X105045964Y-98027171D01*
X104984235Y-98159550D01*
X104948430Y-98236335D01*
X104946098Y-98241335D01*
X104946094Y-98241344D01*
X104884938Y-98469586D01*
X104884936Y-98469596D01*
X104864341Y-98704999D01*
X104864341Y-98705001D01*
X104882977Y-98918013D01*
X104869210Y-98986513D01*
X104847130Y-99016501D01*
X104337045Y-99526586D01*
X104315642Y-99558619D01*
X104307103Y-99571401D01*
X104283565Y-99606628D01*
X104254914Y-99649507D01*
X104198343Y-99786082D01*
X104198340Y-99786092D01*
X104169500Y-99931079D01*
X104169500Y-99931082D01*
X104169500Y-105158918D01*
X104169500Y-105158920D01*
X104169499Y-105158920D01*
X93720000Y-105158920D01*
X93720000Y-74317887D01*
X95872568Y-74317887D01*
X95913507Y-74550067D01*
X95994147Y-74771621D01*
X95994150Y-74771628D01*
X96112032Y-74975805D01*
X96112034Y-74975809D01*
X96179773Y-75056536D01*
X96263583Y-75156417D01*
X96382614Y-75256296D01*
X96444190Y-75307965D01*
X96444191Y-75307965D01*
X96444193Y-75307967D01*
X96648376Y-75425852D01*
X96869927Y-75506491D01*
X96869931Y-75506491D01*
X96869932Y-75506492D01*
X96916560Y-75514713D01*
X97102115Y-75547432D01*
X97337883Y-75547432D01*
X97337885Y-75547432D01*
X97570073Y-75506491D01*
X97791624Y-75425852D01*
X97995807Y-75307967D01*
X98176417Y-75156417D01*
X98327967Y-74975807D01*
X98445852Y-74771624D01*
X98526491Y-74550073D01*
X98567432Y-74317885D01*
X98570000Y-74200000D01*
X98567432Y-74082115D01*
X98526491Y-73849927D01*
X98445852Y-73628376D01*
X98327967Y-73424193D01*
X98327965Y-73424191D01*
X98327965Y-73424190D01*
X98276296Y-73362614D01*
X98176417Y-73243583D01*
X98076536Y-73159773D01*
X97995809Y-73092034D01*
X97995805Y-73092032D01*
X97791628Y-72974150D01*
X97791625Y-72974149D01*
X97791624Y-72974148D01*
X97570073Y-72893509D01*
X97570072Y-72893508D01*
X97570067Y-72893507D01*
X97337887Y-72852568D01*
X97337885Y-72852568D01*
X97102115Y-72852568D01*
X97102112Y-72852568D01*
X96869932Y-72893507D01*
X96648378Y-72974147D01*
X96648371Y-72974150D01*
X96444194Y-73092032D01*
X96444190Y-73092034D01*
X96263583Y-73243583D01*
X96112034Y-73424190D01*
X96112032Y-73424194D01*
X95994150Y-73628371D01*
X95994147Y-73628378D01*
X95913507Y-73849932D01*
X95872568Y-74082112D01*
X95872568Y-74317887D01*
X93720000Y-74317887D01*
X93720000Y-70825734D01*
X112622466Y-70825734D01*
X112661801Y-71074090D01*
X112739508Y-71313244D01*
X112797285Y-71426636D01*
X112848356Y-71526869D01*
X112853668Y-71537293D01*
X113001463Y-71740717D01*
X113001467Y-71740722D01*
X113179277Y-71918532D01*
X113179282Y-71918536D01*
X113356720Y-72047451D01*
X113382710Y-72066334D01*
X113525474Y-72139076D01*
X113606755Y-72180491D01*
X113606757Y-72180491D01*
X113606760Y-72180493D01*
X113734949Y-72222144D01*
X113845909Y-72258198D01*
X114094266Y-72297534D01*
X114345729Y-72297534D01*
X114345734Y-72297534D01*
X114594090Y-72258198D01*
X114833240Y-72180493D01*
X115057290Y-72066334D01*
X115260724Y-71918531D01*
X115438531Y-71740724D01*
X115586334Y-71537290D01*
X115700493Y-71313240D01*
X115778198Y-71074090D01*
X115817534Y-70825729D01*
X115820000Y-70700000D01*
X115817534Y-70574271D01*
X115778198Y-70325910D01*
X115700493Y-70086760D01*
X115700491Y-70086757D01*
X115700491Y-70086755D01*
X115659076Y-70005474D01*
X115586334Y-69862710D01*
X115548037Y-69809999D01*
X115438536Y-69659282D01*
X115438532Y-69659277D01*
X115260722Y-69481467D01*
X115260717Y-69481463D01*
X115057293Y-69333668D01*
X115057292Y-69333667D01*
X115057290Y-69333666D01*
X114987322Y-69298015D01*
X114833244Y-69219508D01*
X114594090Y-69141801D01*
X114345734Y-69102466D01*
X114345729Y-69102466D01*
X114094271Y-69102466D01*
X114094266Y-69102466D01*
X113845909Y-69141801D01*
X113606755Y-69219508D01*
X113382706Y-69333668D01*
X113179282Y-69481463D01*
X113179277Y-69481467D01*
X113001467Y-69659277D01*
X113001463Y-69659282D01*
X112853668Y-69862706D01*
X112739508Y-70086755D01*
X112661801Y-70325909D01*
X112622466Y-70574265D01*
X112622466Y-70825734D01*
X93720000Y-70825734D01*
X93720000Y-69600872D01*
X93720011Y-69599199D01*
X93722189Y-69437783D01*
X93722958Y-69425573D01*
X93722977Y-69425412D01*
X93759189Y-69104001D01*
X93761518Y-69090296D01*
X93777132Y-69021886D01*
X93833342Y-68775605D01*
X93837183Y-68762271D01*
X93943801Y-68457572D01*
X93949108Y-68444761D01*
X94089161Y-68153935D01*
X94095876Y-68141784D01*
X94267616Y-67868459D01*
X94275646Y-67857141D01*
X94476905Y-67604771D01*
X94486154Y-67594420D01*
X94714408Y-67366164D01*
X94724758Y-67356915D01*
X94977128Y-67155656D01*
X94988446Y-67147625D01*
X95261766Y-66975886D01*
X95273918Y-66969170D01*
X95564751Y-66829112D01*
X95577553Y-66823808D01*
X95882257Y-66717187D01*
X95895591Y-66713346D01*
X96210296Y-66641516D01*
X96223974Y-66639192D01*
X96545573Y-66602957D01*
X96557755Y-66602191D01*
X96719326Y-66600025D01*
X96720688Y-66600015D01*
X155719128Y-66599993D01*
X155720858Y-66600005D01*
G37*
%TD.AperFunction*%
%TD*%
M02*
