%TF.GenerationSoftware,KiCad,Pcbnew,8.0.0-dirty*%
%TF.CreationDate,2024-04-14T22:52:08-04:00*%
%TF.ProjectId,UltrasonicPCB,556c7472-6173-46f6-9e69-635043422e6b,rev?*%
%TF.SameCoordinates,Original*%
%TF.FileFunction,Copper,L2,Bot*%
%TF.FilePolarity,Positive*%
%FSLAX46Y46*%
G04 Gerber Fmt 4.6, Leading zero omitted, Abs format (unit mm)*
G04 Created by KiCad (PCBNEW 8.0.0-dirty) date 2024-04-14 22:52:08*
%MOMM*%
%LPD*%
G01*
G04 APERTURE LIST*
G04 Aperture macros list*
%AMRoundRect*
0 Rectangle with rounded corners*
0 $1 Rounding radius*
0 $2 $3 $4 $5 $6 $7 $8 $9 X,Y pos of 4 corners*
0 Add a 4 corners polygon primitive as box body*
4,1,4,$2,$3,$4,$5,$6,$7,$8,$9,$2,$3,0*
0 Add four circle primitives for the rounded corners*
1,1,$1+$1,$2,$3*
1,1,$1+$1,$4,$5*
1,1,$1+$1,$6,$7*
1,1,$1+$1,$8,$9*
0 Add four rect primitives between the rounded corners*
20,1,$1+$1,$2,$3,$4,$5,0*
20,1,$1+$1,$4,$5,$6,$7,0*
20,1,$1+$1,$6,$7,$8,$9,0*
20,1,$1+$1,$8,$9,$2,$3,0*%
G04 Aperture macros list end*
%TA.AperFunction,ComponentPad*%
%ADD10R,1.700000X1.700000*%
%TD*%
%TA.AperFunction,ComponentPad*%
%ADD11O,1.700000X1.700000*%
%TD*%
%TA.AperFunction,SMDPad,CuDef*%
%ADD12RoundRect,0.250000X0.350000X0.450000X-0.350000X0.450000X-0.350000X-0.450000X0.350000X-0.450000X0*%
%TD*%
%TA.AperFunction,ComponentPad*%
%ADD13RoundRect,0.250000X-0.600000X-0.600000X0.600000X-0.600000X0.600000X0.600000X-0.600000X0.600000X0*%
%TD*%
%TA.AperFunction,ComponentPad*%
%ADD14C,1.700000*%
%TD*%
%TA.AperFunction,ViaPad*%
%ADD15C,0.800000*%
%TD*%
%TA.AperFunction,Conductor*%
%ADD16C,0.500000*%
%TD*%
%TA.AperFunction,Conductor*%
%ADD17C,0.250000*%
%TD*%
G04 APERTURE END LIST*
D10*
%TO.P,U3,1,VCC*%
%TO.N,5V*%
X131290000Y-70060000D03*
D11*
%TO.P,U3,2,TRIG*%
%TO.N,TRIG3*%
X128750000Y-70060000D03*
%TO.P,U3,3,ECHO*%
%TO.N,Net-(D3-A)*%
X126210000Y-70060000D03*
%TO.P,U3,4,OUT*%
%TO.N,unconnected-(U3-OUT-Pad4)*%
X123670000Y-70060000D03*
%TO.P,U3,5,GND*%
%TO.N,GND*%
X121130000Y-70060000D03*
%TD*%
D10*
%TO.P,U2,1,VCC*%
%TO.N,5V*%
X121140000Y-127340000D03*
D11*
%TO.P,U2,2,TRIG*%
%TO.N,TRIG2*%
X123680000Y-127340000D03*
%TO.P,U2,3,ECHO*%
%TO.N,Net-(D2-A)*%
X126220000Y-127340000D03*
%TO.P,U2,4,OUT*%
%TO.N,unconnected-(U2-OUT-Pad4)*%
X128760000Y-127340000D03*
%TO.P,U2,5,GND*%
%TO.N,GND*%
X131300000Y-127340000D03*
%TD*%
D12*
%TO.P,R2,1*%
%TO.N,Net-(J2-Pin_6)*%
X117490000Y-84070000D03*
%TO.P,R2,2*%
%TO.N,GND*%
X115490000Y-84070000D03*
%TD*%
D10*
%TO.P,U5,1,VCC*%
%TO.N,5V*%
X146230000Y-93630000D03*
D11*
%TO.P,U5,2,TRIG*%
%TO.N,TRIG4*%
X146230000Y-96170000D03*
%TO.P,U5,3,ECHO*%
%TO.N,Net-(D4-A)*%
X146230000Y-98710000D03*
%TO.P,U5,4,OUT*%
%TO.N,unconnected-(U5-OUT-Pad4)*%
X146230000Y-101250000D03*
%TO.P,U5,5,GND*%
%TO.N,GND*%
X146230000Y-103790000D03*
%TD*%
D10*
%TO.P,U1,1,VCC*%
%TO.N,5V*%
X106220000Y-103785000D03*
D11*
%TO.P,U1,2,TRIG*%
%TO.N,TRIG1*%
X106220000Y-101245000D03*
%TO.P,U1,3,ECHO*%
%TO.N,Net-(D1-A)*%
X106220000Y-98705000D03*
%TO.P,U1,4,OUT*%
%TO.N,unconnected-(U1-OUT-Pad4)*%
X106220000Y-96165000D03*
%TO.P,U1,5,GND*%
%TO.N,GND*%
X106220000Y-93625000D03*
%TD*%
D12*
%TO.P,R1,1*%
%TO.N,ECHO*%
X117470000Y-86470000D03*
%TO.P,R1,2*%
%TO.N,Net-(J2-Pin_6)*%
X115470000Y-86470000D03*
%TD*%
D13*
%TO.P,J2,1,Pin_1*%
%TO.N,5V*%
X115590000Y-103740000D03*
D14*
%TO.P,J2,2,Pin_2*%
%TO.N,TRIG1*%
X118130000Y-103740000D03*
%TO.P,J2,3,Pin_3*%
%TO.N,TRIG2*%
X115590000Y-101200000D03*
%TO.P,J2,4,Pin_4*%
%TO.N,TRIG3*%
X118130000Y-101200000D03*
%TO.P,J2,5,Pin_5*%
%TO.N,TRIG4*%
X115590000Y-98660000D03*
%TO.P,J2,6,Pin_6*%
%TO.N,Net-(J2-Pin_6)*%
X118130000Y-98660000D03*
%TO.P,J2,7,Pin_7*%
%TO.N,GND*%
X115590000Y-96120000D03*
%TO.P,J2,8*%
%TO.N,N/C*%
X118130000Y-96120000D03*
%TD*%
D15*
%TO.N,ECHO*%
X101422500Y-96202500D03*
%TD*%
D16*
%TO.N,5V*%
X146230000Y-93630000D02*
X146230000Y-85000000D01*
X115590000Y-103740000D02*
X106265000Y-103740000D01*
X147530000Y-112948478D02*
X131838478Y-128640000D01*
X147530000Y-94930000D02*
X147530000Y-112948478D01*
X146230000Y-93630000D02*
X147530000Y-94930000D01*
X131838478Y-128640000D02*
X122440000Y-128640000D01*
X106265000Y-103740000D02*
X106220000Y-103785000D01*
X115590000Y-103740000D02*
X115590000Y-121790000D01*
X146230000Y-85000000D02*
X131290000Y-70060000D01*
X122440000Y-128640000D02*
X121140000Y-127340000D01*
X115590000Y-121790000D02*
X121140000Y-127340000D01*
D17*
%TO.N,GND*%
X115490000Y-84070000D02*
X116515000Y-85095000D01*
X116515000Y-85095000D02*
X118085100Y-85095000D01*
X118395000Y-85774900D02*
X118395000Y-87165100D01*
X118395000Y-87165100D02*
X111935100Y-93625000D01*
X116710000Y-85290000D02*
X115490000Y-84070000D01*
X131300000Y-127340000D02*
X146230000Y-112410000D01*
X124868969Y-92248869D02*
X117910100Y-85290000D01*
X117910100Y-85290000D02*
X116710000Y-85290000D01*
X111935100Y-93625000D02*
X106220000Y-93625000D01*
X118085100Y-85095000D02*
X121130000Y-82050100D01*
X116865000Y-85445000D02*
X118065100Y-85445000D01*
X146230000Y-112410000D02*
X146230000Y-103790000D01*
X121130000Y-82050100D02*
X121130000Y-70060000D01*
X131300000Y-127340000D02*
X124868969Y-120908969D01*
X115490000Y-84070000D02*
X116865000Y-85445000D01*
X118065100Y-85445000D02*
X118395000Y-85774900D01*
X124868969Y-120908969D02*
X124868969Y-92248869D01*
D16*
%TO.N,TRIG2*%
X115851522Y-94020000D02*
X117868478Y-94020000D01*
X115590000Y-101200000D02*
X113360000Y-98970000D01*
X113360000Y-96511522D02*
X115851522Y-94020000D01*
X113360000Y-98970000D02*
X113360000Y-96511522D01*
X117868478Y-94020000D02*
X123680000Y-99831522D01*
X123680000Y-99831522D02*
X123680000Y-127340000D01*
%TO.N,ECHO*%
X101422500Y-96157500D02*
X101470000Y-96110000D01*
X105255000Y-92325000D02*
X101470000Y-96110000D01*
X101422500Y-96202500D02*
X101422500Y-96157500D01*
X117470000Y-86470000D02*
X111615000Y-92325000D01*
X111615000Y-92325000D02*
X105255000Y-92325000D01*
X101470000Y-96110000D02*
X101470000Y-96155000D01*
X101470000Y-96155000D02*
X101422500Y-96202500D01*
D17*
%TO.N,Net-(J2-Pin_6)*%
X116765000Y-100025000D02*
X116765000Y-101686701D01*
X114415000Y-101305000D02*
X108020000Y-94910000D01*
X99580000Y-93810000D02*
X106920000Y-86470000D01*
X114885000Y-83045000D02*
X116465000Y-83045000D01*
X100470000Y-97780000D02*
X99580000Y-96890000D01*
X115103299Y-102375000D02*
X114415000Y-101686701D01*
X116765000Y-101686701D02*
X116076701Y-102375000D01*
X114565000Y-85565000D02*
X114565000Y-83365000D01*
X114415000Y-101686701D02*
X114415000Y-101305000D01*
X102753299Y-97780000D02*
X100470000Y-97780000D01*
X115470000Y-86470000D02*
X114565000Y-85565000D01*
X116076701Y-102375000D02*
X115103299Y-102375000D01*
X116465000Y-83045000D02*
X117490000Y-84070000D01*
X105623299Y-94910000D02*
X102753299Y-97780000D01*
X106920000Y-86470000D02*
X115470000Y-86470000D01*
X114565000Y-83365000D02*
X114885000Y-83045000D01*
X118130000Y-98660000D02*
X116765000Y-100025000D01*
X108020000Y-94910000D02*
X105623299Y-94910000D01*
X99580000Y-96890000D02*
X99580000Y-93810000D01*
%TD*%
%TA.AperFunction,Conductor*%
%TO.N,GND*%
G36*
X115124075Y-96312993D02*
G01*
X115189901Y-96427007D01*
X115282993Y-96520099D01*
X115397007Y-96585925D01*
X115460590Y-96602962D01*
X114828625Y-97234925D01*
X114904594Y-97288119D01*
X114948219Y-97342696D01*
X114955413Y-97412194D01*
X114923890Y-97474549D01*
X114904595Y-97491269D01*
X114718594Y-97621508D01*
X114551505Y-97788597D01*
X114415965Y-97982169D01*
X114415964Y-97982171D01*
X114346882Y-98130319D01*
X114300710Y-98182758D01*
X114233516Y-98201910D01*
X114166635Y-98181694D01*
X114121300Y-98128529D01*
X114110500Y-98077914D01*
X114110500Y-96873750D01*
X114130185Y-96806711D01*
X114146814Y-96786074D01*
X114201789Y-96731099D01*
X114263110Y-96697616D01*
X114332802Y-96702600D01*
X114388735Y-96744472D01*
X114401849Y-96766376D01*
X114416396Y-96797572D01*
X114416400Y-96797579D01*
X114475073Y-96881373D01*
X115107037Y-96249408D01*
X115124075Y-96312993D01*
G37*
%TD.AperFunction*%
%TA.AperFunction,Conductor*%
G36*
X116704925Y-96881373D02*
G01*
X116758119Y-96805405D01*
X116812696Y-96761781D01*
X116882195Y-96754588D01*
X116944549Y-96786110D01*
X116961269Y-96805405D01*
X116973161Y-96822389D01*
X117091505Y-96991401D01*
X117091506Y-96991402D01*
X117258597Y-97158493D01*
X117258603Y-97158498D01*
X117444158Y-97288425D01*
X117487783Y-97343002D01*
X117494977Y-97412500D01*
X117463454Y-97474855D01*
X117444158Y-97491575D01*
X117258597Y-97621505D01*
X117091505Y-97788597D01*
X116961575Y-97974158D01*
X116906998Y-98017783D01*
X116837500Y-98024977D01*
X116775145Y-97993454D01*
X116758425Y-97974158D01*
X116628494Y-97788597D01*
X116461402Y-97621506D01*
X116461401Y-97621505D01*
X116275405Y-97491269D01*
X116231781Y-97436692D01*
X116224588Y-97367193D01*
X116256110Y-97304839D01*
X116275405Y-97288119D01*
X116351373Y-97234925D01*
X115719409Y-96602962D01*
X115782993Y-96585925D01*
X115897007Y-96520099D01*
X115990099Y-96427007D01*
X116055925Y-96312993D01*
X116072962Y-96249410D01*
X116704925Y-96881373D01*
G37*
%TD.AperFunction*%
%TA.AperFunction,Conductor*%
G36*
X117376522Y-94790185D02*
G01*
X117422277Y-94842989D01*
X117432221Y-94912147D01*
X117403196Y-94975703D01*
X117380606Y-94996075D01*
X117258596Y-95081506D01*
X117091505Y-95248597D01*
X116961269Y-95434595D01*
X116906692Y-95478220D01*
X116837194Y-95485414D01*
X116774839Y-95453891D01*
X116758119Y-95434595D01*
X116704925Y-95358626D01*
X116704925Y-95358625D01*
X116072962Y-95990589D01*
X116055925Y-95927007D01*
X115990099Y-95812993D01*
X115897007Y-95719901D01*
X115782993Y-95654075D01*
X115719408Y-95637037D01*
X116351373Y-95005073D01*
X116351373Y-95005072D01*
X116338523Y-94996075D01*
X116294898Y-94941499D01*
X116287704Y-94872000D01*
X116319226Y-94809646D01*
X116379456Y-94774231D01*
X116409646Y-94770500D01*
X117309483Y-94770500D01*
X117376522Y-94790185D01*
G37*
%TD.AperFunction*%
%TA.AperFunction,Conductor*%
G36*
X116532979Y-84990194D02*
G01*
X116577327Y-85018695D01*
X116671344Y-85112712D01*
X116745242Y-85158292D01*
X116791967Y-85210239D01*
X116803190Y-85279202D01*
X116775347Y-85343284D01*
X116745244Y-85369369D01*
X116651344Y-85427287D01*
X116651343Y-85427288D01*
X116557681Y-85520951D01*
X116496358Y-85554436D01*
X116426666Y-85549452D01*
X116382319Y-85520951D01*
X116288657Y-85427289D01*
X116288656Y-85427288D01*
X116214279Y-85381412D01*
X116167556Y-85329465D01*
X116156333Y-85260502D01*
X116184177Y-85196420D01*
X116214281Y-85170335D01*
X116308341Y-85112318D01*
X116401964Y-85018695D01*
X116463287Y-84985210D01*
X116532979Y-84990194D01*
G37*
%TD.AperFunction*%
%TA.AperFunction,Conductor*%
G36*
X155720858Y-66600005D02*
G01*
X155779039Y-66600816D01*
X155882007Y-66602254D01*
X155894140Y-66603019D01*
X156215276Y-66639148D01*
X156228965Y-66641470D01*
X156543192Y-66713081D01*
X156556530Y-66716918D01*
X156860797Y-66823216D01*
X156873614Y-66828517D01*
X157139222Y-66956211D01*
X157164091Y-66968167D01*
X157176248Y-66974875D01*
X157449271Y-67146113D01*
X157460603Y-67154138D01*
X157712771Y-67354828D01*
X157723134Y-67364068D01*
X157951295Y-67591701D01*
X157960560Y-67602044D01*
X158161833Y-67853751D01*
X158169884Y-67865063D01*
X158341758Y-68137701D01*
X158348493Y-68149843D01*
X158488806Y-68439978D01*
X158494142Y-68452797D01*
X158589923Y-68724938D01*
X158601140Y-68756807D01*
X158605009Y-68770142D01*
X158677346Y-69084205D01*
X158679700Y-69097889D01*
X158716569Y-69418926D01*
X158717363Y-69431057D01*
X158719982Y-69592085D01*
X158719998Y-69594102D01*
X158720000Y-73700000D01*
X158720000Y-123700000D01*
X158719998Y-127799141D01*
X158719987Y-127800816D01*
X158717807Y-127962232D01*
X158717038Y-127974441D01*
X158680806Y-128296007D01*
X158678477Y-128309716D01*
X158606654Y-128624392D01*
X158602805Y-128637754D01*
X158496198Y-128942420D01*
X158490876Y-128955267D01*
X158350833Y-129246067D01*
X158344107Y-129258237D01*
X158172382Y-129531536D01*
X158164335Y-129542877D01*
X157963090Y-129795231D01*
X157953824Y-129805599D01*
X157725596Y-130033827D01*
X157715228Y-130043093D01*
X157462874Y-130244338D01*
X157451533Y-130252385D01*
X157178234Y-130424109D01*
X157166064Y-130430835D01*
X156875263Y-130570878D01*
X156862416Y-130576200D01*
X156557748Y-130682808D01*
X156544385Y-130686657D01*
X156229714Y-130758477D01*
X156216005Y-130760806D01*
X155894434Y-130797038D01*
X155882232Y-130797807D01*
X155720808Y-130799995D01*
X155719127Y-130800006D01*
X96720856Y-130799984D01*
X96719183Y-130799973D01*
X96714544Y-130799910D01*
X96557766Y-130797793D01*
X96545557Y-130797024D01*
X96223991Y-130760791D01*
X96210282Y-130758462D01*
X95895600Y-130686638D01*
X95882238Y-130682788D01*
X95577589Y-130576186D01*
X95564742Y-130570865D01*
X95273934Y-130430819D01*
X95261764Y-130424093D01*
X94988466Y-130252368D01*
X94977125Y-130244321D01*
X94724773Y-130043075D01*
X94714405Y-130033809D01*
X94486175Y-129805578D01*
X94476909Y-129795209D01*
X94474377Y-129792034D01*
X94275667Y-129542858D01*
X94267624Y-129531523D01*
X94175409Y-129384763D01*
X94095894Y-129258214D01*
X94089170Y-129246046D01*
X94078048Y-129222950D01*
X93949126Y-128955238D01*
X93943814Y-128942415D01*
X93837200Y-128637727D01*
X93833356Y-128624384D01*
X93761533Y-128309699D01*
X93759205Y-128295992D01*
X93752657Y-128237876D01*
X93722971Y-127974400D01*
X93722205Y-127962232D01*
X93720011Y-127800793D01*
X93720000Y-127799109D01*
X93720000Y-126825734D01*
X112622466Y-126825734D01*
X112661801Y-127074090D01*
X112739508Y-127313244D01*
X112853668Y-127537293D01*
X113001463Y-127740717D01*
X113001467Y-127740722D01*
X113179277Y-127918532D01*
X113179282Y-127918536D01*
X113356720Y-128047451D01*
X113382710Y-128066334D01*
X113525474Y-128139076D01*
X113606755Y-128180491D01*
X113606757Y-128180491D01*
X113606760Y-128180493D01*
X113734949Y-128222144D01*
X113845909Y-128258198D01*
X114094266Y-128297534D01*
X114345729Y-128297534D01*
X114345734Y-128297534D01*
X114594090Y-128258198D01*
X114656634Y-128237876D01*
X114833240Y-128180493D01*
X115057290Y-128066334D01*
X115260724Y-127918531D01*
X115438531Y-127740724D01*
X115586334Y-127537290D01*
X115700493Y-127313240D01*
X115778198Y-127074090D01*
X115817534Y-126825729D01*
X115820000Y-126700000D01*
X115817534Y-126574271D01*
X115778198Y-126325910D01*
X115700493Y-126086760D01*
X115700491Y-126086757D01*
X115700491Y-126086755D01*
X115648308Y-125984341D01*
X115586334Y-125862710D01*
X115567451Y-125836720D01*
X115438536Y-125659282D01*
X115438532Y-125659277D01*
X115260722Y-125481467D01*
X115260717Y-125481463D01*
X115057293Y-125333668D01*
X115057292Y-125333667D01*
X115057290Y-125333666D01*
X114987322Y-125298015D01*
X114833244Y-125219508D01*
X114594090Y-125141801D01*
X114345734Y-125102466D01*
X114345729Y-125102466D01*
X114094271Y-125102466D01*
X114094266Y-125102466D01*
X113845909Y-125141801D01*
X113606755Y-125219508D01*
X113382706Y-125333668D01*
X113179282Y-125481463D01*
X113179277Y-125481467D01*
X113001467Y-125659277D01*
X113001463Y-125659282D01*
X112853668Y-125862706D01*
X112739508Y-126086755D01*
X112661801Y-126325909D01*
X112622466Y-126574265D01*
X112622466Y-126825734D01*
X93720000Y-126825734D01*
X93720000Y-123325734D01*
X95622466Y-123325734D01*
X95661801Y-123574090D01*
X95739508Y-123813244D01*
X95853668Y-124037293D01*
X96001463Y-124240717D01*
X96001467Y-124240722D01*
X96179277Y-124418532D01*
X96179282Y-124418536D01*
X96356720Y-124547451D01*
X96382710Y-124566334D01*
X96525474Y-124639076D01*
X96606755Y-124680491D01*
X96606757Y-124680491D01*
X96606760Y-124680493D01*
X96734949Y-124722144D01*
X96845909Y-124758198D01*
X97094266Y-124797534D01*
X97345729Y-124797534D01*
X97345734Y-124797534D01*
X97594090Y-124758198D01*
X97833240Y-124680493D01*
X98057290Y-124566334D01*
X98260724Y-124418531D01*
X98438531Y-124240724D01*
X98586334Y-124037290D01*
X98700493Y-123813240D01*
X98778198Y-123574090D01*
X98817534Y-123325729D01*
X98820000Y-123200000D01*
X98817534Y-123074271D01*
X98778198Y-122825910D01*
X98700493Y-122586760D01*
X98700491Y-122586757D01*
X98700491Y-122586755D01*
X98659076Y-122505474D01*
X98586334Y-122362710D01*
X98464288Y-122194727D01*
X98438536Y-122159282D01*
X98438532Y-122159277D01*
X98260722Y-121981467D01*
X98260717Y-121981463D01*
X98057293Y-121833668D01*
X98057292Y-121833667D01*
X98057290Y-121833666D01*
X97987322Y-121798015D01*
X97833244Y-121719508D01*
X97594090Y-121641801D01*
X97345734Y-121602466D01*
X97345729Y-121602466D01*
X97094271Y-121602466D01*
X97094266Y-121602466D01*
X96845909Y-121641801D01*
X96606755Y-121719508D01*
X96382706Y-121833668D01*
X96179282Y-121981463D01*
X96179277Y-121981467D01*
X96001467Y-122159277D01*
X96001463Y-122159282D01*
X95853668Y-122362706D01*
X95739508Y-122586755D01*
X95661801Y-122825909D01*
X95622466Y-123074265D01*
X95622466Y-123325734D01*
X93720000Y-123325734D01*
X93720000Y-96951611D01*
X98954500Y-96951611D01*
X98978535Y-97072444D01*
X98978540Y-97072461D01*
X99025685Y-97186281D01*
X99025687Y-97186284D01*
X99052016Y-97225687D01*
X99052017Y-97225689D01*
X99094141Y-97288732D01*
X99094144Y-97288736D01*
X99185586Y-97380178D01*
X99185608Y-97380198D01*
X99981016Y-98175606D01*
X99981045Y-98175637D01*
X100071264Y-98265856D01*
X100071267Y-98265858D01*
X100122490Y-98300084D01*
X100173714Y-98334312D01*
X100244698Y-98363714D01*
X100287548Y-98381463D01*
X100315627Y-98387048D01*
X100408391Y-98405499D01*
X100408392Y-98405500D01*
X100408393Y-98405500D01*
X102814907Y-98405500D01*
X102814907Y-98405499D01*
X102907672Y-98387048D01*
X102907673Y-98387048D01*
X102917116Y-98385169D01*
X102935751Y-98381463D01*
X102978601Y-98363714D01*
X103049585Y-98334312D01*
X103100808Y-98300084D01*
X103152032Y-98265858D01*
X103239157Y-98178733D01*
X103239158Y-98178731D01*
X103246224Y-98171665D01*
X103246227Y-98171661D01*
X104770989Y-96646898D01*
X104832310Y-96613415D01*
X104902002Y-96618399D01*
X104957935Y-96660271D01*
X104971050Y-96682176D01*
X104995550Y-96734716D01*
X105036433Y-96822389D01*
X105045965Y-96842829D01*
X105045967Y-96842834D01*
X105122134Y-96951611D01*
X105165016Y-97012853D01*
X105181501Y-97036395D01*
X105181506Y-97036402D01*
X105348597Y-97203493D01*
X105348603Y-97203498D01*
X105534158Y-97333425D01*
X105577783Y-97388002D01*
X105584977Y-97457500D01*
X105553454Y-97519855D01*
X105534158Y-97536575D01*
X105348597Y-97666505D01*
X105181505Y-97833597D01*
X105045965Y-98027169D01*
X105045964Y-98027171D01*
X104946098Y-98241335D01*
X104946094Y-98241344D01*
X104884938Y-98469586D01*
X104884936Y-98469596D01*
X104864341Y-98704999D01*
X104864341Y-98705000D01*
X104884936Y-98940403D01*
X104884938Y-98940413D01*
X104946094Y-99168655D01*
X104946096Y-99168659D01*
X104946097Y-99168663D01*
X105032105Y-99353107D01*
X105045965Y-99382830D01*
X105045967Y-99382834D01*
X105181501Y-99576395D01*
X105181506Y-99576402D01*
X105348597Y-99743493D01*
X105348603Y-99743498D01*
X105534158Y-99873425D01*
X105577783Y-99928002D01*
X105584977Y-99997500D01*
X105553454Y-100059855D01*
X105534158Y-100076575D01*
X105348597Y-100206505D01*
X105181505Y-100373597D01*
X105045965Y-100567169D01*
X105045964Y-100567171D01*
X104946098Y-100781335D01*
X104946094Y-100781344D01*
X104884938Y-101009586D01*
X104884936Y-101009596D01*
X104864341Y-101244999D01*
X104864341Y-101245000D01*
X104884936Y-101480403D01*
X104884938Y-101480413D01*
X104946094Y-101708655D01*
X104946096Y-101708659D01*
X104946097Y-101708663D01*
X105024981Y-101877830D01*
X105045965Y-101922830D01*
X105045967Y-101922834D01*
X105119002Y-102027138D01*
X105181501Y-102116396D01*
X105181506Y-102116402D01*
X105303430Y-102238326D01*
X105336915Y-102299649D01*
X105331931Y-102369341D01*
X105290059Y-102425274D01*
X105259083Y-102442189D01*
X105127669Y-102491203D01*
X105127664Y-102491206D01*
X105012455Y-102577452D01*
X105012452Y-102577455D01*
X104926206Y-102692664D01*
X104926202Y-102692671D01*
X104875908Y-102827517D01*
X104869501Y-102887116D01*
X104869500Y-102887135D01*
X104869500Y-104682870D01*
X104869501Y-104682876D01*
X104875908Y-104742483D01*
X104926202Y-104877328D01*
X104926206Y-104877335D01*
X105012452Y-104992544D01*
X105012455Y-104992547D01*
X105127664Y-105078793D01*
X105127671Y-105078797D01*
X105262517Y-105129091D01*
X105262516Y-105129091D01*
X105269444Y-105129835D01*
X105322127Y-105135500D01*
X107117872Y-105135499D01*
X107177483Y-105129091D01*
X107312331Y-105078796D01*
X107427546Y-104992546D01*
X107513796Y-104877331D01*
X107564091Y-104742483D01*
X107570500Y-104682873D01*
X107570500Y-104614500D01*
X107590185Y-104547461D01*
X107642989Y-104501706D01*
X107694500Y-104490500D01*
X114159699Y-104490500D01*
X114226738Y-104510185D01*
X114272493Y-104562989D01*
X114277403Y-104575492D01*
X114305186Y-104659334D01*
X114397288Y-104808656D01*
X114521344Y-104932712D01*
X114670666Y-105024814D01*
X114754505Y-105052595D01*
X114811948Y-105092366D01*
X114838772Y-105156882D01*
X114839500Y-105170300D01*
X114839500Y-121863918D01*
X114839500Y-121863920D01*
X114839499Y-121863920D01*
X114868340Y-122008907D01*
X114868343Y-122008917D01*
X114924914Y-122145492D01*
X114957812Y-122194727D01*
X114957813Y-122194730D01*
X115007046Y-122268414D01*
X115007052Y-122268421D01*
X119753181Y-127014548D01*
X119786666Y-127075871D01*
X119789500Y-127102229D01*
X119789500Y-128237870D01*
X119789501Y-128237876D01*
X119795908Y-128297483D01*
X119846202Y-128432328D01*
X119846206Y-128432335D01*
X119932452Y-128547544D01*
X119932455Y-128547547D01*
X120047664Y-128633793D01*
X120047671Y-128633797D01*
X120182517Y-128684091D01*
X120182516Y-128684091D01*
X120189444Y-128684835D01*
X120242127Y-128690500D01*
X121377769Y-128690499D01*
X121444808Y-128710184D01*
X121465450Y-128726818D01*
X121857049Y-129118416D01*
X121961584Y-129222951D01*
X121961587Y-129222953D01*
X121961588Y-129222954D01*
X122084503Y-129305083D01*
X122084506Y-129305085D01*
X122141079Y-129328518D01*
X122141080Y-129328518D01*
X122221088Y-129361659D01*
X122337241Y-129384763D01*
X122356468Y-129388587D01*
X122366081Y-129390500D01*
X122366082Y-129390500D01*
X131912398Y-129390500D01*
X132009940Y-129371096D01*
X132057391Y-129361658D01*
X132193973Y-129305084D01*
X132243207Y-129272186D01*
X132264119Y-129258214D01*
X132282330Y-129246046D01*
X132316894Y-129222952D01*
X134714112Y-126825734D01*
X136622466Y-126825734D01*
X136661801Y-127074090D01*
X136739508Y-127313244D01*
X136853668Y-127537293D01*
X137001463Y-127740717D01*
X137001467Y-127740722D01*
X137179277Y-127918532D01*
X137179282Y-127918536D01*
X137356720Y-128047451D01*
X137382710Y-128066334D01*
X137525474Y-128139076D01*
X137606755Y-128180491D01*
X137606757Y-128180491D01*
X137606760Y-128180493D01*
X137734949Y-128222144D01*
X137845909Y-128258198D01*
X138094266Y-128297534D01*
X138345729Y-128297534D01*
X138345734Y-128297534D01*
X138594090Y-128258198D01*
X138656634Y-128237876D01*
X138833240Y-128180493D01*
X139057290Y-128066334D01*
X139260724Y-127918531D01*
X139438531Y-127740724D01*
X139586334Y-127537290D01*
X139700493Y-127313240D01*
X139778198Y-127074090D01*
X139817534Y-126825729D01*
X139820000Y-126700000D01*
X139817534Y-126574271D01*
X139778198Y-126325910D01*
X139700493Y-126086760D01*
X139700491Y-126086757D01*
X139700491Y-126086755D01*
X139648308Y-125984341D01*
X139586334Y-125862710D01*
X139567451Y-125836720D01*
X139438536Y-125659282D01*
X139438532Y-125659277D01*
X139260722Y-125481467D01*
X139260717Y-125481463D01*
X139057293Y-125333668D01*
X139057292Y-125333667D01*
X139057290Y-125333666D01*
X138987322Y-125298015D01*
X138833244Y-125219508D01*
X138594090Y-125141801D01*
X138345734Y-125102466D01*
X138345729Y-125102466D01*
X138094271Y-125102466D01*
X138094266Y-125102466D01*
X137845909Y-125141801D01*
X137606755Y-125219508D01*
X137382706Y-125333668D01*
X137179282Y-125481463D01*
X137179277Y-125481467D01*
X137001467Y-125659277D01*
X137001463Y-125659282D01*
X136853668Y-125862706D01*
X136739508Y-126086755D01*
X136661801Y-126325909D01*
X136622466Y-126574265D01*
X136622466Y-126825734D01*
X134714112Y-126825734D01*
X138214112Y-123325734D01*
X153622466Y-123325734D01*
X153661801Y-123574090D01*
X153739508Y-123813244D01*
X153853668Y-124037293D01*
X154001463Y-124240717D01*
X154001467Y-124240722D01*
X154179277Y-124418532D01*
X154179282Y-124418536D01*
X154356720Y-124547451D01*
X154382710Y-124566334D01*
X154525474Y-124639076D01*
X154606755Y-124680491D01*
X154606757Y-124680491D01*
X154606760Y-124680493D01*
X154734949Y-124722144D01*
X154845909Y-124758198D01*
X155094266Y-124797534D01*
X155345729Y-124797534D01*
X155345734Y-124797534D01*
X155594090Y-124758198D01*
X155833240Y-124680493D01*
X156057290Y-124566334D01*
X156260724Y-124418531D01*
X156438531Y-124240724D01*
X156586334Y-124037290D01*
X156700493Y-123813240D01*
X156778198Y-123574090D01*
X156817534Y-123325729D01*
X156820000Y-123200000D01*
X156817534Y-123074271D01*
X156778198Y-122825910D01*
X156700493Y-122586760D01*
X156700491Y-122586757D01*
X156700491Y-122586755D01*
X156659076Y-122505474D01*
X156586334Y-122362710D01*
X156464288Y-122194727D01*
X156438536Y-122159282D01*
X156438532Y-122159277D01*
X156260722Y-121981467D01*
X156260717Y-121981463D01*
X156057293Y-121833668D01*
X156057292Y-121833667D01*
X156057290Y-121833666D01*
X155987322Y-121798015D01*
X155833244Y-121719508D01*
X155594090Y-121641801D01*
X155345734Y-121602466D01*
X155345729Y-121602466D01*
X155094271Y-121602466D01*
X155094266Y-121602466D01*
X154845909Y-121641801D01*
X154606755Y-121719508D01*
X154382706Y-121833668D01*
X154179282Y-121981463D01*
X154179277Y-121981467D01*
X154001467Y-122159277D01*
X154001463Y-122159282D01*
X153853668Y-122362706D01*
X153739508Y-122586755D01*
X153661801Y-122825909D01*
X153622466Y-123074265D01*
X153622466Y-123325734D01*
X138214112Y-123325734D01*
X148112951Y-113426894D01*
X148195084Y-113303973D01*
X148251658Y-113167391D01*
X148280500Y-113022396D01*
X148280500Y-112874561D01*
X148280500Y-94856082D01*
X148276812Y-94837544D01*
X148272197Y-94814342D01*
X148272197Y-94814341D01*
X148251659Y-94711088D01*
X148211325Y-94613714D01*
X148195084Y-94574505D01*
X148195083Y-94574504D01*
X148195080Y-94574498D01*
X148112952Y-94451585D01*
X148085507Y-94424140D01*
X148008416Y-94347049D01*
X147616818Y-93955451D01*
X147583333Y-93894128D01*
X147580499Y-93867770D01*
X147580499Y-92732129D01*
X147580498Y-92732123D01*
X147580497Y-92732116D01*
X147574091Y-92672517D01*
X147523796Y-92537669D01*
X147523795Y-92537668D01*
X147523793Y-92537664D01*
X147437547Y-92422455D01*
X147437544Y-92422452D01*
X147322335Y-92336206D01*
X147322328Y-92336202D01*
X147187482Y-92285908D01*
X147187483Y-92285908D01*
X147127883Y-92279501D01*
X147127881Y-92279500D01*
X147127873Y-92279500D01*
X147127865Y-92279500D01*
X147104500Y-92279500D01*
X147037461Y-92259815D01*
X146991706Y-92207011D01*
X146980500Y-92155500D01*
X146980500Y-84926081D01*
X146974763Y-84897242D01*
X146974763Y-84897240D01*
X146951660Y-84781095D01*
X146951659Y-84781088D01*
X146897408Y-84650117D01*
X146895764Y-84645522D01*
X146812954Y-84521588D01*
X146812953Y-84521587D01*
X146812951Y-84521584D01*
X146708416Y-84417049D01*
X136617102Y-74325734D01*
X153622466Y-74325734D01*
X153661801Y-74574090D01*
X153739508Y-74813244D01*
X153853668Y-75037293D01*
X154001463Y-75240717D01*
X154001467Y-75240722D01*
X154179277Y-75418532D01*
X154179282Y-75418536D01*
X154356720Y-75547451D01*
X154382710Y-75566334D01*
X154525474Y-75639076D01*
X154606755Y-75680491D01*
X154606757Y-75680491D01*
X154606760Y-75680493D01*
X154734949Y-75722144D01*
X154845909Y-75758198D01*
X155094266Y-75797534D01*
X155345729Y-75797534D01*
X155345734Y-75797534D01*
X155594090Y-75758198D01*
X155833240Y-75680493D01*
X156057290Y-75566334D01*
X156260724Y-75418531D01*
X156438531Y-75240724D01*
X156586334Y-75037290D01*
X156700493Y-74813240D01*
X156778198Y-74574090D01*
X156817534Y-74325729D01*
X156820000Y-74200000D01*
X156817534Y-74074271D01*
X156778198Y-73825910D01*
X156700493Y-73586760D01*
X156700491Y-73586757D01*
X156700491Y-73586755D01*
X156659076Y-73505474D01*
X156586334Y-73362710D01*
X156567451Y-73336720D01*
X156438536Y-73159282D01*
X156438532Y-73159277D01*
X156260722Y-72981467D01*
X156260717Y-72981463D01*
X156057293Y-72833668D01*
X156057292Y-72833667D01*
X156057290Y-72833666D01*
X155987322Y-72798015D01*
X155833244Y-72719508D01*
X155594090Y-72641801D01*
X155345734Y-72602466D01*
X155345729Y-72602466D01*
X155094271Y-72602466D01*
X155094266Y-72602466D01*
X154845909Y-72641801D01*
X154606755Y-72719508D01*
X154382706Y-72833668D01*
X154179282Y-72981463D01*
X154179277Y-72981467D01*
X154001467Y-73159277D01*
X154001463Y-73159282D01*
X153853668Y-73362706D01*
X153739508Y-73586755D01*
X153661801Y-73825909D01*
X153622466Y-74074265D01*
X153622466Y-74325734D01*
X136617102Y-74325734D01*
X133117102Y-70825734D01*
X136622466Y-70825734D01*
X136661801Y-71074090D01*
X136739508Y-71313244D01*
X136853668Y-71537293D01*
X137001463Y-71740717D01*
X137001467Y-71740722D01*
X137179277Y-71918532D01*
X137179282Y-71918536D01*
X137356720Y-72047451D01*
X137382710Y-72066334D01*
X137525474Y-72139076D01*
X137606755Y-72180491D01*
X137606757Y-72180491D01*
X137606760Y-72180493D01*
X137734949Y-72222144D01*
X137845909Y-72258198D01*
X138094266Y-72297534D01*
X138345729Y-72297534D01*
X138345734Y-72297534D01*
X138594090Y-72258198D01*
X138833240Y-72180493D01*
X139057290Y-72066334D01*
X139260724Y-71918531D01*
X139438531Y-71740724D01*
X139586334Y-71537290D01*
X139700493Y-71313240D01*
X139778198Y-71074090D01*
X139817534Y-70825729D01*
X139820000Y-70700000D01*
X139817534Y-70574271D01*
X139778198Y-70325910D01*
X139700493Y-70086760D01*
X139700491Y-70086757D01*
X139700491Y-70086755D01*
X139659076Y-70005474D01*
X139586334Y-69862710D01*
X139548037Y-69809999D01*
X139438536Y-69659282D01*
X139438532Y-69659277D01*
X139260722Y-69481467D01*
X139260717Y-69481463D01*
X139057293Y-69333668D01*
X139057292Y-69333667D01*
X139057290Y-69333666D01*
X138987322Y-69298015D01*
X138833244Y-69219508D01*
X138594090Y-69141801D01*
X138345734Y-69102466D01*
X138345729Y-69102466D01*
X138094271Y-69102466D01*
X138094266Y-69102466D01*
X137845909Y-69141801D01*
X137606755Y-69219508D01*
X137382706Y-69333668D01*
X137179282Y-69481463D01*
X137179277Y-69481467D01*
X137001467Y-69659277D01*
X137001463Y-69659282D01*
X136853668Y-69862706D01*
X136739508Y-70086755D01*
X136661801Y-70325909D01*
X136622466Y-70574265D01*
X136622466Y-70825734D01*
X133117102Y-70825734D01*
X132676818Y-70385450D01*
X132643333Y-70324127D01*
X132640499Y-70297769D01*
X132640499Y-69162129D01*
X132640498Y-69162123D01*
X132634091Y-69102516D01*
X132583797Y-68967671D01*
X132583793Y-68967664D01*
X132497547Y-68852455D01*
X132497544Y-68852452D01*
X132382335Y-68766206D01*
X132382328Y-68766202D01*
X132247482Y-68715908D01*
X132247483Y-68715908D01*
X132187883Y-68709501D01*
X132187881Y-68709500D01*
X132187873Y-68709500D01*
X132187864Y-68709500D01*
X130392129Y-68709500D01*
X130392123Y-68709501D01*
X130332516Y-68715908D01*
X130197671Y-68766202D01*
X130197664Y-68766206D01*
X130082455Y-68852452D01*
X130082452Y-68852455D01*
X129996206Y-68967664D01*
X129996203Y-68967669D01*
X129947189Y-69099083D01*
X129905317Y-69155016D01*
X129839853Y-69179433D01*
X129771580Y-69164581D01*
X129743326Y-69143430D01*
X129621402Y-69021506D01*
X129621395Y-69021501D01*
X129427834Y-68885967D01*
X129427830Y-68885965D01*
X129427828Y-68885964D01*
X129213663Y-68786097D01*
X129213659Y-68786096D01*
X129213655Y-68786094D01*
X128985413Y-68724938D01*
X128985403Y-68724936D01*
X128750001Y-68704341D01*
X128749999Y-68704341D01*
X128514596Y-68724936D01*
X128514586Y-68724938D01*
X128286344Y-68786094D01*
X128286335Y-68786098D01*
X128072171Y-68885964D01*
X128072169Y-68885965D01*
X127878597Y-69021505D01*
X127711505Y-69188597D01*
X127581575Y-69374158D01*
X127526998Y-69417783D01*
X127457500Y-69424977D01*
X127395145Y-69393454D01*
X127378425Y-69374158D01*
X127248494Y-69188597D01*
X127081402Y-69021506D01*
X127081395Y-69021501D01*
X126887834Y-68885967D01*
X126887830Y-68885965D01*
X126887828Y-68885964D01*
X126673663Y-68786097D01*
X126673659Y-68786096D01*
X126673655Y-68786094D01*
X126445413Y-68724938D01*
X126445403Y-68724936D01*
X126210001Y-68704341D01*
X126209999Y-68704341D01*
X125974596Y-68724936D01*
X125974586Y-68724938D01*
X125746344Y-68786094D01*
X125746335Y-68786098D01*
X125532171Y-68885964D01*
X125532169Y-68885965D01*
X125338597Y-69021505D01*
X125171505Y-69188597D01*
X125041575Y-69374158D01*
X124986998Y-69417783D01*
X124917500Y-69424977D01*
X124855145Y-69393454D01*
X124838425Y-69374158D01*
X124708494Y-69188597D01*
X124541402Y-69021506D01*
X124541395Y-69021501D01*
X124347834Y-68885967D01*
X124347830Y-68885965D01*
X124347828Y-68885964D01*
X124133663Y-68786097D01*
X124133659Y-68786096D01*
X124133655Y-68786094D01*
X123905413Y-68724938D01*
X123905403Y-68724936D01*
X123670001Y-68704341D01*
X123669999Y-68704341D01*
X123434596Y-68724936D01*
X123434586Y-68724938D01*
X123206344Y-68786094D01*
X123206335Y-68786098D01*
X122992171Y-68885964D01*
X122992169Y-68885965D01*
X122798597Y-69021505D01*
X122631508Y-69188594D01*
X122501269Y-69374595D01*
X122446692Y-69418219D01*
X122377193Y-69425412D01*
X122314839Y-69393890D01*
X122298119Y-69374594D01*
X122168113Y-69188926D01*
X122168108Y-69188920D01*
X122001082Y-69021894D01*
X121807578Y-68886399D01*
X121593492Y-68786570D01*
X121593486Y-68786567D01*
X121380000Y-68729364D01*
X121380000Y-69626988D01*
X121322993Y-69594075D01*
X121195826Y-69560000D01*
X121064174Y-69560000D01*
X120937007Y-69594075D01*
X120880000Y-69626988D01*
X120880000Y-68729364D01*
X120879999Y-68729364D01*
X120666513Y-68786567D01*
X120666507Y-68786570D01*
X120452422Y-68886399D01*
X120452420Y-68886400D01*
X120258926Y-69021886D01*
X120258920Y-69021891D01*
X120091891Y-69188920D01*
X120091886Y-69188926D01*
X119956400Y-69382420D01*
X119956399Y-69382422D01*
X119856570Y-69596507D01*
X119856567Y-69596513D01*
X119799364Y-69809999D01*
X119799364Y-69810000D01*
X120696988Y-69810000D01*
X120664075Y-69867007D01*
X120630000Y-69994174D01*
X120630000Y-70125826D01*
X120664075Y-70252993D01*
X120696988Y-70310000D01*
X119799364Y-70310000D01*
X119856567Y-70523486D01*
X119856570Y-70523492D01*
X119956399Y-70737578D01*
X120091894Y-70931082D01*
X120258917Y-71098105D01*
X120452421Y-71233600D01*
X120666507Y-71333429D01*
X120666516Y-71333433D01*
X120880000Y-71390634D01*
X120880000Y-70493012D01*
X120937007Y-70525925D01*
X121064174Y-70560000D01*
X121195826Y-70560000D01*
X121322993Y-70525925D01*
X121380000Y-70493012D01*
X121380000Y-71390633D01*
X121593483Y-71333433D01*
X121593492Y-71333429D01*
X121807578Y-71233600D01*
X122001082Y-71098105D01*
X122168105Y-70931082D01*
X122298119Y-70745405D01*
X122352696Y-70701781D01*
X122422195Y-70694588D01*
X122484549Y-70726110D01*
X122501269Y-70745405D01*
X122631505Y-70931401D01*
X122798599Y-71098495D01*
X122895384Y-71166265D01*
X122992165Y-71234032D01*
X122992167Y-71234033D01*
X122992170Y-71234035D01*
X123206337Y-71333903D01*
X123434592Y-71395063D01*
X123611034Y-71410500D01*
X123669999Y-71415659D01*
X123670000Y-71415659D01*
X123670001Y-71415659D01*
X123728966Y-71410500D01*
X123905408Y-71395063D01*
X124133663Y-71333903D01*
X124347830Y-71234035D01*
X124541401Y-71098495D01*
X124708495Y-70931401D01*
X124838425Y-70745842D01*
X124893002Y-70702217D01*
X124962500Y-70695023D01*
X125024855Y-70726546D01*
X125041575Y-70745842D01*
X125171281Y-70931082D01*
X125171505Y-70931401D01*
X125338599Y-71098495D01*
X125435384Y-71166265D01*
X125532165Y-71234032D01*
X125532167Y-71234033D01*
X125532170Y-71234035D01*
X125746337Y-71333903D01*
X125974592Y-71395063D01*
X126151034Y-71410500D01*
X126209999Y-71415659D01*
X126210000Y-71415659D01*
X126210001Y-71415659D01*
X126268966Y-71410500D01*
X126445408Y-71395063D01*
X126673663Y-71333903D01*
X126887830Y-71234035D01*
X127081401Y-71098495D01*
X127248495Y-70931401D01*
X127378425Y-70745842D01*
X127433002Y-70702217D01*
X127502500Y-70695023D01*
X127564855Y-70726546D01*
X127581575Y-70745842D01*
X127711281Y-70931082D01*
X127711505Y-70931401D01*
X127878599Y-71098495D01*
X127975384Y-71166265D01*
X128072165Y-71234032D01*
X128072167Y-71234033D01*
X128072170Y-71234035D01*
X128286337Y-71333903D01*
X128514592Y-71395063D01*
X128691034Y-71410500D01*
X128749999Y-71415659D01*
X128750000Y-71415659D01*
X128750001Y-71415659D01*
X128808966Y-71410500D01*
X128985408Y-71395063D01*
X129213663Y-71333903D01*
X129427830Y-71234035D01*
X129621401Y-71098495D01*
X129743329Y-70976566D01*
X129804648Y-70943084D01*
X129874340Y-70948068D01*
X129930274Y-70989939D01*
X129947189Y-71020917D01*
X129996202Y-71152328D01*
X129996206Y-71152335D01*
X130082452Y-71267544D01*
X130082455Y-71267547D01*
X130197664Y-71353793D01*
X130197671Y-71353797D01*
X130332517Y-71404091D01*
X130332516Y-71404091D01*
X130339444Y-71404835D01*
X130392127Y-71410500D01*
X131527769Y-71410499D01*
X131594808Y-71430184D01*
X131615450Y-71446818D01*
X145443181Y-85274548D01*
X145476666Y-85335871D01*
X145479500Y-85362229D01*
X145479500Y-92155500D01*
X145459815Y-92222539D01*
X145407011Y-92268294D01*
X145355505Y-92279500D01*
X145332132Y-92279500D01*
X145332123Y-92279501D01*
X145272516Y-92285908D01*
X145137671Y-92336202D01*
X145137664Y-92336206D01*
X145022455Y-92422452D01*
X145022452Y-92422455D01*
X144936206Y-92537664D01*
X144936202Y-92537671D01*
X144885908Y-92672517D01*
X144879501Y-92732116D01*
X144879501Y-92732123D01*
X144879500Y-92732135D01*
X144879500Y-94527870D01*
X144879501Y-94527876D01*
X144885908Y-94587483D01*
X144936202Y-94722328D01*
X144936206Y-94722335D01*
X145022452Y-94837544D01*
X145022455Y-94837547D01*
X145137664Y-94923793D01*
X145137671Y-94923797D01*
X145269081Y-94972810D01*
X145325015Y-95014681D01*
X145349432Y-95080145D01*
X145334580Y-95148418D01*
X145313430Y-95176673D01*
X145191503Y-95298600D01*
X145055965Y-95492169D01*
X145055964Y-95492171D01*
X144956098Y-95706335D01*
X144956094Y-95706344D01*
X144894938Y-95934586D01*
X144894936Y-95934596D01*
X144874341Y-96169999D01*
X144874341Y-96170000D01*
X144894936Y-96405403D01*
X144894938Y-96405413D01*
X144956094Y-96633655D01*
X144956096Y-96633659D01*
X144956097Y-96633663D01*
X145032529Y-96797572D01*
X145055965Y-96847830D01*
X145055967Y-96847834D01*
X145128633Y-96951611D01*
X145171515Y-97012853D01*
X145191501Y-97041395D01*
X145191506Y-97041402D01*
X145358597Y-97208493D01*
X145358603Y-97208498D01*
X145544158Y-97338425D01*
X145587783Y-97393002D01*
X145594977Y-97462500D01*
X145563454Y-97524855D01*
X145544158Y-97541575D01*
X145358597Y-97671505D01*
X145191505Y-97838597D01*
X145055965Y-98032169D01*
X145055964Y-98032171D01*
X144979409Y-98196344D01*
X144958430Y-98241335D01*
X144956098Y-98246335D01*
X144956094Y-98246344D01*
X144894938Y-98474586D01*
X144894936Y-98474596D01*
X144874341Y-98709999D01*
X144874341Y-98710000D01*
X144894936Y-98945403D01*
X144894938Y-98945413D01*
X144956094Y-99173655D01*
X144956096Y-99173659D01*
X144956097Y-99173663D01*
X145039773Y-99353106D01*
X145055965Y-99387830D01*
X145055967Y-99387834D01*
X145191501Y-99581395D01*
X145191506Y-99581402D01*
X145358597Y-99748493D01*
X145358603Y-99748498D01*
X145544158Y-99878425D01*
X145587783Y-99933002D01*
X145594977Y-100002500D01*
X145563454Y-100064855D01*
X145544158Y-100081575D01*
X145358597Y-100211505D01*
X145191505Y-100378597D01*
X145055965Y-100572169D01*
X145055964Y-100572171D01*
X144979409Y-100736344D01*
X144958430Y-100781335D01*
X144956098Y-100786335D01*
X144956094Y-100786344D01*
X144894938Y-101014586D01*
X144894936Y-101014596D01*
X144874341Y-101249999D01*
X144874341Y-101250000D01*
X144894936Y-101485403D01*
X144894938Y-101485413D01*
X144956094Y-101713655D01*
X144956096Y-101713659D01*
X144956097Y-101713663D01*
X145053633Y-101922830D01*
X145055965Y-101927830D01*
X145055967Y-101927834D01*
X145125501Y-102027138D01*
X145188000Y-102116396D01*
X145191501Y-102121395D01*
X145191506Y-102121402D01*
X145358597Y-102288493D01*
X145358603Y-102288498D01*
X145424805Y-102334853D01*
X145496629Y-102385145D01*
X145544594Y-102418730D01*
X145588219Y-102473307D01*
X145595413Y-102542805D01*
X145563890Y-102605160D01*
X145544595Y-102621880D01*
X145358922Y-102751890D01*
X145358920Y-102751891D01*
X145191891Y-102918920D01*
X145191886Y-102918926D01*
X145056400Y-103112420D01*
X145056399Y-103112422D01*
X144956570Y-103326507D01*
X144956567Y-103326513D01*
X144899364Y-103539999D01*
X144899364Y-103540000D01*
X145796988Y-103540000D01*
X145764075Y-103597007D01*
X145730000Y-103724174D01*
X145730000Y-103855826D01*
X145764075Y-103982993D01*
X145796988Y-104040000D01*
X144899364Y-104040000D01*
X144956567Y-104253486D01*
X144956570Y-104253492D01*
X145056399Y-104467578D01*
X145191894Y-104661082D01*
X145358917Y-104828105D01*
X145552421Y-104963600D01*
X145766507Y-105063429D01*
X145766516Y-105063433D01*
X145980000Y-105120634D01*
X145980000Y-104223012D01*
X146037007Y-104255925D01*
X146164174Y-104290000D01*
X146295826Y-104290000D01*
X146422993Y-104255925D01*
X146480000Y-104223012D01*
X146480000Y-105120633D01*
X146623407Y-105082209D01*
X146693257Y-105083872D01*
X146751119Y-105123035D01*
X146778623Y-105187263D01*
X146779500Y-105201984D01*
X146779500Y-112586247D01*
X146759815Y-112653286D01*
X146743181Y-112673928D01*
X132688211Y-126728897D01*
X132626888Y-126762382D01*
X132557196Y-126757398D01*
X132501263Y-126715526D01*
X132488148Y-126693621D01*
X132473599Y-126662421D01*
X132473597Y-126662417D01*
X132338113Y-126468926D01*
X132338108Y-126468920D01*
X132171082Y-126301894D01*
X131977578Y-126166399D01*
X131763492Y-126066570D01*
X131763486Y-126066567D01*
X131550000Y-126009364D01*
X131550000Y-126906988D01*
X131492993Y-126874075D01*
X131365826Y-126840000D01*
X131234174Y-126840000D01*
X131107007Y-126874075D01*
X131050000Y-126906988D01*
X131050000Y-126009364D01*
X131049999Y-126009364D01*
X130836513Y-126066567D01*
X130836507Y-126066570D01*
X130622422Y-126166399D01*
X130622420Y-126166400D01*
X130428926Y-126301886D01*
X130428920Y-126301891D01*
X130261891Y-126468920D01*
X130261890Y-126468922D01*
X130131880Y-126654595D01*
X130077303Y-126698219D01*
X130007804Y-126705412D01*
X129945450Y-126673890D01*
X129928730Y-126654594D01*
X129798494Y-126468597D01*
X129631402Y-126301506D01*
X129631395Y-126301501D01*
X129437834Y-126165967D01*
X129437830Y-126165965D01*
X129408521Y-126152298D01*
X129223663Y-126066097D01*
X129223659Y-126066096D01*
X129223655Y-126066094D01*
X128995413Y-126004938D01*
X128995403Y-126004936D01*
X128760001Y-125984341D01*
X128759999Y-125984341D01*
X128524596Y-126004936D01*
X128524586Y-126004938D01*
X128296344Y-126066094D01*
X128296335Y-126066098D01*
X128082171Y-126165964D01*
X128082169Y-126165965D01*
X127888597Y-126301505D01*
X127721505Y-126468597D01*
X127591575Y-126654158D01*
X127536998Y-126697783D01*
X127467500Y-126704977D01*
X127405145Y-126673454D01*
X127388425Y-126654158D01*
X127258494Y-126468597D01*
X127091402Y-126301506D01*
X127091395Y-126301501D01*
X126897834Y-126165967D01*
X126897830Y-126165965D01*
X126868521Y-126152298D01*
X126683663Y-126066097D01*
X126683659Y-126066096D01*
X126683655Y-126066094D01*
X126455413Y-126004938D01*
X126455403Y-126004936D01*
X126220001Y-125984341D01*
X126219999Y-125984341D01*
X125984596Y-126004936D01*
X125984586Y-126004938D01*
X125756344Y-126066094D01*
X125756335Y-126066098D01*
X125542171Y-126165964D01*
X125542169Y-126165965D01*
X125348597Y-126301505D01*
X125181505Y-126468597D01*
X125051575Y-126654158D01*
X124996998Y-126697783D01*
X124927500Y-126704977D01*
X124865145Y-126673454D01*
X124848425Y-126654158D01*
X124718494Y-126468597D01*
X124551404Y-126301507D01*
X124483375Y-126253872D01*
X124439751Y-126199294D01*
X124430500Y-126152298D01*
X124430500Y-108500008D01*
X125000000Y-108500008D01*
X125002311Y-108617866D01*
X125039190Y-108850710D01*
X125112036Y-109074910D01*
X125112038Y-109074913D01*
X125219062Y-109284960D01*
X125357628Y-109475678D01*
X125524322Y-109642372D01*
X125715040Y-109780938D01*
X125925087Y-109887962D01*
X125925089Y-109887963D01*
X126037189Y-109924386D01*
X126149291Y-109960810D01*
X126382129Y-109997688D01*
X126418397Y-109998399D01*
X126499991Y-110000000D01*
X133500000Y-110000000D01*
X133500009Y-110000000D01*
X133575774Y-109998513D01*
X133617871Y-109997688D01*
X133850709Y-109960810D01*
X134074913Y-109887962D01*
X134284960Y-109780938D01*
X134475678Y-109642372D01*
X134642372Y-109475678D01*
X134780938Y-109284960D01*
X134887962Y-109074913D01*
X134960810Y-108850709D01*
X134997688Y-108617871D01*
X135000000Y-108500000D01*
X135000000Y-91500000D01*
X134997688Y-91382129D01*
X134960810Y-91149291D01*
X134887962Y-90925087D01*
X134780938Y-90715040D01*
X134642372Y-90524322D01*
X134475678Y-90357628D01*
X134284960Y-90219062D01*
X134074913Y-90112038D01*
X134074910Y-90112036D01*
X133850710Y-90039190D01*
X133617866Y-90002311D01*
X133500009Y-90000000D01*
X133500000Y-90000000D01*
X126500000Y-90000000D01*
X126499991Y-90000000D01*
X126382133Y-90002311D01*
X126149289Y-90039190D01*
X125925089Y-90112036D01*
X125925086Y-90112038D01*
X125715039Y-90219062D01*
X125524320Y-90357629D01*
X125357629Y-90524320D01*
X125219062Y-90715039D01*
X125112038Y-90925086D01*
X125112036Y-90925089D01*
X125039190Y-91149289D01*
X125002311Y-91382133D01*
X125000000Y-91499991D01*
X125000000Y-108500008D01*
X124430500Y-108500008D01*
X124430500Y-99757601D01*
X124401659Y-99612614D01*
X124401658Y-99612613D01*
X124401658Y-99612609D01*
X124368018Y-99531395D01*
X124345087Y-99476033D01*
X124345080Y-99476020D01*
X124262952Y-99353107D01*
X124247675Y-99337830D01*
X124158416Y-99248571D01*
X122743442Y-97833597D01*
X118346899Y-93437052D01*
X118346892Y-93437046D01*
X118273207Y-93387812D01*
X118273207Y-93387813D01*
X118223969Y-93354913D01*
X118087395Y-93298343D01*
X118087385Y-93298340D01*
X117942398Y-93269500D01*
X117942396Y-93269500D01*
X115925439Y-93269500D01*
X115777604Y-93269500D01*
X115777602Y-93269500D01*
X115632614Y-93298340D01*
X115632604Y-93298343D01*
X115496033Y-93354912D01*
X115496020Y-93354919D01*
X115373106Y-93437048D01*
X115373104Y-93437050D01*
X112777047Y-96033106D01*
X112765881Y-96049818D01*
X112754763Y-96066459D01*
X112724736Y-96111396D01*
X112694914Y-96156029D01*
X112638343Y-96292604D01*
X112638340Y-96292614D01*
X112609500Y-96437601D01*
X112609500Y-98315547D01*
X112589815Y-98382586D01*
X112537011Y-98428341D01*
X112467853Y-98438285D01*
X112404297Y-98409260D01*
X112397819Y-98403228D01*
X108512928Y-94518338D01*
X108512925Y-94518334D01*
X108512925Y-94518335D01*
X108505858Y-94511268D01*
X108505858Y-94511267D01*
X108418733Y-94424142D01*
X108418732Y-94424141D01*
X108418731Y-94424140D01*
X108367509Y-94389915D01*
X108316287Y-94355689D01*
X108316286Y-94355688D01*
X108316283Y-94355686D01*
X108316280Y-94355685D01*
X108235792Y-94322347D01*
X108202454Y-94308538D01*
X108202455Y-94308538D01*
X108202452Y-94308537D01*
X108202448Y-94308536D01*
X108202444Y-94308535D01*
X108134816Y-94295083D01*
X108134815Y-94295083D01*
X108081611Y-94284500D01*
X108081607Y-94284500D01*
X108081606Y-94284500D01*
X107596671Y-94284500D01*
X107529632Y-94264815D01*
X107483877Y-94212011D01*
X107473933Y-94142853D01*
X107484289Y-94108094D01*
X107493431Y-94088487D01*
X107493432Y-94088486D01*
X107550636Y-93875000D01*
X106653012Y-93875000D01*
X106685925Y-93817993D01*
X106720000Y-93690826D01*
X106720000Y-93559174D01*
X106685925Y-93432007D01*
X106653012Y-93375000D01*
X107550636Y-93375000D01*
X107550635Y-93374999D01*
X107512210Y-93231594D01*
X107513873Y-93161744D01*
X107553035Y-93103881D01*
X107617264Y-93076377D01*
X107631985Y-93075500D01*
X111688920Y-93075500D01*
X111786462Y-93056096D01*
X111833913Y-93046658D01*
X111970495Y-92990084D01*
X112019729Y-92957186D01*
X112093416Y-92907952D01*
X117294548Y-87706817D01*
X117355871Y-87673333D01*
X117382229Y-87670499D01*
X117870002Y-87670499D01*
X117870008Y-87670499D01*
X117972797Y-87659999D01*
X118139334Y-87604814D01*
X118288656Y-87512712D01*
X118412712Y-87388656D01*
X118504814Y-87239334D01*
X118559999Y-87072797D01*
X118570500Y-86970009D01*
X118570499Y-85969992D01*
X118564951Y-85915685D01*
X118559999Y-85867203D01*
X118559998Y-85867200D01*
X118552417Y-85844322D01*
X118504814Y-85700666D01*
X118412712Y-85551344D01*
X118288656Y-85427288D01*
X118288655Y-85427287D01*
X118214757Y-85381707D01*
X118168032Y-85329759D01*
X118156809Y-85260797D01*
X118184653Y-85196714D01*
X118214757Y-85170629D01*
X118215234Y-85170335D01*
X118308656Y-85112712D01*
X118432712Y-84988656D01*
X118524814Y-84839334D01*
X118579999Y-84672797D01*
X118590500Y-84570009D01*
X118590499Y-83569992D01*
X118579999Y-83467203D01*
X118524814Y-83300666D01*
X118432712Y-83151344D01*
X118308656Y-83027288D01*
X118159334Y-82935186D01*
X117992797Y-82880001D01*
X117992795Y-82880000D01*
X117890016Y-82869500D01*
X117890009Y-82869500D01*
X117225452Y-82869500D01*
X117158413Y-82849815D01*
X117137771Y-82833181D01*
X116955198Y-82650608D01*
X116955178Y-82650586D01*
X116863733Y-82559141D01*
X116812509Y-82524915D01*
X116761287Y-82490689D01*
X116761286Y-82490688D01*
X116761283Y-82490686D01*
X116761280Y-82490685D01*
X116680792Y-82457347D01*
X116647453Y-82443537D01*
X116637427Y-82441543D01*
X116587029Y-82431518D01*
X116526610Y-82419500D01*
X116526607Y-82419500D01*
X116526606Y-82419500D01*
X114946606Y-82419500D01*
X114823393Y-82419500D01*
X114823389Y-82419500D01*
X114762971Y-82431518D01*
X114719743Y-82440116D01*
X114702546Y-82443537D01*
X114588712Y-82490689D01*
X114588706Y-82490693D01*
X114486266Y-82559142D01*
X114486262Y-82559145D01*
X114166269Y-82879140D01*
X114079144Y-82966264D01*
X114079138Y-82966272D01*
X114010690Y-83068708D01*
X114010688Y-83068713D01*
X113963540Y-83182538D01*
X113963535Y-83182554D01*
X113940042Y-83300667D01*
X113940041Y-83300673D01*
X113939500Y-83303387D01*
X113939500Y-85626611D01*
X113953364Y-85696309D01*
X113947137Y-85765901D01*
X113904274Y-85821078D01*
X113838384Y-85844322D01*
X113831747Y-85844500D01*
X106987741Y-85844500D01*
X106987721Y-85844499D01*
X106981607Y-85844499D01*
X106858394Y-85844499D01*
X106858392Y-85844499D01*
X106774002Y-85861286D01*
X106752048Y-85865652D01*
X106737546Y-85868537D01*
X106737541Y-85868539D01*
X106705262Y-85881909D01*
X106690397Y-85888067D01*
X106623719Y-85915685D01*
X106623717Y-85915686D01*
X106521266Y-85984141D01*
X106521263Y-85984144D01*
X101005418Y-91499991D01*
X99181269Y-93324140D01*
X99181267Y-93324142D01*
X99150497Y-93354912D01*
X99094144Y-93411264D01*
X99094142Y-93411267D01*
X99076916Y-93437048D01*
X99076915Y-93437050D01*
X99076914Y-93437049D01*
X99025686Y-93513717D01*
X99025685Y-93513718D01*
X98978540Y-93627538D01*
X98978535Y-93627554D01*
X98963346Y-93703919D01*
X98954500Y-93748389D01*
X98954500Y-96951611D01*
X93720000Y-96951611D01*
X93720000Y-74325734D01*
X95622466Y-74325734D01*
X95661801Y-74574090D01*
X95739508Y-74813244D01*
X95853668Y-75037293D01*
X96001463Y-75240717D01*
X96001467Y-75240722D01*
X96179277Y-75418532D01*
X96179282Y-75418536D01*
X96356720Y-75547451D01*
X96382710Y-75566334D01*
X96525474Y-75639076D01*
X96606755Y-75680491D01*
X96606757Y-75680491D01*
X96606760Y-75680493D01*
X96734949Y-75722144D01*
X96845909Y-75758198D01*
X97094266Y-75797534D01*
X97345729Y-75797534D01*
X97345734Y-75797534D01*
X97594090Y-75758198D01*
X97833240Y-75680493D01*
X98057290Y-75566334D01*
X98260724Y-75418531D01*
X98438531Y-75240724D01*
X98586334Y-75037290D01*
X98700493Y-74813240D01*
X98778198Y-74574090D01*
X98817534Y-74325729D01*
X98820000Y-74200000D01*
X98817534Y-74074271D01*
X98778198Y-73825910D01*
X98700493Y-73586760D01*
X98700491Y-73586757D01*
X98700491Y-73586755D01*
X98659076Y-73505474D01*
X98586334Y-73362710D01*
X98567451Y-73336720D01*
X98438536Y-73159282D01*
X98438532Y-73159277D01*
X98260722Y-72981467D01*
X98260717Y-72981463D01*
X98057293Y-72833668D01*
X98057292Y-72833667D01*
X98057290Y-72833666D01*
X97987322Y-72798015D01*
X97833244Y-72719508D01*
X97594090Y-72641801D01*
X97345734Y-72602466D01*
X97345729Y-72602466D01*
X97094271Y-72602466D01*
X97094266Y-72602466D01*
X96845909Y-72641801D01*
X96606755Y-72719508D01*
X96382706Y-72833668D01*
X96179282Y-72981463D01*
X96179277Y-72981467D01*
X96001467Y-73159277D01*
X96001463Y-73159282D01*
X95853668Y-73362706D01*
X95739508Y-73586755D01*
X95661801Y-73825909D01*
X95622466Y-74074265D01*
X95622466Y-74325734D01*
X93720000Y-74325734D01*
X93720000Y-70825734D01*
X112622466Y-70825734D01*
X112661801Y-71074090D01*
X112739508Y-71313244D01*
X112853668Y-71537293D01*
X113001463Y-71740717D01*
X113001467Y-71740722D01*
X113179277Y-71918532D01*
X113179282Y-71918536D01*
X113356720Y-72047451D01*
X113382710Y-72066334D01*
X113525474Y-72139076D01*
X113606755Y-72180491D01*
X113606757Y-72180491D01*
X113606760Y-72180493D01*
X113734949Y-72222144D01*
X113845909Y-72258198D01*
X114094266Y-72297534D01*
X114345729Y-72297534D01*
X114345734Y-72297534D01*
X114594090Y-72258198D01*
X114833240Y-72180493D01*
X115057290Y-72066334D01*
X115260724Y-71918531D01*
X115438531Y-71740724D01*
X115586334Y-71537290D01*
X115700493Y-71313240D01*
X115778198Y-71074090D01*
X115817534Y-70825729D01*
X115820000Y-70700000D01*
X115817534Y-70574271D01*
X115778198Y-70325910D01*
X115700493Y-70086760D01*
X115700491Y-70086757D01*
X115700491Y-70086755D01*
X115659076Y-70005474D01*
X115586334Y-69862710D01*
X115548037Y-69809999D01*
X115438536Y-69659282D01*
X115438532Y-69659277D01*
X115260722Y-69481467D01*
X115260717Y-69481463D01*
X115057293Y-69333668D01*
X115057292Y-69333667D01*
X115057290Y-69333666D01*
X114987322Y-69298015D01*
X114833244Y-69219508D01*
X114594090Y-69141801D01*
X114345734Y-69102466D01*
X114345729Y-69102466D01*
X114094271Y-69102466D01*
X114094266Y-69102466D01*
X113845909Y-69141801D01*
X113606755Y-69219508D01*
X113382706Y-69333668D01*
X113179282Y-69481463D01*
X113179277Y-69481467D01*
X113001467Y-69659277D01*
X113001463Y-69659282D01*
X112853668Y-69862706D01*
X112739508Y-70086755D01*
X112661801Y-70325909D01*
X112622466Y-70574265D01*
X112622466Y-70825734D01*
X93720000Y-70825734D01*
X93720000Y-69600872D01*
X93720011Y-69599199D01*
X93722189Y-69437783D01*
X93722958Y-69425573D01*
X93722977Y-69425412D01*
X93759189Y-69104001D01*
X93761518Y-69090296D01*
X93777132Y-69021886D01*
X93833342Y-68775605D01*
X93837183Y-68762271D01*
X93943801Y-68457572D01*
X93949108Y-68444761D01*
X94089161Y-68153935D01*
X94095876Y-68141784D01*
X94267616Y-67868459D01*
X94275646Y-67857141D01*
X94476905Y-67604771D01*
X94486154Y-67594420D01*
X94714408Y-67366164D01*
X94724758Y-67356915D01*
X94977128Y-67155656D01*
X94988446Y-67147625D01*
X95261766Y-66975886D01*
X95273918Y-66969170D01*
X95564751Y-66829112D01*
X95577553Y-66823808D01*
X95882257Y-66717187D01*
X95895591Y-66713346D01*
X96210296Y-66641516D01*
X96223974Y-66639192D01*
X96545573Y-66602957D01*
X96557755Y-66602191D01*
X96719326Y-66600025D01*
X96720688Y-66600015D01*
X155719128Y-66599993D01*
X155720858Y-66600005D01*
G37*
%TD.AperFunction*%
%TD*%
M02*
