%TF.GenerationSoftware,KiCad,Pcbnew,8.0.0-dirty*%
%TF.CreationDate,2024-04-13T23:55:43-04:00*%
%TF.ProjectId,UltrasonicPCB,556c7472-6173-46f6-9e69-635043422e6b,rev?*%
%TF.SameCoordinates,Original*%
%TF.FileFunction,Profile,NP*%
%FSLAX46Y46*%
G04 Gerber Fmt 4.6, Leading zero omitted, Abs format (unit mm)*
G04 Created by KiCad (PCBNEW 8.0.0-dirty) date 2024-04-13 23:55:43*
%MOMM*%
%LPD*%
G01*
G04 APERTURE LIST*
%TA.AperFunction,Profile*%
%ADD10C,0.200000*%
%TD*%
G04 APERTURE END LIST*
D10*
X98570000Y-123200000D02*
G75*
G02*
X95870000Y-123200000I-1350000J0D01*
G01*
X95870000Y-123200000D02*
G75*
G02*
X98570000Y-123200000I1350000J0D01*
G01*
X93720000Y-73700000D02*
X93720000Y-123700000D01*
X125000000Y-91500000D02*
G75*
G02*
X126500000Y-90000000I1500000J0D01*
G01*
X158720000Y-123700000D02*
X158719998Y-127800001D01*
X155719999Y-66599993D02*
G75*
G02*
X158719999Y-69593071I1J-3000007D01*
G01*
X139820000Y-70700000D02*
G75*
G02*
X136620000Y-70700000I-1600000J0D01*
G01*
X136620000Y-70700000D02*
G75*
G02*
X139820000Y-70700000I1600000J0D01*
G01*
X96719997Y-130799984D02*
G75*
G02*
X93720016Y-127799985I3J2999984D01*
G01*
X158719998Y-127800001D02*
G75*
G02*
X155719997Y-130799998I-2999998J1D01*
G01*
X135000000Y-91500000D02*
X135000000Y-108500000D01*
X133500000Y-90000000D02*
G75*
G02*
X135000000Y-91500000I0J-1500000D01*
G01*
X93720000Y-69600015D02*
G75*
G02*
X96719999Y-66600000I3000000J15D01*
G01*
X135000000Y-108500000D02*
G75*
G02*
X133500000Y-110000000I-1500000J0D01*
G01*
X126500000Y-110000000D02*
G75*
G02*
X125000000Y-108500000I0J1500000D01*
G01*
X93720000Y-127799985D02*
X93720000Y-123700000D01*
X115820000Y-70700000D02*
G75*
G02*
X112620000Y-70700000I-1600000J0D01*
G01*
X112620000Y-70700000D02*
G75*
G02*
X115820000Y-70700000I1600000J0D01*
G01*
X115820000Y-126700000D02*
G75*
G02*
X112620000Y-126700000I-1600000J0D01*
G01*
X112620000Y-126700000D02*
G75*
G02*
X115820000Y-126700000I1600000J0D01*
G01*
X93720000Y-69600015D02*
X93720000Y-73700000D01*
X155719997Y-130800007D02*
X96719997Y-130799984D01*
X158720000Y-123700000D02*
X158720000Y-73700000D01*
X158720000Y-73700000D02*
X158719998Y-69593071D01*
X155719999Y-66599993D02*
X96719999Y-66600016D01*
X98570000Y-74200000D02*
G75*
G02*
X95870000Y-74200000I-1350000J0D01*
G01*
X95870000Y-74200000D02*
G75*
G02*
X98570000Y-74200000I1350000J0D01*
G01*
X156570000Y-123200000D02*
G75*
G02*
X153870000Y-123200000I-1350000J0D01*
G01*
X153870000Y-123200000D02*
G75*
G02*
X156570000Y-123200000I1350000J0D01*
G01*
X156570000Y-74200000D02*
G75*
G02*
X153870000Y-74200000I-1350000J0D01*
G01*
X153870000Y-74200000D02*
G75*
G02*
X156570000Y-74200000I1350000J0D01*
G01*
X139820000Y-126700000D02*
G75*
G02*
X136620000Y-126700000I-1600000J0D01*
G01*
X136620000Y-126700000D02*
G75*
G02*
X139820000Y-126700000I1600000J0D01*
G01*
X125000000Y-91500000D02*
X125000000Y-108500000D01*
X126500000Y-90000000D02*
X133500000Y-90000000D01*
X126500000Y-110000000D02*
X133500000Y-110000000D01*
M02*
