%TF.GenerationSoftware,KiCad,Pcbnew,8.0.0-dirty*%
%TF.CreationDate,2024-04-13T11:17:01-04:00*%
%TF.ProjectId,UltrasonicPCB,556c7472-6173-46f6-9e69-635043422e6b,rev?*%
%TF.SameCoordinates,Original*%
%TF.FileFunction,Copper,L1,Top*%
%TF.FilePolarity,Positive*%
%FSLAX46Y46*%
G04 Gerber Fmt 4.6, Leading zero omitted, Abs format (unit mm)*
G04 Created by KiCad (PCBNEW 8.0.0-dirty) date 2024-04-13 11:17:01*
%MOMM*%
%LPD*%
G01*
G04 APERTURE LIST*
G04 Aperture macros list*
%AMRoundRect*
0 Rectangle with rounded corners*
0 $1 Rounding radius*
0 $2 $3 $4 $5 $6 $7 $8 $9 X,Y pos of 4 corners*
0 Add a 4 corners polygon primitive as box body*
4,1,4,$2,$3,$4,$5,$6,$7,$8,$9,$2,$3,0*
0 Add four circle primitives for the rounded corners*
1,1,$1+$1,$2,$3*
1,1,$1+$1,$4,$5*
1,1,$1+$1,$6,$7*
1,1,$1+$1,$8,$9*
0 Add four rect primitives between the rounded corners*
20,1,$1+$1,$2,$3,$4,$5,0*
20,1,$1+$1,$4,$5,$6,$7,0*
20,1,$1+$1,$6,$7,$8,$9,0*
20,1,$1+$1,$8,$9,$2,$3,0*%
G04 Aperture macros list end*
%TA.AperFunction,SMDPad,CuDef*%
%ADD10RoundRect,0.225000X0.225000X0.375000X-0.225000X0.375000X-0.225000X-0.375000X0.225000X-0.375000X0*%
%TD*%
%TA.AperFunction,ComponentPad*%
%ADD11R,1.700000X1.700000*%
%TD*%
%TA.AperFunction,ComponentPad*%
%ADD12O,1.700000X1.700000*%
%TD*%
%TA.AperFunction,ComponentPad*%
%ADD13RoundRect,0.250000X0.600000X0.600000X-0.600000X0.600000X-0.600000X-0.600000X0.600000X-0.600000X0*%
%TD*%
%TA.AperFunction,ComponentPad*%
%ADD14C,1.700000*%
%TD*%
%TA.AperFunction,ViaPad*%
%ADD15C,0.800000*%
%TD*%
%TA.AperFunction,Conductor*%
%ADD16C,0.250000*%
%TD*%
%TA.AperFunction,Conductor*%
%ADD17C,0.500000*%
%TD*%
G04 APERTURE END LIST*
D10*
%TO.P,D4,1,K*%
%TO.N,ECHO*%
X140600000Y-106200000D03*
%TO.P,D4,2,A*%
%TO.N,Net-(D4-A)*%
X137300000Y-106200000D03*
%TD*%
D11*
%TO.P,U3,1,VCC*%
%TO.N,5V*%
X121140000Y-70060000D03*
D12*
%TO.P,U3,2,TRIG*%
%TO.N,TRIG3*%
X123680000Y-70060000D03*
%TO.P,U3,3,ECHO*%
%TO.N,Net-(D3-A)*%
X126220000Y-70060000D03*
%TO.P,U3,4,OUT*%
%TO.N,unconnected-(U3-OUT-Pad4)*%
X128760000Y-70060000D03*
%TO.P,U3,5,GND*%
%TO.N,GND*%
X131300000Y-70060000D03*
%TD*%
D11*
%TO.P,U2,1,VCC*%
%TO.N,5V*%
X121140000Y-127340000D03*
D12*
%TO.P,U2,2,TRIG*%
%TO.N,TRIG2*%
X123680000Y-127340000D03*
%TO.P,U2,3,ECHO*%
%TO.N,Net-(D2-A)*%
X126220000Y-127340000D03*
%TO.P,U2,4,OUT*%
%TO.N,unconnected-(U2-OUT-Pad4)*%
X128760000Y-127340000D03*
%TO.P,U2,5,GND*%
%TO.N,GND*%
X131300000Y-127340000D03*
%TD*%
D10*
%TO.P,D2,1,K*%
%TO.N,ECHO*%
X140600000Y-101000000D03*
%TO.P,D2,2,A*%
%TO.N,Net-(D2-A)*%
X137300000Y-101000000D03*
%TD*%
%TO.P,D3,1,K*%
%TO.N,ECHO*%
X140600000Y-103600000D03*
%TO.P,D3,2,A*%
%TO.N,Net-(D3-A)*%
X137300000Y-103600000D03*
%TD*%
D11*
%TO.P,U5,1,VCC*%
%TO.N,5V*%
X146230000Y-103780000D03*
D12*
%TO.P,U5,2,TRIG*%
%TO.N,TRIG4*%
X146230000Y-101240000D03*
%TO.P,U5,3,ECHO*%
%TO.N,Net-(D4-A)*%
X146230000Y-98700000D03*
%TO.P,U5,4,OUT*%
%TO.N,unconnected-(U5-OUT-Pad4)*%
X146230000Y-96160000D03*
%TO.P,U5,5,GND*%
%TO.N,GND*%
X146230000Y-93620000D03*
%TD*%
D10*
%TO.P,D1,1,K*%
%TO.N,ECHO*%
X140555000Y-98600000D03*
%TO.P,D1,2,A*%
%TO.N,Net-(D1-A)*%
X137255000Y-98600000D03*
%TD*%
D11*
%TO.P,U1,1,VCC*%
%TO.N,5V*%
X106220000Y-103785000D03*
D12*
%TO.P,U1,2,TRIG*%
%TO.N,TRIG1*%
X106220000Y-101245000D03*
%TO.P,U1,3,ECHO*%
%TO.N,Net-(D1-A)*%
X106220000Y-98705000D03*
%TO.P,U1,4,OUT*%
%TO.N,unconnected-(U1-OUT-Pad4)*%
X106220000Y-96165000D03*
%TO.P,U1,5,GND*%
%TO.N,GND*%
X106220000Y-93625000D03*
%TD*%
D13*
%TO.P,J2,1,Pin_1*%
%TO.N,5V*%
X117650000Y-103760000D03*
D14*
%TO.P,J2,2,Pin_2*%
%TO.N,TRIG1*%
X115110000Y-103760000D03*
%TO.P,J2,3,Pin_3*%
%TO.N,TRIG2*%
X117650000Y-101220000D03*
%TO.P,J2,4,Pin_4*%
%TO.N,TRIG3*%
X115110000Y-101220000D03*
%TO.P,J2,5,Pin_5*%
%TO.N,TRIG4*%
X117650000Y-98680000D03*
%TO.P,J2,6,Pin_6*%
%TO.N,Net-(J2-Pin_6)*%
X115110000Y-98680000D03*
%TO.P,J2,7,Pin_7*%
%TO.N,GND*%
X117650000Y-96140000D03*
%TO.P,J2,8*%
%TO.N,N/C*%
X115110000Y-96140000D03*
%TD*%
D15*
%TO.N,Net-(D2-A)*%
X137300000Y-101000000D03*
%TO.N,ECHO*%
X140620000Y-98660000D03*
%TD*%
D16*
%TO.N,Net-(D1-A)*%
X137255000Y-98600000D02*
X137255000Y-85590000D01*
X137255000Y-85590000D02*
X122340000Y-70675000D01*
X122340000Y-70675000D02*
X122340000Y-68910000D01*
X107495000Y-97430000D02*
X106220000Y-98705000D01*
X122340000Y-68910000D02*
X122170000Y-68740000D01*
X122170000Y-68740000D02*
X120190000Y-68740000D01*
X120190000Y-68740000D02*
X118825000Y-70105000D01*
X118825000Y-70105000D02*
X118825000Y-96626701D01*
X118825000Y-96626701D02*
X118021701Y-97430000D01*
X118021701Y-97430000D02*
X107495000Y-97430000D01*
D17*
%TO.N,GND*%
X131300000Y-70060000D02*
X128840000Y-67600000D01*
X128840000Y-67600000D02*
X112510000Y-67600000D01*
X112510000Y-67600000D02*
X109520000Y-70590000D01*
X109520000Y-70590000D02*
X109520000Y-72780121D01*
X109520000Y-72780121D02*
X106220000Y-76080121D01*
X106220000Y-76080121D02*
X106220000Y-93625000D01*
%TO.N,Net-(D4-A)*%
X137300000Y-106200000D02*
X138350000Y-107250000D01*
X144930000Y-100000000D02*
X146230000Y-98700000D01*
X138350000Y-107250000D02*
X141110828Y-107250000D01*
X141110828Y-107250000D02*
X144930000Y-103430828D01*
X144930000Y-103430828D02*
X144930000Y-100000000D01*
%TO.N,Net-(D3-A)*%
X137300000Y-103600000D02*
X138200000Y-102700000D01*
X138200000Y-82040000D02*
X126220000Y-70060000D01*
X138200000Y-102700000D02*
X138200000Y-82040000D01*
%TO.N,5V*%
X141610000Y-111450000D02*
X127040000Y-111450000D01*
X121140000Y-127340000D02*
X121140000Y-117350000D01*
X127040000Y-111450000D02*
X124530000Y-111450000D01*
X121140000Y-117350000D02*
X127040000Y-111450000D01*
X146230000Y-103780000D02*
X146230000Y-106830000D01*
X146230000Y-106830000D02*
X141610000Y-111450000D01*
X117650000Y-104570000D02*
X117650000Y-103760000D01*
X124530000Y-111450000D02*
X117650000Y-104570000D01*
%TO.N,GND*%
X146230000Y-93620000D02*
X146230000Y-84990000D01*
X146230000Y-84990000D02*
X131300000Y-70060000D01*
X117650000Y-96140000D02*
X115135000Y-93625000D01*
X115135000Y-93625000D02*
X106220000Y-93625000D01*
%TO.N,ECHO*%
X140620000Y-98660000D02*
X140600000Y-98645000D01*
X140600000Y-106200000D02*
X140620000Y-98660000D01*
X140600000Y-98645000D02*
X140555000Y-98600000D01*
%TO.N,5V*%
X121140000Y-70060000D02*
X121140000Y-100270000D01*
X121140000Y-100270000D02*
X117650000Y-103760000D01*
%TD*%
%TA.AperFunction,Conductor*%
%TO.N,GND*%
G36*
X155720858Y-66600005D02*
G01*
X155882008Y-66602255D01*
X155894140Y-66603020D01*
X156215276Y-66639149D01*
X156228965Y-66641471D01*
X156543192Y-66713082D01*
X156556533Y-66716920D01*
X156860789Y-66823215D01*
X156873620Y-66828521D01*
X157164090Y-66968168D01*
X157176247Y-66974876D01*
X157449264Y-67146110D01*
X157460596Y-67154134D01*
X157712780Y-67354836D01*
X157723137Y-67364071D01*
X157951301Y-67591709D01*
X157960555Y-67602040D01*
X158161832Y-67853752D01*
X158169882Y-67865064D01*
X158341758Y-68137701D01*
X158348494Y-68149843D01*
X158488805Y-68439977D01*
X158494139Y-68452792D01*
X158590840Y-68727545D01*
X158601139Y-68756807D01*
X158605008Y-68770142D01*
X158677345Y-69084205D01*
X158679699Y-69097889D01*
X158716568Y-69418927D01*
X158717362Y-69431058D01*
X158719982Y-69592087D01*
X158719998Y-69594104D01*
X158720000Y-73700000D01*
X158720000Y-123700000D01*
X158719998Y-127799151D01*
X158719987Y-127800819D01*
X158717816Y-127962229D01*
X158717047Y-127974444D01*
X158680816Y-128296007D01*
X158678487Y-128309717D01*
X158606661Y-128624402D01*
X158602812Y-128637763D01*
X158496206Y-128942424D01*
X158490888Y-128955262D01*
X158350841Y-129246072D01*
X158344115Y-129258242D01*
X158172390Y-129531541D01*
X158164343Y-129542882D01*
X157963097Y-129795237D01*
X157953831Y-129805605D01*
X157725602Y-130033833D01*
X157715234Y-130043099D01*
X157462879Y-130244345D01*
X157451538Y-130252392D01*
X157178238Y-130424117D01*
X157166068Y-130430843D01*
X156875264Y-130570887D01*
X156862416Y-130576209D01*
X156557752Y-130682815D01*
X156544390Y-130686664D01*
X156229715Y-130758486D01*
X156216007Y-130760815D01*
X155894439Y-130797047D01*
X155882229Y-130797816D01*
X155720811Y-130799995D01*
X155719137Y-130800006D01*
X96720838Y-130799984D01*
X96719177Y-130799973D01*
X96710131Y-130799851D01*
X96557773Y-130797809D01*
X96545551Y-130797040D01*
X96223989Y-130760807D01*
X96210280Y-130758478D01*
X95895595Y-130686653D01*
X95882239Y-130682805D01*
X95577567Y-130576195D01*
X95564735Y-130570880D01*
X95273926Y-130430833D01*
X95261756Y-130424107D01*
X94988457Y-130252381D01*
X94977116Y-130244334D01*
X94724762Y-130043087D01*
X94714394Y-130033821D01*
X94486163Y-129805589D01*
X94476897Y-129795220D01*
X94468471Y-129784655D01*
X94275653Y-129542866D01*
X94267608Y-129531528D01*
X94095884Y-129258227D01*
X94089158Y-129246057D01*
X93949111Y-128955244D01*
X93943799Y-128942421D01*
X93837185Y-128637732D01*
X93833341Y-128624389D01*
X93761517Y-128309702D01*
X93759189Y-128295994D01*
X93749658Y-128211402D01*
X93722957Y-127974418D01*
X93722189Y-127962216D01*
X93720011Y-127800800D01*
X93720000Y-127799127D01*
X93720000Y-126825734D01*
X112622466Y-126825734D01*
X112661801Y-127074090D01*
X112739508Y-127313244D01*
X112853668Y-127537293D01*
X113001463Y-127740717D01*
X113001467Y-127740722D01*
X113179277Y-127918532D01*
X113179282Y-127918536D01*
X113315603Y-128017578D01*
X113382710Y-128066334D01*
X113525474Y-128139076D01*
X113606755Y-128180491D01*
X113606757Y-128180491D01*
X113606760Y-128180493D01*
X113700903Y-128211082D01*
X113845909Y-128258198D01*
X114094266Y-128297534D01*
X114345729Y-128297534D01*
X114345734Y-128297534D01*
X114594090Y-128258198D01*
X114833240Y-128180493D01*
X115057290Y-128066334D01*
X115260724Y-127918531D01*
X115438531Y-127740724D01*
X115586334Y-127537290D01*
X115700493Y-127313240D01*
X115778198Y-127074090D01*
X115817534Y-126825729D01*
X115820000Y-126700000D01*
X115817534Y-126574271D01*
X115778198Y-126325910D01*
X115700493Y-126086760D01*
X115700491Y-126086757D01*
X115700491Y-126086755D01*
X115645227Y-125978294D01*
X115586334Y-125862710D01*
X115567451Y-125836720D01*
X115438536Y-125659282D01*
X115438532Y-125659277D01*
X115260722Y-125481467D01*
X115260717Y-125481463D01*
X115057293Y-125333668D01*
X115057292Y-125333667D01*
X115057290Y-125333666D01*
X114987322Y-125298015D01*
X114833244Y-125219508D01*
X114594090Y-125141801D01*
X114345734Y-125102466D01*
X114345729Y-125102466D01*
X114094271Y-125102466D01*
X114094266Y-125102466D01*
X113845909Y-125141801D01*
X113606755Y-125219508D01*
X113382706Y-125333668D01*
X113179282Y-125481463D01*
X113179277Y-125481467D01*
X113001467Y-125659277D01*
X113001463Y-125659282D01*
X112853668Y-125862706D01*
X112739508Y-126086755D01*
X112661801Y-126325909D01*
X112622466Y-126574265D01*
X112622466Y-126825734D01*
X93720000Y-126825734D01*
X93720000Y-123317887D01*
X95872568Y-123317887D01*
X95913507Y-123550067D01*
X95994147Y-123771621D01*
X95994150Y-123771628D01*
X96112032Y-123975805D01*
X96112034Y-123975809D01*
X96179773Y-124056536D01*
X96263583Y-124156417D01*
X96382614Y-124256296D01*
X96444190Y-124307965D01*
X96444191Y-124307965D01*
X96444193Y-124307967D01*
X96648376Y-124425852D01*
X96869927Y-124506491D01*
X96869931Y-124506491D01*
X96869932Y-124506492D01*
X96916560Y-124514713D01*
X97102115Y-124547432D01*
X97337883Y-124547432D01*
X97337885Y-124547432D01*
X97570073Y-124506491D01*
X97791624Y-124425852D01*
X97995807Y-124307967D01*
X98176417Y-124156417D01*
X98327967Y-123975807D01*
X98445852Y-123771624D01*
X98526491Y-123550073D01*
X98567432Y-123317885D01*
X98570000Y-123200000D01*
X98567432Y-123082115D01*
X98526491Y-122849927D01*
X98445852Y-122628376D01*
X98327967Y-122424193D01*
X98327965Y-122424191D01*
X98327965Y-122424190D01*
X98276296Y-122362614D01*
X98176417Y-122243583D01*
X98076536Y-122159773D01*
X97995809Y-122092034D01*
X97995805Y-122092032D01*
X97791628Y-121974150D01*
X97791625Y-121974149D01*
X97791624Y-121974148D01*
X97570073Y-121893509D01*
X97570072Y-121893508D01*
X97570067Y-121893507D01*
X97337887Y-121852568D01*
X97337885Y-121852568D01*
X97102115Y-121852568D01*
X97102112Y-121852568D01*
X96869932Y-121893507D01*
X96648378Y-121974147D01*
X96648371Y-121974150D01*
X96444194Y-122092032D01*
X96444190Y-122092034D01*
X96263583Y-122243583D01*
X96112034Y-122424190D01*
X96112032Y-122424194D01*
X95994150Y-122628371D01*
X95994147Y-122628378D01*
X95913507Y-122849932D01*
X95872568Y-123082112D01*
X95872568Y-123317887D01*
X93720000Y-123317887D01*
X93720000Y-101245000D01*
X104864341Y-101245000D01*
X104884936Y-101480403D01*
X104884938Y-101480413D01*
X104946094Y-101708655D01*
X104946096Y-101708659D01*
X104946097Y-101708663D01*
X105029234Y-101886950D01*
X105045965Y-101922830D01*
X105045967Y-101922834D01*
X105063568Y-101947970D01*
X105181501Y-102116396D01*
X105181506Y-102116402D01*
X105303430Y-102238326D01*
X105336915Y-102299649D01*
X105331931Y-102369341D01*
X105290059Y-102425274D01*
X105259083Y-102442189D01*
X105127669Y-102491203D01*
X105127664Y-102491206D01*
X105012455Y-102577452D01*
X105012452Y-102577455D01*
X104926206Y-102692664D01*
X104926202Y-102692671D01*
X104875908Y-102827517D01*
X104873570Y-102849268D01*
X104869501Y-102887123D01*
X104869500Y-102887135D01*
X104869500Y-104682870D01*
X104869501Y-104682876D01*
X104875908Y-104742483D01*
X104926202Y-104877328D01*
X104926206Y-104877335D01*
X105012452Y-104992544D01*
X105012455Y-104992547D01*
X105127664Y-105078793D01*
X105127671Y-105078797D01*
X105262517Y-105129091D01*
X105262516Y-105129091D01*
X105269444Y-105129835D01*
X105322127Y-105135500D01*
X107117872Y-105135499D01*
X107177483Y-105129091D01*
X107312331Y-105078796D01*
X107427546Y-104992546D01*
X107513796Y-104877331D01*
X107564091Y-104742483D01*
X107570500Y-104682873D01*
X107570499Y-102887128D01*
X107564091Y-102827517D01*
X107543369Y-102771959D01*
X107513797Y-102692671D01*
X107513793Y-102692664D01*
X107427547Y-102577455D01*
X107427544Y-102577452D01*
X107312335Y-102491206D01*
X107312328Y-102491202D01*
X107180917Y-102442189D01*
X107124983Y-102400318D01*
X107100566Y-102334853D01*
X107115418Y-102266580D01*
X107136563Y-102238332D01*
X107258495Y-102116401D01*
X107394035Y-101922830D01*
X107493903Y-101708663D01*
X107555063Y-101480408D01*
X107575659Y-101245000D01*
X107575221Y-101239999D01*
X107555063Y-101009596D01*
X107555063Y-101009592D01*
X107493903Y-100781337D01*
X107394035Y-100567171D01*
X107384431Y-100553454D01*
X107258494Y-100373597D01*
X107091402Y-100206506D01*
X107091396Y-100206501D01*
X106905842Y-100076575D01*
X106862217Y-100021998D01*
X106855023Y-99952500D01*
X106886546Y-99890145D01*
X106905842Y-99873425D01*
X106941546Y-99848425D01*
X107091401Y-99743495D01*
X107258495Y-99576401D01*
X107394035Y-99382830D01*
X107493903Y-99168663D01*
X107555063Y-98940408D01*
X107575659Y-98705000D01*
X107575221Y-98699999D01*
X107555063Y-98469596D01*
X107555063Y-98469592D01*
X107528143Y-98369125D01*
X107529806Y-98299277D01*
X107560235Y-98249354D01*
X107717772Y-98091816D01*
X107779094Y-98058334D01*
X107805452Y-98055500D01*
X113717593Y-98055500D01*
X113784632Y-98075185D01*
X113830387Y-98127989D01*
X113840331Y-98197147D01*
X113837368Y-98211593D01*
X113774938Y-98444586D01*
X113774936Y-98444596D01*
X113754341Y-98679999D01*
X113754341Y-98680000D01*
X113774936Y-98915403D01*
X113774938Y-98915413D01*
X113836094Y-99143655D01*
X113836096Y-99143659D01*
X113836097Y-99143663D01*
X113901395Y-99283694D01*
X113935965Y-99357830D01*
X113935967Y-99357834D01*
X113985129Y-99428044D01*
X114071501Y-99551396D01*
X114071506Y-99551402D01*
X114238597Y-99718493D01*
X114238603Y-99718498D01*
X114424158Y-99848425D01*
X114467783Y-99903002D01*
X114474977Y-99972500D01*
X114443454Y-100034855D01*
X114424158Y-100051575D01*
X114238597Y-100181505D01*
X114071505Y-100348597D01*
X113935965Y-100542169D01*
X113935964Y-100542171D01*
X113836098Y-100756335D01*
X113836094Y-100756344D01*
X113774938Y-100984586D01*
X113774936Y-100984596D01*
X113754341Y-101219999D01*
X113754341Y-101220000D01*
X113774936Y-101455403D01*
X113774938Y-101455413D01*
X113836094Y-101683655D01*
X113836096Y-101683659D01*
X113836097Y-101683663D01*
X113930703Y-101886546D01*
X113935965Y-101897830D01*
X113935967Y-101897834D01*
X114033415Y-102037003D01*
X114071501Y-102091396D01*
X114071506Y-102091402D01*
X114238597Y-102258493D01*
X114238603Y-102258498D01*
X114424158Y-102388425D01*
X114467783Y-102443002D01*
X114474977Y-102512500D01*
X114443454Y-102574855D01*
X114424158Y-102591575D01*
X114238597Y-102721505D01*
X114071505Y-102888597D01*
X113935965Y-103082169D01*
X113935964Y-103082171D01*
X113836098Y-103296335D01*
X113836094Y-103296344D01*
X113774938Y-103524586D01*
X113774936Y-103524596D01*
X113754341Y-103759999D01*
X113754341Y-103760000D01*
X113774936Y-103995403D01*
X113774938Y-103995413D01*
X113836094Y-104223655D01*
X113836096Y-104223659D01*
X113836097Y-104223663D01*
X113920499Y-104404663D01*
X113935965Y-104437830D01*
X113935967Y-104437834D01*
X114013086Y-104547970D01*
X114071505Y-104631401D01*
X114238599Y-104798495D01*
X114281675Y-104828657D01*
X114432165Y-104934032D01*
X114432167Y-104934033D01*
X114432170Y-104934035D01*
X114646337Y-105033903D01*
X114874592Y-105095063D01*
X115051034Y-105110500D01*
X115109999Y-105115659D01*
X115110000Y-105115659D01*
X115110001Y-105115659D01*
X115168966Y-105110500D01*
X115345408Y-105095063D01*
X115573663Y-105033903D01*
X115787830Y-104934035D01*
X115981401Y-104798495D01*
X116148495Y-104631401D01*
X116148504Y-104631388D01*
X116149636Y-104630040D01*
X116150293Y-104629602D01*
X116152323Y-104627573D01*
X116152730Y-104627980D01*
X116207805Y-104591334D01*
X116277666Y-104590220D01*
X116337038Y-104627053D01*
X116362337Y-104670735D01*
X116365185Y-104679331D01*
X116365187Y-104679336D01*
X116378241Y-104700500D01*
X116457288Y-104828656D01*
X116581344Y-104952712D01*
X116730666Y-105044814D01*
X116897203Y-105099999D01*
X116999991Y-105110500D01*
X117077768Y-105110499D01*
X117144807Y-105130183D01*
X117165450Y-105146818D01*
X124051580Y-112032948D01*
X124051584Y-112032951D01*
X124174498Y-112115080D01*
X124174511Y-112115087D01*
X124311082Y-112171656D01*
X124311087Y-112171658D01*
X124311091Y-112171658D01*
X124311092Y-112171659D01*
X124456079Y-112200500D01*
X124456082Y-112200500D01*
X124603917Y-112200500D01*
X124928770Y-112200500D01*
X124995809Y-112220185D01*
X125041564Y-112272989D01*
X125051508Y-112342147D01*
X125022483Y-112405703D01*
X125016451Y-112412181D01*
X120557050Y-116871580D01*
X120557044Y-116871588D01*
X120507812Y-116945268D01*
X120507813Y-116945269D01*
X120474921Y-116994496D01*
X120474914Y-116994508D01*
X120418342Y-117131086D01*
X120418340Y-117131092D01*
X120389500Y-117276079D01*
X120389500Y-125865500D01*
X120369815Y-125932539D01*
X120317011Y-125978294D01*
X120265505Y-125989500D01*
X120242132Y-125989500D01*
X120242123Y-125989501D01*
X120182516Y-125995908D01*
X120047671Y-126046202D01*
X120047664Y-126046206D01*
X119932455Y-126132452D01*
X119932452Y-126132455D01*
X119846206Y-126247664D01*
X119846202Y-126247671D01*
X119795908Y-126382517D01*
X119789501Y-126442116D01*
X119789500Y-126442135D01*
X119789500Y-128237870D01*
X119789501Y-128237876D01*
X119795908Y-128297483D01*
X119846202Y-128432328D01*
X119846206Y-128432335D01*
X119932452Y-128547544D01*
X119932455Y-128547547D01*
X120047664Y-128633793D01*
X120047671Y-128633797D01*
X120182517Y-128684091D01*
X120182516Y-128684091D01*
X120189444Y-128684835D01*
X120242127Y-128690500D01*
X122037872Y-128690499D01*
X122097483Y-128684091D01*
X122232331Y-128633796D01*
X122347546Y-128547546D01*
X122433796Y-128432331D01*
X122482810Y-128300916D01*
X122524681Y-128244984D01*
X122590145Y-128220566D01*
X122658418Y-128235417D01*
X122686673Y-128256569D01*
X122808599Y-128378495D01*
X122905384Y-128446265D01*
X123002165Y-128514032D01*
X123002167Y-128514033D01*
X123002170Y-128514035D01*
X123216337Y-128613903D01*
X123444592Y-128675063D01*
X123621034Y-128690500D01*
X123679999Y-128695659D01*
X123680000Y-128695659D01*
X123680001Y-128695659D01*
X123738966Y-128690500D01*
X123915408Y-128675063D01*
X124143663Y-128613903D01*
X124357830Y-128514035D01*
X124551401Y-128378495D01*
X124718495Y-128211401D01*
X124848425Y-128025842D01*
X124903002Y-127982217D01*
X124972500Y-127975023D01*
X125034855Y-128006546D01*
X125051575Y-128025842D01*
X125181281Y-128211082D01*
X125181505Y-128211401D01*
X125348599Y-128378495D01*
X125445384Y-128446265D01*
X125542165Y-128514032D01*
X125542167Y-128514033D01*
X125542170Y-128514035D01*
X125756337Y-128613903D01*
X125984592Y-128675063D01*
X126161034Y-128690500D01*
X126219999Y-128695659D01*
X126220000Y-128695659D01*
X126220001Y-128695659D01*
X126278966Y-128690500D01*
X126455408Y-128675063D01*
X126683663Y-128613903D01*
X126897830Y-128514035D01*
X127091401Y-128378495D01*
X127258495Y-128211401D01*
X127388425Y-128025842D01*
X127443002Y-127982217D01*
X127512500Y-127975023D01*
X127574855Y-128006546D01*
X127591575Y-128025842D01*
X127721281Y-128211082D01*
X127721505Y-128211401D01*
X127888599Y-128378495D01*
X127985384Y-128446265D01*
X128082165Y-128514032D01*
X128082167Y-128514033D01*
X128082170Y-128514035D01*
X128296337Y-128613903D01*
X128524592Y-128675063D01*
X128701034Y-128690500D01*
X128759999Y-128695659D01*
X128760000Y-128695659D01*
X128760001Y-128695659D01*
X128818966Y-128690500D01*
X128995408Y-128675063D01*
X129223663Y-128613903D01*
X129437830Y-128514035D01*
X129631401Y-128378495D01*
X129798495Y-128211401D01*
X129928730Y-128025405D01*
X129983307Y-127981781D01*
X130052805Y-127974587D01*
X130115160Y-128006110D01*
X130131879Y-128025405D01*
X130261890Y-128211078D01*
X130428917Y-128378105D01*
X130622421Y-128513600D01*
X130836507Y-128613429D01*
X130836516Y-128613433D01*
X131050000Y-128670634D01*
X131050000Y-127773012D01*
X131107007Y-127805925D01*
X131234174Y-127840000D01*
X131365826Y-127840000D01*
X131492993Y-127805925D01*
X131550000Y-127773012D01*
X131550000Y-128670633D01*
X131763483Y-128613433D01*
X131763492Y-128613429D01*
X131977578Y-128513600D01*
X132171082Y-128378105D01*
X132338105Y-128211082D01*
X132473600Y-128017578D01*
X132573429Y-127803492D01*
X132573432Y-127803486D01*
X132630636Y-127590000D01*
X131733012Y-127590000D01*
X131765925Y-127532993D01*
X131800000Y-127405826D01*
X131800000Y-127274174D01*
X131765925Y-127147007D01*
X131733012Y-127090000D01*
X132630636Y-127090000D01*
X132630635Y-127089999D01*
X132573432Y-126876513D01*
X132573429Y-126876507D01*
X132549753Y-126825734D01*
X136622466Y-126825734D01*
X136661801Y-127074090D01*
X136739508Y-127313244D01*
X136853668Y-127537293D01*
X137001463Y-127740717D01*
X137001467Y-127740722D01*
X137179277Y-127918532D01*
X137179282Y-127918536D01*
X137315603Y-128017578D01*
X137382710Y-128066334D01*
X137525474Y-128139076D01*
X137606755Y-128180491D01*
X137606757Y-128180491D01*
X137606760Y-128180493D01*
X137700903Y-128211082D01*
X137845909Y-128258198D01*
X138094266Y-128297534D01*
X138345729Y-128297534D01*
X138345734Y-128297534D01*
X138594090Y-128258198D01*
X138833240Y-128180493D01*
X139057290Y-128066334D01*
X139260724Y-127918531D01*
X139438531Y-127740724D01*
X139586334Y-127537290D01*
X139700493Y-127313240D01*
X139778198Y-127074090D01*
X139817534Y-126825729D01*
X139820000Y-126700000D01*
X139817534Y-126574271D01*
X139778198Y-126325910D01*
X139700493Y-126086760D01*
X139700491Y-126086757D01*
X139700491Y-126086755D01*
X139645227Y-125978294D01*
X139586334Y-125862710D01*
X139567451Y-125836720D01*
X139438536Y-125659282D01*
X139438532Y-125659277D01*
X139260722Y-125481467D01*
X139260717Y-125481463D01*
X139057293Y-125333668D01*
X139057292Y-125333667D01*
X139057290Y-125333666D01*
X138987322Y-125298015D01*
X138833244Y-125219508D01*
X138594090Y-125141801D01*
X138345734Y-125102466D01*
X138345729Y-125102466D01*
X138094271Y-125102466D01*
X138094266Y-125102466D01*
X137845909Y-125141801D01*
X137606755Y-125219508D01*
X137382706Y-125333668D01*
X137179282Y-125481463D01*
X137179277Y-125481467D01*
X137001467Y-125659277D01*
X137001463Y-125659282D01*
X136853668Y-125862706D01*
X136739508Y-126086755D01*
X136661801Y-126325909D01*
X136622466Y-126574265D01*
X136622466Y-126825734D01*
X132549753Y-126825734D01*
X132473600Y-126662422D01*
X132473599Y-126662420D01*
X132338113Y-126468926D01*
X132338108Y-126468920D01*
X132171082Y-126301894D01*
X131977578Y-126166399D01*
X131763492Y-126066570D01*
X131763486Y-126066567D01*
X131550000Y-126009364D01*
X131550000Y-126906988D01*
X131492993Y-126874075D01*
X131365826Y-126840000D01*
X131234174Y-126840000D01*
X131107007Y-126874075D01*
X131050000Y-126906988D01*
X131050000Y-126009364D01*
X131049999Y-126009364D01*
X130836513Y-126066567D01*
X130836507Y-126066570D01*
X130622422Y-126166399D01*
X130622420Y-126166400D01*
X130428926Y-126301886D01*
X130428920Y-126301891D01*
X130261891Y-126468920D01*
X130261890Y-126468922D01*
X130131880Y-126654595D01*
X130077303Y-126698219D01*
X130007804Y-126705412D01*
X129945450Y-126673890D01*
X129928730Y-126654594D01*
X129798494Y-126468597D01*
X129631402Y-126301506D01*
X129631395Y-126301501D01*
X129437834Y-126165967D01*
X129437830Y-126165965D01*
X129437828Y-126165964D01*
X129223663Y-126066097D01*
X129223659Y-126066096D01*
X129223655Y-126066094D01*
X128995413Y-126004938D01*
X128995403Y-126004936D01*
X128760001Y-125984341D01*
X128759999Y-125984341D01*
X128524596Y-126004936D01*
X128524586Y-126004938D01*
X128296344Y-126066094D01*
X128296335Y-126066098D01*
X128082171Y-126165964D01*
X128082169Y-126165965D01*
X127888597Y-126301505D01*
X127721505Y-126468597D01*
X127591575Y-126654158D01*
X127536998Y-126697783D01*
X127467500Y-126704977D01*
X127405145Y-126673454D01*
X127388425Y-126654158D01*
X127258494Y-126468597D01*
X127091402Y-126301506D01*
X127091395Y-126301501D01*
X126897834Y-126165967D01*
X126897830Y-126165965D01*
X126897828Y-126165964D01*
X126683663Y-126066097D01*
X126683659Y-126066096D01*
X126683655Y-126066094D01*
X126455413Y-126004938D01*
X126455403Y-126004936D01*
X126220001Y-125984341D01*
X126219999Y-125984341D01*
X125984596Y-126004936D01*
X125984586Y-126004938D01*
X125756344Y-126066094D01*
X125756335Y-126066098D01*
X125542171Y-126165964D01*
X125542169Y-126165965D01*
X125348597Y-126301505D01*
X125181505Y-126468597D01*
X125051575Y-126654158D01*
X124996998Y-126697783D01*
X124927500Y-126704977D01*
X124865145Y-126673454D01*
X124848425Y-126654158D01*
X124718494Y-126468597D01*
X124551402Y-126301506D01*
X124551395Y-126301501D01*
X124357834Y-126165967D01*
X124357830Y-126165965D01*
X124357828Y-126165964D01*
X124143663Y-126066097D01*
X124143659Y-126066096D01*
X124143655Y-126066094D01*
X123915413Y-126004938D01*
X123915403Y-126004936D01*
X123680001Y-125984341D01*
X123679999Y-125984341D01*
X123444596Y-126004936D01*
X123444586Y-126004938D01*
X123216344Y-126066094D01*
X123216335Y-126066098D01*
X123002171Y-126165964D01*
X123002169Y-126165965D01*
X122808600Y-126301503D01*
X122686673Y-126423430D01*
X122625350Y-126456914D01*
X122555658Y-126451930D01*
X122499725Y-126410058D01*
X122482810Y-126379081D01*
X122433797Y-126247671D01*
X122433793Y-126247664D01*
X122347547Y-126132455D01*
X122347544Y-126132452D01*
X122232335Y-126046206D01*
X122232328Y-126046202D01*
X122097482Y-125995908D01*
X122097483Y-125995908D01*
X122037883Y-125989501D01*
X122037881Y-125989500D01*
X122037873Y-125989500D01*
X122037865Y-125989500D01*
X122014500Y-125989500D01*
X121947461Y-125969815D01*
X121901706Y-125917011D01*
X121890500Y-125865500D01*
X121890500Y-123317887D01*
X153872568Y-123317887D01*
X153913507Y-123550067D01*
X153994147Y-123771621D01*
X153994150Y-123771628D01*
X154112032Y-123975805D01*
X154112034Y-123975809D01*
X154179773Y-124056536D01*
X154263583Y-124156417D01*
X154382614Y-124256296D01*
X154444190Y-124307965D01*
X154444191Y-124307965D01*
X154444193Y-124307967D01*
X154648376Y-124425852D01*
X154869927Y-124506491D01*
X154869931Y-124506491D01*
X154869932Y-124506492D01*
X154916560Y-124514713D01*
X155102115Y-124547432D01*
X155337883Y-124547432D01*
X155337885Y-124547432D01*
X155570073Y-124506491D01*
X155791624Y-124425852D01*
X155995807Y-124307967D01*
X156176417Y-124156417D01*
X156327967Y-123975807D01*
X156445852Y-123771624D01*
X156526491Y-123550073D01*
X156567432Y-123317885D01*
X156570000Y-123200000D01*
X156567432Y-123082115D01*
X156526491Y-122849927D01*
X156445852Y-122628376D01*
X156327967Y-122424193D01*
X156327965Y-122424191D01*
X156327965Y-122424190D01*
X156276296Y-122362614D01*
X156176417Y-122243583D01*
X156076536Y-122159773D01*
X155995809Y-122092034D01*
X155995805Y-122092032D01*
X155791628Y-121974150D01*
X155791625Y-121974149D01*
X155791624Y-121974148D01*
X155570073Y-121893509D01*
X155570072Y-121893508D01*
X155570067Y-121893507D01*
X155337887Y-121852568D01*
X155337885Y-121852568D01*
X155102115Y-121852568D01*
X155102112Y-121852568D01*
X154869932Y-121893507D01*
X154648378Y-121974147D01*
X154648371Y-121974150D01*
X154444194Y-122092032D01*
X154444190Y-122092034D01*
X154263583Y-122243583D01*
X154112034Y-122424190D01*
X154112032Y-122424194D01*
X153994150Y-122628371D01*
X153994147Y-122628378D01*
X153913507Y-122849932D01*
X153872568Y-123082112D01*
X153872568Y-123317887D01*
X121890500Y-123317887D01*
X121890500Y-117712230D01*
X121910185Y-117645191D01*
X121926819Y-117624549D01*
X127314549Y-112236819D01*
X127375872Y-112203334D01*
X127402230Y-112200500D01*
X141683920Y-112200500D01*
X141781462Y-112181096D01*
X141828913Y-112171658D01*
X141965495Y-112115084D01*
X142014729Y-112082186D01*
X142088416Y-112032952D01*
X146812952Y-107308415D01*
X146840205Y-107267627D01*
X146895084Y-107185495D01*
X146895087Y-107185488D01*
X146918518Y-107128921D01*
X146918518Y-107128920D01*
X146951659Y-107048912D01*
X146980500Y-106903917D01*
X146980500Y-106756082D01*
X146980500Y-105254499D01*
X147000185Y-105187460D01*
X147052989Y-105141705D01*
X147104500Y-105130499D01*
X147127871Y-105130499D01*
X147127872Y-105130499D01*
X147187483Y-105124091D01*
X147322331Y-105073796D01*
X147437546Y-104987546D01*
X147523796Y-104872331D01*
X147574091Y-104737483D01*
X147580500Y-104677873D01*
X147580499Y-102882128D01*
X147575299Y-102833757D01*
X147574091Y-102822516D01*
X147523797Y-102687671D01*
X147523793Y-102687664D01*
X147437547Y-102572455D01*
X147437544Y-102572452D01*
X147322335Y-102486206D01*
X147322328Y-102486202D01*
X147190917Y-102437189D01*
X147134983Y-102395318D01*
X147110566Y-102329853D01*
X147125418Y-102261580D01*
X147146563Y-102233332D01*
X147268495Y-102111401D01*
X147404035Y-101917830D01*
X147503903Y-101703663D01*
X147565063Y-101475408D01*
X147585659Y-101240000D01*
X147565063Y-101004592D01*
X147503903Y-100776337D01*
X147404035Y-100562171D01*
X147397932Y-100553454D01*
X147268494Y-100368597D01*
X147101402Y-100201506D01*
X147101396Y-100201501D01*
X146915842Y-100071575D01*
X146872217Y-100016998D01*
X146865023Y-99947500D01*
X146896546Y-99885145D01*
X146915842Y-99868425D01*
X147040573Y-99781087D01*
X147101401Y-99738495D01*
X147268495Y-99571401D01*
X147404035Y-99377830D01*
X147503903Y-99163663D01*
X147565063Y-98935408D01*
X147585659Y-98700000D01*
X147565063Y-98464592D01*
X147503903Y-98236337D01*
X147404035Y-98022171D01*
X147329908Y-97916305D01*
X147268494Y-97828597D01*
X147101402Y-97661506D01*
X147101396Y-97661501D01*
X146915842Y-97531575D01*
X146872217Y-97476998D01*
X146865023Y-97407500D01*
X146896546Y-97345145D01*
X146915842Y-97328425D01*
X146938026Y-97312891D01*
X147101401Y-97198495D01*
X147268495Y-97031401D01*
X147404035Y-96837830D01*
X147503903Y-96623663D01*
X147565063Y-96395408D01*
X147585659Y-96160000D01*
X147565063Y-95924592D01*
X147503903Y-95696337D01*
X147404035Y-95482171D01*
X147398238Y-95473891D01*
X147268494Y-95288597D01*
X147101402Y-95121506D01*
X147101401Y-95121505D01*
X146915405Y-94991269D01*
X146871781Y-94936692D01*
X146864588Y-94867193D01*
X146896110Y-94804839D01*
X146915405Y-94788119D01*
X147101082Y-94658105D01*
X147268105Y-94491082D01*
X147403600Y-94297578D01*
X147503429Y-94083492D01*
X147503432Y-94083486D01*
X147560636Y-93870000D01*
X146663012Y-93870000D01*
X146695925Y-93812993D01*
X146730000Y-93685826D01*
X146730000Y-93554174D01*
X146695925Y-93427007D01*
X146663012Y-93370000D01*
X147560636Y-93370000D01*
X147560635Y-93369999D01*
X147503432Y-93156513D01*
X147503429Y-93156507D01*
X147403600Y-92942422D01*
X147403599Y-92942420D01*
X147268113Y-92748926D01*
X147268108Y-92748920D01*
X147101082Y-92581894D01*
X146907578Y-92446399D01*
X146693492Y-92346570D01*
X146693486Y-92346567D01*
X146480000Y-92289364D01*
X146480000Y-93186988D01*
X146422993Y-93154075D01*
X146295826Y-93120000D01*
X146164174Y-93120000D01*
X146037007Y-93154075D01*
X145980000Y-93186988D01*
X145980000Y-92289364D01*
X145979999Y-92289364D01*
X145766513Y-92346567D01*
X145766507Y-92346570D01*
X145552422Y-92446399D01*
X145552420Y-92446400D01*
X145358926Y-92581886D01*
X145358920Y-92581891D01*
X145191891Y-92748920D01*
X145191886Y-92748926D01*
X145056400Y-92942420D01*
X145056399Y-92942422D01*
X144956570Y-93156507D01*
X144956567Y-93156513D01*
X144899364Y-93369999D01*
X144899364Y-93370000D01*
X145796988Y-93370000D01*
X145764075Y-93427007D01*
X145730000Y-93554174D01*
X145730000Y-93685826D01*
X145764075Y-93812993D01*
X145796988Y-93870000D01*
X144899364Y-93870000D01*
X144956567Y-94083486D01*
X144956570Y-94083492D01*
X145056399Y-94297578D01*
X145191894Y-94491082D01*
X145358917Y-94658105D01*
X145544595Y-94788119D01*
X145588219Y-94842696D01*
X145595412Y-94912195D01*
X145563890Y-94974549D01*
X145544595Y-94991269D01*
X145358594Y-95121508D01*
X145191505Y-95288597D01*
X145055965Y-95482169D01*
X145055964Y-95482171D01*
X144956098Y-95696335D01*
X144956094Y-95696344D01*
X144894938Y-95924586D01*
X144894936Y-95924596D01*
X144874341Y-96159999D01*
X144874341Y-96160000D01*
X144894936Y-96395403D01*
X144894938Y-96395413D01*
X144956094Y-96623655D01*
X144956096Y-96623659D01*
X144956097Y-96623663D01*
X145031244Y-96784815D01*
X145055965Y-96837830D01*
X145055967Y-96837834D01*
X145164281Y-96992521D01*
X145187325Y-97025432D01*
X145191501Y-97031395D01*
X145191506Y-97031402D01*
X145358597Y-97198493D01*
X145358603Y-97198498D01*
X145544158Y-97328425D01*
X145587783Y-97383002D01*
X145594977Y-97452500D01*
X145563454Y-97514855D01*
X145544158Y-97531575D01*
X145358597Y-97661505D01*
X145191505Y-97828597D01*
X145055965Y-98022169D01*
X145055964Y-98022171D01*
X144956098Y-98236335D01*
X144956094Y-98236344D01*
X144894938Y-98464586D01*
X144894936Y-98464596D01*
X144874341Y-98699999D01*
X144874341Y-98700001D01*
X144892977Y-98913013D01*
X144879210Y-98981513D01*
X144857130Y-99011501D01*
X144347050Y-99521580D01*
X144347044Y-99521588D01*
X144297812Y-99595268D01*
X144297813Y-99595269D01*
X144264921Y-99644496D01*
X144264914Y-99644508D01*
X144208342Y-99781086D01*
X144208340Y-99781092D01*
X144179500Y-99926079D01*
X144179500Y-103068597D01*
X144159815Y-103135636D01*
X144143181Y-103156278D01*
X141702865Y-105596593D01*
X141641542Y-105630078D01*
X141571850Y-105625094D01*
X141515917Y-105583222D01*
X141497478Y-105547916D01*
X141487003Y-105516303D01*
X141486999Y-105516297D01*
X141486998Y-105516294D01*
X141397970Y-105371959D01*
X141397967Y-105371955D01*
X141389273Y-105363261D01*
X141355788Y-105301938D01*
X141352954Y-105275257D01*
X141354952Y-104522091D01*
X141374815Y-104455105D01*
X141391266Y-104434745D01*
X141397968Y-104428044D01*
X141487003Y-104283697D01*
X141540349Y-104122708D01*
X141550500Y-104023345D01*
X141550499Y-103176656D01*
X141548417Y-103156278D01*
X141540349Y-103077292D01*
X141540348Y-103077289D01*
X141517124Y-103007203D01*
X141487003Y-102916303D01*
X141486999Y-102916297D01*
X141486998Y-102916294D01*
X141397970Y-102771959D01*
X141397967Y-102771955D01*
X141396151Y-102770139D01*
X141395302Y-102768585D01*
X141393490Y-102766293D01*
X141393881Y-102765983D01*
X141362666Y-102708816D01*
X141359832Y-102682135D01*
X141361867Y-101915176D01*
X141381730Y-101848190D01*
X141395990Y-101830543D01*
X141397962Y-101828049D01*
X141397968Y-101828044D01*
X141487003Y-101683697D01*
X141540349Y-101522708D01*
X141550500Y-101423345D01*
X141550499Y-100576656D01*
X141549019Y-100562171D01*
X141540349Y-100477292D01*
X141540348Y-100477289D01*
X141487003Y-100316303D01*
X141486999Y-100316297D01*
X141486998Y-100316294D01*
X141397970Y-100171959D01*
X141393490Y-100166293D01*
X141396062Y-100164258D01*
X141369545Y-100115695D01*
X141366711Y-100089014D01*
X141368438Y-99437798D01*
X141386901Y-99373029D01*
X141442001Y-99283701D01*
X141442001Y-99283699D01*
X141442003Y-99283697D01*
X141495349Y-99122708D01*
X141505500Y-99023345D01*
X141505499Y-98856420D01*
X141506178Y-98843459D01*
X141520730Y-98705000D01*
X141525460Y-98660000D01*
X141506177Y-98476533D01*
X141505499Y-98463584D01*
X141505499Y-98176662D01*
X141505498Y-98176644D01*
X141495349Y-98077292D01*
X141495348Y-98077289D01*
X141488128Y-98055500D01*
X141442003Y-97916303D01*
X141441999Y-97916297D01*
X141441998Y-97916294D01*
X141352970Y-97771959D01*
X141352967Y-97771955D01*
X141233044Y-97652032D01*
X141233040Y-97652029D01*
X141088705Y-97563001D01*
X141088699Y-97562998D01*
X141088697Y-97562997D01*
X141088694Y-97562996D01*
X140927709Y-97509651D01*
X140828346Y-97499500D01*
X140281662Y-97499500D01*
X140281644Y-97499501D01*
X140182292Y-97509650D01*
X140182289Y-97509651D01*
X140021305Y-97562996D01*
X140021294Y-97563001D01*
X139876959Y-97652029D01*
X139876955Y-97652032D01*
X139757032Y-97771955D01*
X139757029Y-97771959D01*
X139668001Y-97916294D01*
X139667996Y-97916305D01*
X139614651Y-98077290D01*
X139604500Y-98176647D01*
X139604500Y-99023337D01*
X139604501Y-99023355D01*
X139614650Y-99122707D01*
X139614651Y-99122710D01*
X139667996Y-99283694D01*
X139668001Y-99283705D01*
X139757029Y-99428040D01*
X139757032Y-99428044D01*
X139830712Y-99501724D01*
X139864197Y-99563047D01*
X139867031Y-99589734D01*
X139865790Y-100057162D01*
X139845927Y-100124149D01*
X139829474Y-100144512D01*
X139802031Y-100171956D01*
X139802030Y-100171956D01*
X139713001Y-100316294D01*
X139712996Y-100316305D01*
X139659651Y-100477290D01*
X139649500Y-100576647D01*
X139649500Y-101423337D01*
X139649501Y-101423355D01*
X139659650Y-101522707D01*
X139659651Y-101522710D01*
X139712996Y-101683694D01*
X139713001Y-101683705D01*
X139802029Y-101828040D01*
X139802032Y-101828044D01*
X139824482Y-101850494D01*
X139857967Y-101911817D01*
X139860801Y-101938504D01*
X139858876Y-102664077D01*
X139839013Y-102731064D01*
X139822559Y-102751428D01*
X139802030Y-102771956D01*
X139713001Y-102916294D01*
X139712996Y-102916305D01*
X139659651Y-103077290D01*
X139649500Y-103176647D01*
X139649500Y-104023337D01*
X139649501Y-104023355D01*
X139659650Y-104122707D01*
X139659651Y-104122710D01*
X139712996Y-104283694D01*
X139713001Y-104283705D01*
X139802029Y-104428040D01*
X139802032Y-104428044D01*
X139817603Y-104443615D01*
X139851088Y-104504938D01*
X139853922Y-104531625D01*
X139851961Y-105270992D01*
X139832098Y-105337979D01*
X139815645Y-105358342D01*
X139802031Y-105371956D01*
X139802030Y-105371956D01*
X139713001Y-105516294D01*
X139712996Y-105516305D01*
X139659651Y-105677290D01*
X139649500Y-105776647D01*
X139649500Y-105776655D01*
X139649500Y-106125450D01*
X139649501Y-106375500D01*
X139629817Y-106442539D01*
X139577013Y-106488294D01*
X139525501Y-106499500D01*
X138712229Y-106499500D01*
X138645190Y-106479815D01*
X138624548Y-106463181D01*
X138286818Y-106125450D01*
X138253333Y-106064127D01*
X138250499Y-106037769D01*
X138250499Y-105776662D01*
X138250498Y-105776644D01*
X138240349Y-105677292D01*
X138240348Y-105677289D01*
X138213608Y-105596593D01*
X138187003Y-105516303D01*
X138186999Y-105516297D01*
X138186998Y-105516294D01*
X138097970Y-105371959D01*
X138097967Y-105371955D01*
X137978044Y-105252032D01*
X137978040Y-105252029D01*
X137833705Y-105163001D01*
X137833699Y-105162998D01*
X137833697Y-105162997D01*
X137784872Y-105146818D01*
X137672709Y-105109651D01*
X137573346Y-105099500D01*
X137026662Y-105099500D01*
X137026644Y-105099501D01*
X136927292Y-105109650D01*
X136927289Y-105109651D01*
X136766305Y-105162996D01*
X136766294Y-105163001D01*
X136621959Y-105252029D01*
X136621955Y-105252032D01*
X136502032Y-105371955D01*
X136502029Y-105371959D01*
X136413001Y-105516294D01*
X136412996Y-105516305D01*
X136359651Y-105677290D01*
X136349500Y-105776647D01*
X136349500Y-106623337D01*
X136349501Y-106623355D01*
X136359650Y-106722707D01*
X136359651Y-106722710D01*
X136412996Y-106883694D01*
X136413001Y-106883705D01*
X136502029Y-107028040D01*
X136502032Y-107028044D01*
X136621955Y-107147967D01*
X136621959Y-107147970D01*
X136766294Y-107236998D01*
X136766297Y-107236999D01*
X136766303Y-107237003D01*
X136927292Y-107290349D01*
X137026655Y-107300500D01*
X137287769Y-107300499D01*
X137354808Y-107320183D01*
X137375450Y-107336818D01*
X137767049Y-107728416D01*
X137871583Y-107832950D01*
X137871585Y-107832952D01*
X137994498Y-107915080D01*
X137994511Y-107915087D01*
X138131082Y-107971656D01*
X138131087Y-107971658D01*
X138131091Y-107971658D01*
X138131092Y-107971659D01*
X138276079Y-108000500D01*
X138276082Y-108000500D01*
X141184748Y-108000500D01*
X141282290Y-107981096D01*
X141329741Y-107971658D01*
X141466323Y-107915084D01*
X141515557Y-107882186D01*
X141589244Y-107832952D01*
X144694819Y-104727375D01*
X144756140Y-104693892D01*
X144825832Y-104698876D01*
X144881765Y-104740748D01*
X144898680Y-104771725D01*
X144936202Y-104872328D01*
X144936206Y-104872335D01*
X145022452Y-104987544D01*
X145022455Y-104987547D01*
X145137664Y-105073793D01*
X145137671Y-105073797D01*
X145151077Y-105078797D01*
X145272517Y-105124091D01*
X145332127Y-105130500D01*
X145355497Y-105130499D01*
X145422536Y-105150181D01*
X145468292Y-105202983D01*
X145479500Y-105254499D01*
X145479500Y-106467770D01*
X145459815Y-106534809D01*
X145443181Y-106555451D01*
X141335451Y-110663181D01*
X141274128Y-110696666D01*
X141247770Y-110699500D01*
X124892229Y-110699500D01*
X124825190Y-110679815D01*
X124804548Y-110663181D01*
X122641375Y-108500008D01*
X125000000Y-108500008D01*
X125002311Y-108617866D01*
X125039190Y-108850710D01*
X125112036Y-109074910D01*
X125112038Y-109074913D01*
X125219062Y-109284960D01*
X125357628Y-109475678D01*
X125524322Y-109642372D01*
X125715040Y-109780938D01*
X125925087Y-109887962D01*
X125925089Y-109887963D01*
X126037189Y-109924386D01*
X126149291Y-109960810D01*
X126382129Y-109997688D01*
X126418397Y-109998399D01*
X126499991Y-110000000D01*
X133500000Y-110000000D01*
X133500009Y-110000000D01*
X133575774Y-109998513D01*
X133617871Y-109997688D01*
X133850709Y-109960810D01*
X134074913Y-109887962D01*
X134284960Y-109780938D01*
X134475678Y-109642372D01*
X134642372Y-109475678D01*
X134780938Y-109284960D01*
X134887962Y-109074913D01*
X134960810Y-108850709D01*
X134997688Y-108617871D01*
X135000000Y-108500000D01*
X135000000Y-91500000D01*
X134997688Y-91382129D01*
X134960810Y-91149291D01*
X134887962Y-90925087D01*
X134780938Y-90715040D01*
X134642372Y-90524322D01*
X134475678Y-90357628D01*
X134284960Y-90219062D01*
X134074913Y-90112038D01*
X134074910Y-90112036D01*
X133850710Y-90039190D01*
X133617866Y-90002311D01*
X133500009Y-90000000D01*
X133500000Y-90000000D01*
X126500000Y-90000000D01*
X126499991Y-90000000D01*
X126382133Y-90002311D01*
X126149289Y-90039190D01*
X125925089Y-90112036D01*
X125925086Y-90112038D01*
X125715039Y-90219062D01*
X125524320Y-90357629D01*
X125357629Y-90524320D01*
X125219062Y-90715039D01*
X125112038Y-90925086D01*
X125112036Y-90925089D01*
X125039190Y-91149289D01*
X125002311Y-91382133D01*
X125000000Y-91499991D01*
X125000000Y-108500008D01*
X122641375Y-108500008D01*
X118959919Y-104818551D01*
X118926434Y-104757228D01*
X118931418Y-104687536D01*
X118934660Y-104679798D01*
X118948841Y-104637003D01*
X118989999Y-104512797D01*
X119000500Y-104410009D01*
X119000499Y-103522228D01*
X119020183Y-103455190D01*
X119036813Y-103434553D01*
X121722951Y-100748416D01*
X121805084Y-100625495D01*
X121861658Y-100488913D01*
X121884596Y-100373599D01*
X121890500Y-100343920D01*
X121890500Y-71534499D01*
X121910185Y-71467460D01*
X121962989Y-71421705D01*
X122014500Y-71410499D01*
X122037871Y-71410499D01*
X122037872Y-71410499D01*
X122097483Y-71404091D01*
X122097486Y-71404089D01*
X122100565Y-71403363D01*
X122103028Y-71403494D01*
X122105196Y-71403262D01*
X122105233Y-71403613D01*
X122170335Y-71407100D01*
X122216767Y-71436357D01*
X136593181Y-85812771D01*
X136626666Y-85874094D01*
X136629500Y-85900452D01*
X136629500Y-97550452D01*
X136609815Y-97617491D01*
X136582410Y-97647719D01*
X136576958Y-97652029D01*
X136457029Y-97771959D01*
X136368001Y-97916294D01*
X136367996Y-97916305D01*
X136314651Y-98077290D01*
X136304500Y-98176647D01*
X136304500Y-99023337D01*
X136304501Y-99023355D01*
X136314650Y-99122707D01*
X136314651Y-99122710D01*
X136367996Y-99283694D01*
X136368001Y-99283705D01*
X136457029Y-99428040D01*
X136457032Y-99428044D01*
X136576955Y-99547967D01*
X136576959Y-99547970D01*
X136721294Y-99636998D01*
X136721297Y-99636999D01*
X136721303Y-99637003D01*
X136880482Y-99689749D01*
X136937927Y-99729521D01*
X136964750Y-99794037D01*
X136952435Y-99862813D01*
X136904892Y-99914013D01*
X136880483Y-99925161D01*
X136766303Y-99962997D01*
X136766294Y-99963001D01*
X136621959Y-100052029D01*
X136621955Y-100052032D01*
X136502032Y-100171955D01*
X136502029Y-100171959D01*
X136413001Y-100316294D01*
X136412996Y-100316305D01*
X136359651Y-100477290D01*
X136349500Y-100576647D01*
X136349500Y-101423337D01*
X136349501Y-101423355D01*
X136359650Y-101522707D01*
X136359651Y-101522710D01*
X136412996Y-101683694D01*
X136413001Y-101683705D01*
X136502029Y-101828040D01*
X136502032Y-101828044D01*
X136621955Y-101947967D01*
X136621959Y-101947970D01*
X136766294Y-102036998D01*
X136766297Y-102036999D01*
X136766303Y-102037003D01*
X136927292Y-102090349D01*
X137026655Y-102100500D01*
X137325500Y-102100499D01*
X137392539Y-102120183D01*
X137438294Y-102172987D01*
X137449500Y-102224499D01*
X137449500Y-102337770D01*
X137429815Y-102404809D01*
X137413180Y-102425452D01*
X137375449Y-102463182D01*
X137314125Y-102496667D01*
X137287769Y-102499500D01*
X137026663Y-102499500D01*
X137026644Y-102499501D01*
X136927292Y-102509650D01*
X136927289Y-102509651D01*
X136766305Y-102562996D01*
X136766294Y-102563001D01*
X136621959Y-102652029D01*
X136621955Y-102652032D01*
X136502032Y-102771955D01*
X136502029Y-102771959D01*
X136413001Y-102916294D01*
X136412996Y-102916305D01*
X136359651Y-103077290D01*
X136349500Y-103176647D01*
X136349500Y-104023337D01*
X136349501Y-104023355D01*
X136359650Y-104122707D01*
X136359651Y-104122710D01*
X136412996Y-104283694D01*
X136413001Y-104283705D01*
X136502029Y-104428040D01*
X136502032Y-104428044D01*
X136621955Y-104547967D01*
X136621959Y-104547970D01*
X136766294Y-104636998D01*
X136766297Y-104636999D01*
X136766303Y-104637003D01*
X136927292Y-104690349D01*
X137026655Y-104700500D01*
X137573344Y-104700499D01*
X137573352Y-104700498D01*
X137573355Y-104700498D01*
X137627760Y-104694940D01*
X137672708Y-104690349D01*
X137833697Y-104637003D01*
X137978044Y-104547968D01*
X138097968Y-104428044D01*
X138187003Y-104283697D01*
X138240349Y-104122708D01*
X138250500Y-104023345D01*
X138250499Y-103762227D01*
X138270183Y-103695189D01*
X138286809Y-103674556D01*
X138782951Y-103178416D01*
X138865084Y-103055495D01*
X138921658Y-102918913D01*
X138939838Y-102827517D01*
X138950500Y-102773920D01*
X138950500Y-81966079D01*
X138921659Y-81821092D01*
X138921658Y-81821091D01*
X138921658Y-81821087D01*
X138921656Y-81821082D01*
X138865087Y-81684511D01*
X138865080Y-81684498D01*
X138782952Y-81561585D01*
X138782951Y-81561584D01*
X138678416Y-81457049D01*
X131539255Y-74317887D01*
X153872568Y-74317887D01*
X153913507Y-74550067D01*
X153994147Y-74771621D01*
X153994150Y-74771628D01*
X154112032Y-74975805D01*
X154112034Y-74975809D01*
X154179773Y-75056536D01*
X154263583Y-75156417D01*
X154382614Y-75256296D01*
X154444190Y-75307965D01*
X154444191Y-75307965D01*
X154444193Y-75307967D01*
X154648376Y-75425852D01*
X154869927Y-75506491D01*
X154869931Y-75506491D01*
X154869932Y-75506492D01*
X154916560Y-75514713D01*
X155102115Y-75547432D01*
X155337883Y-75547432D01*
X155337885Y-75547432D01*
X155570073Y-75506491D01*
X155791624Y-75425852D01*
X155995807Y-75307967D01*
X156176417Y-75156417D01*
X156327967Y-74975807D01*
X156445852Y-74771624D01*
X156526491Y-74550073D01*
X156567432Y-74317885D01*
X156570000Y-74200000D01*
X156567432Y-74082115D01*
X156526491Y-73849927D01*
X156445852Y-73628376D01*
X156327967Y-73424193D01*
X156327965Y-73424191D01*
X156327965Y-73424190D01*
X156276296Y-73362614D01*
X156176417Y-73243583D01*
X156076536Y-73159773D01*
X155995809Y-73092034D01*
X155995805Y-73092032D01*
X155791628Y-72974150D01*
X155791625Y-72974149D01*
X155791624Y-72974148D01*
X155570073Y-72893509D01*
X155570072Y-72893508D01*
X155570067Y-72893507D01*
X155337887Y-72852568D01*
X155337885Y-72852568D01*
X155102115Y-72852568D01*
X155102112Y-72852568D01*
X154869932Y-72893507D01*
X154648378Y-72974147D01*
X154648371Y-72974150D01*
X154444194Y-73092032D01*
X154444190Y-73092034D01*
X154263583Y-73243583D01*
X154112034Y-73424190D01*
X154112032Y-73424194D01*
X153994150Y-73628371D01*
X153994147Y-73628378D01*
X153913507Y-73849932D01*
X153872568Y-74082112D01*
X153872568Y-74317887D01*
X131539255Y-74317887D01*
X128834952Y-71613584D01*
X128801467Y-71552261D01*
X128806451Y-71482569D01*
X128848323Y-71426636D01*
X128911823Y-71402375D01*
X128995408Y-71395063D01*
X129223663Y-71333903D01*
X129437830Y-71234035D01*
X129631401Y-71098495D01*
X129798495Y-70931401D01*
X129928730Y-70745405D01*
X129983307Y-70701781D01*
X130052805Y-70694587D01*
X130115160Y-70726110D01*
X130131879Y-70745405D01*
X130261890Y-70931078D01*
X130428917Y-71098105D01*
X130622421Y-71233600D01*
X130836507Y-71333429D01*
X130836516Y-71333433D01*
X131050000Y-71390634D01*
X131050000Y-70493012D01*
X131107007Y-70525925D01*
X131234174Y-70560000D01*
X131365826Y-70560000D01*
X131492993Y-70525925D01*
X131550000Y-70493012D01*
X131550000Y-71390633D01*
X131763483Y-71333433D01*
X131763492Y-71333429D01*
X131977578Y-71233600D01*
X132171082Y-71098105D01*
X132338105Y-70931082D01*
X132411872Y-70825734D01*
X136622466Y-70825734D01*
X136661801Y-71074090D01*
X136739508Y-71313244D01*
X136853668Y-71537293D01*
X137001463Y-71740717D01*
X137001467Y-71740722D01*
X137179277Y-71918532D01*
X137179282Y-71918536D01*
X137356720Y-72047451D01*
X137382710Y-72066334D01*
X137525474Y-72139076D01*
X137606755Y-72180491D01*
X137606757Y-72180491D01*
X137606760Y-72180493D01*
X137734949Y-72222144D01*
X137845909Y-72258198D01*
X138094266Y-72297534D01*
X138345729Y-72297534D01*
X138345734Y-72297534D01*
X138594090Y-72258198D01*
X138833240Y-72180493D01*
X139057290Y-72066334D01*
X139260724Y-71918531D01*
X139438531Y-71740724D01*
X139586334Y-71537290D01*
X139700493Y-71313240D01*
X139778198Y-71074090D01*
X139817534Y-70825729D01*
X139820000Y-70700000D01*
X139817534Y-70574271D01*
X139778198Y-70325910D01*
X139700493Y-70086760D01*
X139700491Y-70086757D01*
X139700491Y-70086755D01*
X139649196Y-69986084D01*
X139586334Y-69862710D01*
X139547099Y-69808708D01*
X139438536Y-69659282D01*
X139438532Y-69659277D01*
X139260722Y-69481467D01*
X139260717Y-69481463D01*
X139057293Y-69333668D01*
X139057292Y-69333667D01*
X139057290Y-69333666D01*
X138987322Y-69298015D01*
X138833244Y-69219508D01*
X138594090Y-69141801D01*
X138345734Y-69102466D01*
X138345729Y-69102466D01*
X138094271Y-69102466D01*
X138094266Y-69102466D01*
X137845909Y-69141801D01*
X137606755Y-69219508D01*
X137382706Y-69333668D01*
X137179282Y-69481463D01*
X137179277Y-69481467D01*
X137001467Y-69659277D01*
X137001463Y-69659282D01*
X136853668Y-69862706D01*
X136739508Y-70086755D01*
X136661801Y-70325909D01*
X136622466Y-70574265D01*
X136622466Y-70825734D01*
X132411872Y-70825734D01*
X132473600Y-70737578D01*
X132573429Y-70523492D01*
X132573432Y-70523486D01*
X132630636Y-70310000D01*
X131733012Y-70310000D01*
X131765925Y-70252993D01*
X131800000Y-70125826D01*
X131800000Y-69994174D01*
X131765925Y-69867007D01*
X131733012Y-69810000D01*
X132630636Y-69810000D01*
X132630635Y-69809999D01*
X132573432Y-69596513D01*
X132573429Y-69596507D01*
X132473600Y-69382422D01*
X132473599Y-69382420D01*
X132338113Y-69188926D01*
X132338108Y-69188920D01*
X132171082Y-69021894D01*
X131977578Y-68886399D01*
X131763492Y-68786570D01*
X131763486Y-68786567D01*
X131550000Y-68729364D01*
X131550000Y-69626988D01*
X131492993Y-69594075D01*
X131365826Y-69560000D01*
X131234174Y-69560000D01*
X131107007Y-69594075D01*
X131050000Y-69626988D01*
X131050000Y-68729364D01*
X131049999Y-68729364D01*
X130836513Y-68786567D01*
X130836507Y-68786570D01*
X130622422Y-68886399D01*
X130622420Y-68886400D01*
X130428926Y-69021886D01*
X130428920Y-69021891D01*
X130261891Y-69188920D01*
X130261890Y-69188922D01*
X130131880Y-69374595D01*
X130077303Y-69418219D01*
X130007804Y-69425412D01*
X129945450Y-69393890D01*
X129928730Y-69374594D01*
X129798494Y-69188597D01*
X129631402Y-69021506D01*
X129631395Y-69021501D01*
X129437834Y-68885967D01*
X129437830Y-68885965D01*
X129321349Y-68831649D01*
X129223663Y-68786097D01*
X129223659Y-68786096D01*
X129223655Y-68786094D01*
X128995413Y-68724938D01*
X128995403Y-68724936D01*
X128760001Y-68704341D01*
X128759999Y-68704341D01*
X128524596Y-68724936D01*
X128524586Y-68724938D01*
X128296344Y-68786094D01*
X128296335Y-68786098D01*
X128082171Y-68885964D01*
X128082169Y-68885965D01*
X127888597Y-69021505D01*
X127721505Y-69188597D01*
X127591575Y-69374158D01*
X127536998Y-69417783D01*
X127467500Y-69424977D01*
X127405145Y-69393454D01*
X127388425Y-69374158D01*
X127258494Y-69188597D01*
X127091402Y-69021506D01*
X127091395Y-69021501D01*
X126897834Y-68885967D01*
X126897830Y-68885965D01*
X126781349Y-68831649D01*
X126683663Y-68786097D01*
X126683659Y-68786096D01*
X126683655Y-68786094D01*
X126455413Y-68724938D01*
X126455403Y-68724936D01*
X126220001Y-68704341D01*
X126219999Y-68704341D01*
X125984596Y-68724936D01*
X125984586Y-68724938D01*
X125756344Y-68786094D01*
X125756335Y-68786098D01*
X125542171Y-68885964D01*
X125542169Y-68885965D01*
X125348597Y-69021505D01*
X125181505Y-69188597D01*
X125051575Y-69374158D01*
X124996998Y-69417783D01*
X124927500Y-69424977D01*
X124865145Y-69393454D01*
X124848425Y-69374158D01*
X124718494Y-69188597D01*
X124551402Y-69021506D01*
X124551395Y-69021501D01*
X124357834Y-68885967D01*
X124357830Y-68885965D01*
X124241349Y-68831649D01*
X124143663Y-68786097D01*
X124143659Y-68786096D01*
X124143655Y-68786094D01*
X123915413Y-68724938D01*
X123915403Y-68724936D01*
X123680001Y-68704341D01*
X123679999Y-68704341D01*
X123444596Y-68724936D01*
X123444586Y-68724938D01*
X123216344Y-68786094D01*
X123216330Y-68786099D01*
X123118649Y-68831649D01*
X123049572Y-68842141D01*
X122985788Y-68813621D01*
X122947549Y-68755144D01*
X122944628Y-68743458D01*
X122941464Y-68727555D01*
X122941463Y-68727548D01*
X122894311Y-68613714D01*
X122894310Y-68613713D01*
X122894307Y-68613707D01*
X122825858Y-68511267D01*
X122825855Y-68511263D01*
X122735637Y-68421045D01*
X122735606Y-68421016D01*
X122660198Y-68345608D01*
X122660178Y-68345586D01*
X122568733Y-68254141D01*
X122517509Y-68219915D01*
X122466287Y-68185689D01*
X122466286Y-68185688D01*
X122466283Y-68185686D01*
X122466280Y-68185685D01*
X122385792Y-68152347D01*
X122352453Y-68138537D01*
X122342427Y-68136543D01*
X122292029Y-68126518D01*
X122231610Y-68114500D01*
X122231607Y-68114500D01*
X122231606Y-68114500D01*
X120257741Y-68114500D01*
X120257721Y-68114499D01*
X120251607Y-68114499D01*
X120128394Y-68114499D01*
X120027597Y-68134548D01*
X120027592Y-68134548D01*
X120007549Y-68138536D01*
X120007547Y-68138536D01*
X119960397Y-68158067D01*
X119893719Y-68185685D01*
X119893717Y-68185686D01*
X119791266Y-68254141D01*
X119791263Y-68254144D01*
X118426269Y-69619140D01*
X118339144Y-69706264D01*
X118339138Y-69706272D01*
X118270690Y-69808708D01*
X118270688Y-69808713D01*
X118223540Y-69922538D01*
X118223535Y-69922554D01*
X118210899Y-69986084D01*
X118199500Y-70043389D01*
X118199500Y-94728014D01*
X118179815Y-94795053D01*
X118127011Y-94840808D01*
X118057853Y-94850752D01*
X118043407Y-94847789D01*
X117885326Y-94805432D01*
X117885315Y-94805430D01*
X117650002Y-94784843D01*
X117649998Y-94784843D01*
X117414684Y-94805430D01*
X117414673Y-94805432D01*
X117186516Y-94866566D01*
X117186507Y-94866570D01*
X116972419Y-94966401D01*
X116888625Y-95025072D01*
X117520590Y-95657037D01*
X117457007Y-95674075D01*
X117342993Y-95739901D01*
X117249901Y-95832993D01*
X117184075Y-95947007D01*
X117167037Y-96010590D01*
X116535073Y-95378626D01*
X116481881Y-95454594D01*
X116427304Y-95498219D01*
X116357806Y-95505413D01*
X116295451Y-95473891D01*
X116278730Y-95454594D01*
X116148494Y-95268597D01*
X115981402Y-95101506D01*
X115981395Y-95101501D01*
X115787834Y-94965967D01*
X115787830Y-94965965D01*
X115787828Y-94965964D01*
X115573663Y-94866097D01*
X115573659Y-94866096D01*
X115573655Y-94866094D01*
X115345413Y-94804938D01*
X115345403Y-94804936D01*
X115110001Y-94784341D01*
X115109999Y-94784341D01*
X114874596Y-94804936D01*
X114874586Y-94804938D01*
X114646344Y-94866094D01*
X114646335Y-94866098D01*
X114432171Y-94965964D01*
X114432169Y-94965965D01*
X114238597Y-95101505D01*
X114071505Y-95268597D01*
X113935965Y-95462169D01*
X113935964Y-95462171D01*
X113836098Y-95676335D01*
X113836094Y-95676344D01*
X113774938Y-95904586D01*
X113774936Y-95904596D01*
X113754341Y-96139999D01*
X113754341Y-96140000D01*
X113774936Y-96375403D01*
X113774938Y-96375413D01*
X113836094Y-96603655D01*
X113836096Y-96603659D01*
X113836097Y-96603663D01*
X113845423Y-96623663D01*
X113847490Y-96628095D01*
X113857982Y-96697173D01*
X113829462Y-96760957D01*
X113770986Y-96799196D01*
X113735108Y-96804500D01*
X107606550Y-96804500D01*
X107539511Y-96784815D01*
X107493756Y-96732011D01*
X107483812Y-96662853D01*
X107492441Y-96633885D01*
X107492053Y-96633744D01*
X107493898Y-96628671D01*
X107493903Y-96628663D01*
X107555063Y-96400408D01*
X107575659Y-96165000D01*
X107575221Y-96159999D01*
X107571166Y-96113642D01*
X107555063Y-95929592D01*
X107493903Y-95701337D01*
X107394035Y-95487171D01*
X107384737Y-95473891D01*
X107258494Y-95293597D01*
X107091402Y-95126506D01*
X107091401Y-95126505D01*
X106905405Y-94996269D01*
X106861781Y-94941692D01*
X106854588Y-94872193D01*
X106886110Y-94809839D01*
X106905405Y-94793119D01*
X107091082Y-94663105D01*
X107258105Y-94496082D01*
X107393600Y-94302578D01*
X107493429Y-94088492D01*
X107493432Y-94088486D01*
X107550636Y-93875000D01*
X106653012Y-93875000D01*
X106685925Y-93817993D01*
X106720000Y-93690826D01*
X106720000Y-93559174D01*
X106685925Y-93432007D01*
X106653012Y-93375000D01*
X107550636Y-93375000D01*
X107550635Y-93374999D01*
X107493432Y-93161513D01*
X107493429Y-93161507D01*
X107393600Y-92947422D01*
X107393599Y-92947420D01*
X107258113Y-92753926D01*
X107258108Y-92753920D01*
X107091082Y-92586894D01*
X106897578Y-92451399D01*
X106683492Y-92351570D01*
X106683486Y-92351567D01*
X106470000Y-92294364D01*
X106470000Y-93191988D01*
X106412993Y-93159075D01*
X106285826Y-93125000D01*
X106154174Y-93125000D01*
X106027007Y-93159075D01*
X105970000Y-93191988D01*
X105970000Y-92294364D01*
X105969999Y-92294364D01*
X105756513Y-92351567D01*
X105756507Y-92351570D01*
X105542422Y-92451399D01*
X105542420Y-92451400D01*
X105348926Y-92586886D01*
X105348920Y-92586891D01*
X105181891Y-92753920D01*
X105181886Y-92753926D01*
X105046400Y-92947420D01*
X105046399Y-92947422D01*
X104946570Y-93161507D01*
X104946567Y-93161513D01*
X104889364Y-93374999D01*
X104889364Y-93375000D01*
X105786988Y-93375000D01*
X105754075Y-93432007D01*
X105720000Y-93559174D01*
X105720000Y-93690826D01*
X105754075Y-93817993D01*
X105786988Y-93875000D01*
X104889364Y-93875000D01*
X104946567Y-94088486D01*
X104946570Y-94088492D01*
X105046399Y-94302578D01*
X105181894Y-94496082D01*
X105348917Y-94663105D01*
X105534595Y-94793119D01*
X105578219Y-94847696D01*
X105585412Y-94917195D01*
X105553890Y-94979549D01*
X105534595Y-94996269D01*
X105348594Y-95126508D01*
X105181505Y-95293597D01*
X105045965Y-95487169D01*
X105045964Y-95487171D01*
X104952401Y-95687816D01*
X104948430Y-95696335D01*
X104946098Y-95701335D01*
X104946094Y-95701344D01*
X104884938Y-95929586D01*
X104884936Y-95929596D01*
X104864341Y-96164999D01*
X104864341Y-96165000D01*
X104884936Y-96400403D01*
X104884938Y-96400413D01*
X104946094Y-96628655D01*
X104946096Y-96628659D01*
X104946097Y-96628663D01*
X104978044Y-96697173D01*
X105045965Y-96842830D01*
X105045967Y-96842834D01*
X105154281Y-96997521D01*
X105173824Y-97025432D01*
X105181501Y-97036395D01*
X105181506Y-97036402D01*
X105348597Y-97203493D01*
X105348603Y-97203498D01*
X105534158Y-97333425D01*
X105577783Y-97388002D01*
X105584977Y-97457500D01*
X105553454Y-97519855D01*
X105534158Y-97536575D01*
X105348597Y-97666505D01*
X105181505Y-97833597D01*
X105045965Y-98027169D01*
X105045964Y-98027171D01*
X104952401Y-98227816D01*
X104948430Y-98236335D01*
X104946098Y-98241335D01*
X104946094Y-98241344D01*
X104884938Y-98469586D01*
X104884936Y-98469596D01*
X104864341Y-98704999D01*
X104864341Y-98705000D01*
X104884936Y-98940403D01*
X104884938Y-98940413D01*
X104946094Y-99168655D01*
X104946096Y-99168659D01*
X104946097Y-99168663D01*
X105034307Y-99357830D01*
X105045965Y-99382830D01*
X105045967Y-99382834D01*
X105143119Y-99521580D01*
X105172154Y-99563047D01*
X105181501Y-99576395D01*
X105181506Y-99576402D01*
X105348597Y-99743493D01*
X105348603Y-99743498D01*
X105534158Y-99873425D01*
X105577783Y-99928002D01*
X105584977Y-99997500D01*
X105553454Y-100059855D01*
X105534158Y-100076575D01*
X105348597Y-100206505D01*
X105181505Y-100373597D01*
X105045965Y-100567169D01*
X105045964Y-100567171D01*
X104952401Y-100767816D01*
X104948430Y-100776335D01*
X104946098Y-100781335D01*
X104946094Y-100781344D01*
X104884938Y-101009586D01*
X104884936Y-101009596D01*
X104864341Y-101244999D01*
X104864341Y-101245000D01*
X93720000Y-101245000D01*
X93720000Y-74317887D01*
X95872568Y-74317887D01*
X95913507Y-74550067D01*
X95994147Y-74771621D01*
X95994150Y-74771628D01*
X96112032Y-74975805D01*
X96112034Y-74975809D01*
X96179773Y-75056536D01*
X96263583Y-75156417D01*
X96382614Y-75256296D01*
X96444190Y-75307965D01*
X96444191Y-75307965D01*
X96444193Y-75307967D01*
X96648376Y-75425852D01*
X96869927Y-75506491D01*
X96869931Y-75506491D01*
X96869932Y-75506492D01*
X96916560Y-75514713D01*
X97102115Y-75547432D01*
X97337883Y-75547432D01*
X97337885Y-75547432D01*
X97570073Y-75506491D01*
X97791624Y-75425852D01*
X97995807Y-75307967D01*
X98176417Y-75156417D01*
X98327967Y-74975807D01*
X98445852Y-74771624D01*
X98526491Y-74550073D01*
X98567432Y-74317885D01*
X98570000Y-74200000D01*
X98567432Y-74082115D01*
X98526491Y-73849927D01*
X98445852Y-73628376D01*
X98327967Y-73424193D01*
X98327965Y-73424191D01*
X98327965Y-73424190D01*
X98276296Y-73362614D01*
X98176417Y-73243583D01*
X98076536Y-73159773D01*
X97995809Y-73092034D01*
X97995805Y-73092032D01*
X97791628Y-72974150D01*
X97791625Y-72974149D01*
X97791624Y-72974148D01*
X97570073Y-72893509D01*
X97570072Y-72893508D01*
X97570067Y-72893507D01*
X97337887Y-72852568D01*
X97337885Y-72852568D01*
X97102115Y-72852568D01*
X97102112Y-72852568D01*
X96869932Y-72893507D01*
X96648378Y-72974147D01*
X96648371Y-72974150D01*
X96444194Y-73092032D01*
X96444190Y-73092034D01*
X96263583Y-73243583D01*
X96112034Y-73424190D01*
X96112032Y-73424194D01*
X95994150Y-73628371D01*
X95994147Y-73628378D01*
X95913507Y-73849932D01*
X95872568Y-74082112D01*
X95872568Y-74317887D01*
X93720000Y-74317887D01*
X93720000Y-70825734D01*
X112622466Y-70825734D01*
X112661801Y-71074090D01*
X112739508Y-71313244D01*
X112853668Y-71537293D01*
X113001463Y-71740717D01*
X113001467Y-71740722D01*
X113179277Y-71918532D01*
X113179282Y-71918536D01*
X113356720Y-72047451D01*
X113382710Y-72066334D01*
X113525474Y-72139076D01*
X113606755Y-72180491D01*
X113606757Y-72180491D01*
X113606760Y-72180493D01*
X113734949Y-72222144D01*
X113845909Y-72258198D01*
X114094266Y-72297534D01*
X114345729Y-72297534D01*
X114345734Y-72297534D01*
X114594090Y-72258198D01*
X114833240Y-72180493D01*
X115057290Y-72066334D01*
X115260724Y-71918531D01*
X115438531Y-71740724D01*
X115586334Y-71537290D01*
X115700493Y-71313240D01*
X115778198Y-71074090D01*
X115817534Y-70825729D01*
X115820000Y-70700000D01*
X115817534Y-70574271D01*
X115778198Y-70325910D01*
X115700493Y-70086760D01*
X115700491Y-70086757D01*
X115700491Y-70086755D01*
X115649196Y-69986084D01*
X115586334Y-69862710D01*
X115547099Y-69808708D01*
X115438536Y-69659282D01*
X115438532Y-69659277D01*
X115260722Y-69481467D01*
X115260717Y-69481463D01*
X115057293Y-69333668D01*
X115057292Y-69333667D01*
X115057290Y-69333666D01*
X114987322Y-69298015D01*
X114833244Y-69219508D01*
X114594090Y-69141801D01*
X114345734Y-69102466D01*
X114345729Y-69102466D01*
X114094271Y-69102466D01*
X114094266Y-69102466D01*
X113845909Y-69141801D01*
X113606755Y-69219508D01*
X113382706Y-69333668D01*
X113179282Y-69481463D01*
X113179277Y-69481467D01*
X113001467Y-69659277D01*
X113001463Y-69659282D01*
X112853668Y-69862706D01*
X112739508Y-70086755D01*
X112661801Y-70325909D01*
X112622466Y-70574265D01*
X112622466Y-70825734D01*
X93720000Y-70825734D01*
X93720000Y-69600890D01*
X93720011Y-69599206D01*
X93720108Y-69592087D01*
X93722205Y-69437757D01*
X93722971Y-69425600D01*
X93759205Y-69104001D01*
X93761534Y-69090299D01*
X93762925Y-69084205D01*
X93833357Y-68775610D01*
X93837198Y-68762276D01*
X93943816Y-68457578D01*
X93949123Y-68444767D01*
X94089176Y-68153940D01*
X94095893Y-68141787D01*
X94267625Y-67868474D01*
X94275658Y-67857152D01*
X94476917Y-67604780D01*
X94486166Y-67594430D01*
X94714418Y-67366176D01*
X94724768Y-67356927D01*
X94977137Y-67155669D01*
X94988455Y-67147638D01*
X95261774Y-66975900D01*
X95273926Y-66969184D01*
X95564747Y-66829131D01*
X95577570Y-66823819D01*
X95882256Y-66717205D01*
X95895600Y-66713361D01*
X96210285Y-66641535D01*
X96223991Y-66639207D01*
X96545567Y-66602974D01*
X96557759Y-66602206D01*
X96719329Y-66600025D01*
X96720705Y-66600015D01*
X155719127Y-66599993D01*
X155720858Y-66600005D01*
G37*
%TD.AperFunction*%
%TD*%
M02*
