%TF.GenerationSoftware,KiCad,Pcbnew,8.0.0-dirty*%
%TF.CreationDate,2024-04-13T23:55:43-04:00*%
%TF.ProjectId,UltrasonicPCB,556c7472-6173-46f6-9e69-635043422e6b,rev?*%
%TF.SameCoordinates,Original*%
%TF.FileFunction,Copper,L2,Bot*%
%TF.FilePolarity,Positive*%
%FSLAX46Y46*%
G04 Gerber Fmt 4.6, Leading zero omitted, Abs format (unit mm)*
G04 Created by KiCad (PCBNEW 8.0.0-dirty) date 2024-04-13 23:55:43*
%MOMM*%
%LPD*%
G01*
G04 APERTURE LIST*
G04 Aperture macros list*
%AMRoundRect*
0 Rectangle with rounded corners*
0 $1 Rounding radius*
0 $2 $3 $4 $5 $6 $7 $8 $9 X,Y pos of 4 corners*
0 Add a 4 corners polygon primitive as box body*
4,1,4,$2,$3,$4,$5,$6,$7,$8,$9,$2,$3,0*
0 Add four circle primitives for the rounded corners*
1,1,$1+$1,$2,$3*
1,1,$1+$1,$4,$5*
1,1,$1+$1,$6,$7*
1,1,$1+$1,$8,$9*
0 Add four rect primitives between the rounded corners*
20,1,$1+$1,$2,$3,$4,$5,0*
20,1,$1+$1,$4,$5,$6,$7,0*
20,1,$1+$1,$6,$7,$8,$9,0*
20,1,$1+$1,$8,$9,$2,$3,0*%
G04 Aperture macros list end*
%TA.AperFunction,ComponentPad*%
%ADD10R,1.700000X1.700000*%
%TD*%
%TA.AperFunction,ComponentPad*%
%ADD11O,1.700000X1.700000*%
%TD*%
%TA.AperFunction,ComponentPad*%
%ADD12RoundRect,0.250000X-0.600000X-0.600000X0.600000X-0.600000X0.600000X0.600000X-0.600000X0.600000X0*%
%TD*%
%TA.AperFunction,ComponentPad*%
%ADD13C,1.700000*%
%TD*%
%TA.AperFunction,SMDPad,CuDef*%
%ADD14RoundRect,0.250000X0.350000X0.450000X-0.350000X0.450000X-0.350000X-0.450000X0.350000X-0.450000X0*%
%TD*%
%TA.AperFunction,ViaPad*%
%ADD15C,0.800000*%
%TD*%
%TA.AperFunction,Conductor*%
%ADD16C,0.500000*%
%TD*%
G04 APERTURE END LIST*
D10*
%TO.P,U3,1,VCC*%
%TO.N,5V*%
X121140000Y-70060000D03*
D11*
%TO.P,U3,2,TRIG*%
%TO.N,TRIG3*%
X123680000Y-70060000D03*
%TO.P,U3,3,ECHO*%
%TO.N,Net-(D3-A)*%
X126220000Y-70060000D03*
%TO.P,U3,4,OUT*%
%TO.N,unconnected-(U3-OUT-Pad4)*%
X128760000Y-70060000D03*
%TO.P,U3,5,GND*%
%TO.N,GND*%
X131300000Y-70060000D03*
%TD*%
D10*
%TO.P,U2,1,VCC*%
%TO.N,5V*%
X121140000Y-127340000D03*
D11*
%TO.P,U2,2,TRIG*%
%TO.N,TRIG2*%
X123680000Y-127340000D03*
%TO.P,U2,3,ECHO*%
%TO.N,Net-(D2-A)*%
X126220000Y-127340000D03*
%TO.P,U2,4,OUT*%
%TO.N,unconnected-(U2-OUT-Pad4)*%
X128760000Y-127340000D03*
%TO.P,U2,5,GND*%
%TO.N,GND*%
X131300000Y-127340000D03*
%TD*%
D10*
%TO.P,U5,1,VCC*%
%TO.N,5V*%
X146230000Y-103780000D03*
D11*
%TO.P,U5,2,TRIG*%
%TO.N,TRIG4*%
X146230000Y-101240000D03*
%TO.P,U5,3,ECHO*%
%TO.N,Net-(D4-A)*%
X146230000Y-98700000D03*
%TO.P,U5,4,OUT*%
%TO.N,unconnected-(U5-OUT-Pad4)*%
X146230000Y-96160000D03*
%TO.P,U5,5,GND*%
%TO.N,GND*%
X146230000Y-93620000D03*
%TD*%
D10*
%TO.P,U1,1,VCC*%
%TO.N,5V*%
X106220000Y-103785000D03*
D11*
%TO.P,U1,2,TRIG*%
%TO.N,TRIG1*%
X106220000Y-101245000D03*
%TO.P,U1,3,ECHO*%
%TO.N,Net-(D1-A)*%
X106220000Y-98705000D03*
%TO.P,U1,4,OUT*%
%TO.N,unconnected-(U1-OUT-Pad4)*%
X106220000Y-96165000D03*
%TO.P,U1,5,GND*%
%TO.N,GND*%
X106220000Y-93625000D03*
%TD*%
D12*
%TO.P,J2,1,Pin_1*%
%TO.N,5V*%
X115590000Y-103740000D03*
D13*
%TO.P,J2,2,Pin_2*%
%TO.N,TRIG1*%
X118130000Y-103740000D03*
%TO.P,J2,3,Pin_3*%
%TO.N,TRIG2*%
X115590000Y-101200000D03*
%TO.P,J2,4,Pin_4*%
%TO.N,TRIG3*%
X118130000Y-101200000D03*
%TO.P,J2,5,Pin_5*%
%TO.N,TRIG4*%
X115590000Y-98660000D03*
%TO.P,J2,6,Pin_6*%
%TO.N,Net-(J2-Pin_6)*%
X118130000Y-98660000D03*
%TO.P,J2,7,Pin_7*%
%TO.N,GND*%
X115590000Y-96120000D03*
%TO.P,J2,8*%
%TO.N,N/C*%
X118130000Y-96120000D03*
%TD*%
D14*
%TO.P,R2,1*%
%TO.N,Net-(J2-Pin_6)*%
X117490000Y-84070000D03*
%TO.P,R2,2*%
%TO.N,GND*%
X115490000Y-84070000D03*
%TD*%
%TO.P,R1,1*%
%TO.N,ECHO*%
X117470000Y-86470000D03*
%TO.P,R1,2*%
%TO.N,Net-(J2-Pin_6)*%
X115470000Y-86470000D03*
%TD*%
D15*
%TO.N,ECHO*%
X151940000Y-97670000D03*
%TO.N,Net-(J2-Pin_6)*%
X115550000Y-86480000D03*
%TD*%
D16*
%TO.N,5V*%
X106220000Y-103785000D02*
X106220000Y-112420000D01*
X106220000Y-112420000D02*
X121140000Y-127340000D01*
%TO.N,GND*%
X115490000Y-84070000D02*
X115490000Y-84355000D01*
X115490000Y-84355000D02*
X106220000Y-93625000D01*
%TO.N,ECHO*%
X117470000Y-86470000D02*
X118540000Y-85400000D01*
X118540000Y-85400000D02*
X118540000Y-70060000D01*
X118540000Y-70060000D02*
X119840000Y-68760000D01*
X119840000Y-68760000D02*
X132070000Y-68760000D01*
X132070000Y-68760000D02*
X151940000Y-88630000D01*
X151940000Y-88630000D02*
X151940000Y-97670000D01*
X151940000Y-97670000D02*
X151920000Y-97670000D01*
%TO.N,5V*%
X123700000Y-111850000D02*
X133519998Y-121669998D01*
X133519998Y-121669998D02*
X133519998Y-127080000D01*
X131959998Y-128640000D02*
X122440000Y-128640000D01*
X133519998Y-127080000D02*
X131959998Y-128640000D01*
X122440000Y-128640000D02*
X121140000Y-127340000D01*
X146230000Y-103780000D02*
X148230000Y-101780000D01*
X148230000Y-101780000D02*
X148230000Y-92791572D01*
X148230000Y-92791572D02*
X126998428Y-71560000D01*
X126998428Y-71560000D02*
X122640000Y-71560000D01*
X122640000Y-71560000D02*
X121140000Y-70060000D01*
%TO.N,Net-(J2-Pin_6)*%
X117490000Y-84070000D02*
X117490000Y-84450000D01*
X117490000Y-84450000D02*
X115470000Y-86470000D01*
%TO.N,TRIG2*%
X115590000Y-101200000D02*
X114290000Y-102500000D01*
X114290000Y-102500000D02*
X114290000Y-117950000D01*
X114290000Y-117950000D02*
X123680000Y-127340000D01*
%TO.N,GND*%
X115590000Y-96120000D02*
X116890000Y-94820000D01*
X116890000Y-94820000D02*
X118668478Y-94820000D01*
X118668478Y-94820000D02*
X122440000Y-98591522D01*
X122440000Y-98591522D02*
X122440000Y-107340000D01*
X122440000Y-107340000D02*
X126250000Y-111150000D01*
X126250000Y-111150000D02*
X135260000Y-111150000D01*
X135260000Y-111150000D02*
X144930000Y-101480000D01*
X144930000Y-101480000D02*
X144930000Y-94920000D01*
X144930000Y-94920000D02*
X146230000Y-93620000D01*
%TO.N,TRIG4*%
X146230000Y-101240000D02*
X147530000Y-99940000D01*
X119950000Y-89650000D02*
X114290000Y-95310000D01*
X147530000Y-99940000D02*
X147530000Y-93081522D01*
X114290000Y-95310000D02*
X114290000Y-97360000D01*
X147530000Y-93081522D02*
X144098478Y-89650000D01*
X144098478Y-89650000D02*
X119950000Y-89650000D01*
X114290000Y-97360000D02*
X115590000Y-98660000D01*
%TO.N,5V*%
X146230000Y-103780000D02*
X138160000Y-111850000D01*
X138160000Y-111850000D02*
X123700000Y-111850000D01*
X123700000Y-111850000D02*
X115590000Y-103740000D01*
%TD*%
%TA.AperFunction,Conductor*%
%TO.N,GND*%
G36*
X115894808Y-105110184D02*
G01*
X115915450Y-105126818D01*
X123117048Y-112328416D01*
X132733179Y-121944546D01*
X132766664Y-122005869D01*
X132769498Y-122032227D01*
X132769498Y-126717769D01*
X132749813Y-126784808D01*
X132733179Y-126805450D01*
X132726857Y-126811772D01*
X132665534Y-126845257D01*
X132595842Y-126840273D01*
X132539909Y-126798401D01*
X132526794Y-126776496D01*
X132473600Y-126662422D01*
X132473599Y-126662420D01*
X132338113Y-126468926D01*
X132338108Y-126468920D01*
X132171082Y-126301894D01*
X131977578Y-126166399D01*
X131763492Y-126066570D01*
X131763486Y-126066567D01*
X131550000Y-126009364D01*
X131550000Y-126906988D01*
X131492993Y-126874075D01*
X131365826Y-126840000D01*
X131234174Y-126840000D01*
X131107007Y-126874075D01*
X131050000Y-126906988D01*
X131050000Y-126009364D01*
X131049999Y-126009364D01*
X130836513Y-126066567D01*
X130836507Y-126066570D01*
X130622422Y-126166399D01*
X130622420Y-126166400D01*
X130428926Y-126301886D01*
X130428920Y-126301891D01*
X130261891Y-126468920D01*
X130261890Y-126468922D01*
X130131880Y-126654595D01*
X130077303Y-126698219D01*
X130007804Y-126705412D01*
X129945450Y-126673890D01*
X129928730Y-126654594D01*
X129798494Y-126468597D01*
X129631402Y-126301506D01*
X129631395Y-126301501D01*
X129437834Y-126165967D01*
X129437830Y-126165965D01*
X129437828Y-126165964D01*
X129223663Y-126066097D01*
X129223659Y-126066096D01*
X129223655Y-126066094D01*
X128995413Y-126004938D01*
X128995403Y-126004936D01*
X128760001Y-125984341D01*
X128759999Y-125984341D01*
X128524596Y-126004936D01*
X128524586Y-126004938D01*
X128296344Y-126066094D01*
X128296335Y-126066098D01*
X128082171Y-126165964D01*
X128082169Y-126165965D01*
X127888597Y-126301505D01*
X127721505Y-126468597D01*
X127591575Y-126654158D01*
X127536998Y-126697783D01*
X127467500Y-126704977D01*
X127405145Y-126673454D01*
X127388425Y-126654158D01*
X127258494Y-126468597D01*
X127091402Y-126301506D01*
X127091395Y-126301501D01*
X126897834Y-126165967D01*
X126897830Y-126165965D01*
X126897828Y-126165964D01*
X126683663Y-126066097D01*
X126683659Y-126066096D01*
X126683655Y-126066094D01*
X126455413Y-126004938D01*
X126455403Y-126004936D01*
X126220001Y-125984341D01*
X126219999Y-125984341D01*
X125984596Y-126004936D01*
X125984586Y-126004938D01*
X125756344Y-126066094D01*
X125756335Y-126066098D01*
X125542171Y-126165964D01*
X125542169Y-126165965D01*
X125348597Y-126301505D01*
X125181505Y-126468597D01*
X125051575Y-126654158D01*
X124996998Y-126697783D01*
X124927500Y-126704977D01*
X124865145Y-126673454D01*
X124848425Y-126654158D01*
X124718494Y-126468597D01*
X124551402Y-126301506D01*
X124551395Y-126301501D01*
X124357834Y-126165967D01*
X124357830Y-126165965D01*
X124357828Y-126165964D01*
X124143663Y-126066097D01*
X124143659Y-126066096D01*
X124143655Y-126066094D01*
X123915413Y-126004938D01*
X123915403Y-126004936D01*
X123680001Y-125984341D01*
X123679998Y-125984341D01*
X123466985Y-126002977D01*
X123398485Y-125989210D01*
X123368497Y-125967130D01*
X115076819Y-117675451D01*
X115043334Y-117614128D01*
X115040500Y-117587770D01*
X115040500Y-105214499D01*
X115060185Y-105147460D01*
X115112989Y-105101705D01*
X115164500Y-105090499D01*
X115827769Y-105090499D01*
X115894808Y-105110184D01*
G37*
%TD.AperFunction*%
%TA.AperFunction,Conductor*%
G36*
X125271265Y-90420185D02*
G01*
X125317020Y-90472989D01*
X125326964Y-90542147D01*
X125304544Y-90597384D01*
X125266351Y-90649952D01*
X125219062Y-90715039D01*
X125112038Y-90925086D01*
X125112036Y-90925089D01*
X125039190Y-91149289D01*
X125002311Y-91382133D01*
X125000000Y-91499991D01*
X125000000Y-108500008D01*
X125002311Y-108617866D01*
X125039190Y-108850710D01*
X125112036Y-109074910D01*
X125112038Y-109074913D01*
X125219062Y-109284960D01*
X125357628Y-109475678D01*
X125524322Y-109642372D01*
X125715040Y-109780938D01*
X125925087Y-109887962D01*
X125925089Y-109887963D01*
X126037189Y-109924386D01*
X126149291Y-109960810D01*
X126382129Y-109997688D01*
X126418397Y-109998399D01*
X126499991Y-110000000D01*
X133500000Y-110000000D01*
X133500009Y-110000000D01*
X133575774Y-109998513D01*
X133617871Y-109997688D01*
X133850709Y-109960810D01*
X134074913Y-109887962D01*
X134284960Y-109780938D01*
X134475678Y-109642372D01*
X134642372Y-109475678D01*
X134780938Y-109284960D01*
X134887962Y-109074913D01*
X134960810Y-108850709D01*
X134997688Y-108617871D01*
X135000000Y-108500000D01*
X135000000Y-91500000D01*
X134997688Y-91382129D01*
X134960810Y-91149291D01*
X134887962Y-90925087D01*
X134780938Y-90715040D01*
X134695455Y-90597384D01*
X134671976Y-90531580D01*
X134687801Y-90463526D01*
X134737906Y-90414831D01*
X134795774Y-90400500D01*
X143736248Y-90400500D01*
X143803287Y-90420185D01*
X143823929Y-90436819D01*
X145618897Y-92231787D01*
X145652382Y-92293110D01*
X145647398Y-92362802D01*
X145605526Y-92418735D01*
X145583624Y-92431848D01*
X145552429Y-92446395D01*
X145552420Y-92446400D01*
X145358926Y-92581886D01*
X145358920Y-92581891D01*
X145191891Y-92748920D01*
X145191886Y-92748926D01*
X145056400Y-92942420D01*
X145056399Y-92942422D01*
X144956570Y-93156507D01*
X144956567Y-93156513D01*
X144899364Y-93369999D01*
X144899364Y-93370000D01*
X145796988Y-93370000D01*
X145764075Y-93427007D01*
X145730000Y-93554174D01*
X145730000Y-93685826D01*
X145764075Y-93812993D01*
X145796988Y-93870000D01*
X144899364Y-93870000D01*
X144956567Y-94083486D01*
X144956570Y-94083492D01*
X145056399Y-94297578D01*
X145191894Y-94491082D01*
X145358917Y-94658105D01*
X145544595Y-94788119D01*
X145588219Y-94842696D01*
X145595412Y-94912195D01*
X145563890Y-94974549D01*
X145544595Y-94991269D01*
X145358594Y-95121508D01*
X145191505Y-95288597D01*
X145055965Y-95482169D01*
X145055964Y-95482171D01*
X144956098Y-95696335D01*
X144956094Y-95696344D01*
X144894938Y-95924586D01*
X144894936Y-95924596D01*
X144874341Y-96159999D01*
X144874341Y-96160000D01*
X144894936Y-96395403D01*
X144894938Y-96395413D01*
X144956094Y-96623655D01*
X144956096Y-96623659D01*
X144956097Y-96623663D01*
X145037313Y-96797830D01*
X145055965Y-96837830D01*
X145055967Y-96837834D01*
X145191501Y-97031395D01*
X145191506Y-97031402D01*
X145358597Y-97198493D01*
X145358603Y-97198498D01*
X145544158Y-97328425D01*
X145587783Y-97383002D01*
X145594977Y-97452500D01*
X145563454Y-97514855D01*
X145544158Y-97531575D01*
X145358597Y-97661505D01*
X145191505Y-97828597D01*
X145055965Y-98022169D01*
X145055964Y-98022171D01*
X144956098Y-98236335D01*
X144956094Y-98236344D01*
X144894938Y-98464586D01*
X144894936Y-98464596D01*
X144874341Y-98699999D01*
X144874341Y-98700000D01*
X144894936Y-98935403D01*
X144894938Y-98935413D01*
X144956094Y-99163655D01*
X144956096Y-99163659D01*
X144956097Y-99163663D01*
X145020706Y-99302217D01*
X145055965Y-99377830D01*
X145055967Y-99377834D01*
X145191501Y-99571395D01*
X145191506Y-99571402D01*
X145358597Y-99738493D01*
X145358603Y-99738498D01*
X145544158Y-99868425D01*
X145587783Y-99923002D01*
X145594977Y-99992500D01*
X145563454Y-100054855D01*
X145544158Y-100071575D01*
X145358597Y-100201505D01*
X145191505Y-100368597D01*
X145055965Y-100562169D01*
X145055964Y-100562171D01*
X144956098Y-100776335D01*
X144956094Y-100776344D01*
X144894938Y-101004586D01*
X144894936Y-101004596D01*
X144874341Y-101239999D01*
X144874341Y-101240000D01*
X144894936Y-101475403D01*
X144894938Y-101475413D01*
X144956094Y-101703655D01*
X144956096Y-101703659D01*
X144956097Y-101703663D01*
X145020706Y-101842217D01*
X145055965Y-101917830D01*
X145055967Y-101917834D01*
X145191501Y-102111395D01*
X145191506Y-102111402D01*
X145313430Y-102233326D01*
X145346915Y-102294649D01*
X145341931Y-102364341D01*
X145300059Y-102420274D01*
X145269083Y-102437189D01*
X145137669Y-102486203D01*
X145137664Y-102486206D01*
X145022455Y-102572452D01*
X145022452Y-102572455D01*
X144936206Y-102687664D01*
X144936202Y-102687671D01*
X144885908Y-102822517D01*
X144879501Y-102882116D01*
X144879500Y-102882135D01*
X144879500Y-104017770D01*
X144859815Y-104084809D01*
X144843181Y-104105451D01*
X137885451Y-111063181D01*
X137824128Y-111096666D01*
X137797770Y-111099500D01*
X124062230Y-111099500D01*
X123995191Y-111079815D01*
X123974549Y-111063181D01*
X118204952Y-105293584D01*
X118171467Y-105232261D01*
X118176451Y-105162569D01*
X118218323Y-105106636D01*
X118281823Y-105082375D01*
X118365408Y-105075063D01*
X118593663Y-105013903D01*
X118807830Y-104914035D01*
X119001401Y-104778495D01*
X119168495Y-104611401D01*
X119304035Y-104417830D01*
X119403903Y-104203663D01*
X119465063Y-103975408D01*
X119485659Y-103740000D01*
X119465063Y-103504592D01*
X119403903Y-103276337D01*
X119304035Y-103062171D01*
X119181469Y-102887127D01*
X119168494Y-102868597D01*
X119001402Y-102701506D01*
X119001396Y-102701501D01*
X118815842Y-102571575D01*
X118772217Y-102516998D01*
X118765023Y-102447500D01*
X118796546Y-102385145D01*
X118815842Y-102368425D01*
X118914064Y-102299649D01*
X119001401Y-102238495D01*
X119168495Y-102071401D01*
X119304035Y-101877830D01*
X119403903Y-101663663D01*
X119465063Y-101435408D01*
X119485659Y-101200000D01*
X119465063Y-100964592D01*
X119403903Y-100736337D01*
X119304035Y-100522171D01*
X119298425Y-100514158D01*
X119168494Y-100328597D01*
X119001402Y-100161506D01*
X119001396Y-100161501D01*
X118815842Y-100031575D01*
X118772217Y-99976998D01*
X118765023Y-99907500D01*
X118796546Y-99845145D01*
X118815842Y-99828425D01*
X118937137Y-99743493D01*
X119001401Y-99698495D01*
X119168495Y-99531401D01*
X119304035Y-99337830D01*
X119403903Y-99123663D01*
X119465063Y-98895408D01*
X119485659Y-98660000D01*
X119465063Y-98424592D01*
X119403903Y-98196337D01*
X119304035Y-97982171D01*
X119298425Y-97974158D01*
X119168494Y-97788597D01*
X119001402Y-97621506D01*
X119001396Y-97621501D01*
X118815842Y-97491575D01*
X118772217Y-97436998D01*
X118765023Y-97367500D01*
X118796546Y-97305145D01*
X118815842Y-97288425D01*
X118937137Y-97203493D01*
X119001401Y-97158495D01*
X119168495Y-96991401D01*
X119304035Y-96797830D01*
X119403903Y-96583663D01*
X119465063Y-96355408D01*
X119485659Y-96120000D01*
X119465063Y-95884592D01*
X119403903Y-95656337D01*
X119304035Y-95442171D01*
X119298731Y-95434595D01*
X119168494Y-95248597D01*
X119001402Y-95081506D01*
X119001395Y-95081501D01*
X118807834Y-94945967D01*
X118807830Y-94945965D01*
X118807828Y-94945964D01*
X118593663Y-94846097D01*
X118593659Y-94846096D01*
X118593655Y-94846094D01*
X118365413Y-94784938D01*
X118365403Y-94784936D01*
X118130001Y-94764341D01*
X118129999Y-94764341D01*
X117894596Y-94784936D01*
X117894586Y-94784938D01*
X117666344Y-94846094D01*
X117666335Y-94846098D01*
X117452171Y-94945964D01*
X117452169Y-94945965D01*
X117258597Y-95081505D01*
X117091505Y-95248597D01*
X116961269Y-95434595D01*
X116906692Y-95478220D01*
X116837194Y-95485414D01*
X116774839Y-95453891D01*
X116758119Y-95434595D01*
X116704925Y-95358626D01*
X116704925Y-95358625D01*
X116072962Y-95990589D01*
X116055925Y-95927007D01*
X115990099Y-95812993D01*
X115897007Y-95719901D01*
X115782993Y-95654075D01*
X115719409Y-95637037D01*
X116351373Y-95005073D01*
X116351373Y-95005072D01*
X116267583Y-94946402D01*
X116267579Y-94946400D01*
X116051203Y-94845502D01*
X115998764Y-94799330D01*
X115979612Y-94732136D01*
X115999828Y-94665255D01*
X116015918Y-94645449D01*
X120224549Y-90436819D01*
X120285872Y-90403334D01*
X120312230Y-90400500D01*
X125204226Y-90400500D01*
X125271265Y-90420185D01*
G37*
%TD.AperFunction*%
%TA.AperFunction,Conductor*%
G36*
X116704925Y-96881373D02*
G01*
X116758119Y-96805405D01*
X116812696Y-96761781D01*
X116882195Y-96754588D01*
X116944549Y-96786110D01*
X116961269Y-96805405D01*
X117091505Y-96991401D01*
X117091506Y-96991402D01*
X117258597Y-97158493D01*
X117258603Y-97158498D01*
X117444158Y-97288425D01*
X117487783Y-97343002D01*
X117494977Y-97412500D01*
X117463454Y-97474855D01*
X117444158Y-97491575D01*
X117258597Y-97621505D01*
X117091505Y-97788597D01*
X116961575Y-97974158D01*
X116906998Y-98017783D01*
X116837500Y-98024977D01*
X116775145Y-97993454D01*
X116758425Y-97974158D01*
X116628494Y-97788597D01*
X116461402Y-97621506D01*
X116461401Y-97621505D01*
X116275405Y-97491269D01*
X116231781Y-97436692D01*
X116224588Y-97367193D01*
X116256110Y-97304839D01*
X116275405Y-97288119D01*
X116351373Y-97234925D01*
X115719410Y-96602962D01*
X115782993Y-96585925D01*
X115897007Y-96520099D01*
X115990099Y-96427007D01*
X116055925Y-96312993D01*
X116072962Y-96249410D01*
X116704925Y-96881373D01*
G37*
%TD.AperFunction*%
%TA.AperFunction,Conductor*%
G36*
X155720858Y-66600005D02*
G01*
X155779039Y-66600816D01*
X155882007Y-66602254D01*
X155894140Y-66603019D01*
X156215276Y-66639148D01*
X156228965Y-66641470D01*
X156543192Y-66713081D01*
X156556530Y-66716918D01*
X156860797Y-66823216D01*
X156873614Y-66828517D01*
X157139222Y-66956211D01*
X157164091Y-66968167D01*
X157176248Y-66974875D01*
X157449271Y-67146113D01*
X157460603Y-67154138D01*
X157712771Y-67354828D01*
X157723134Y-67364068D01*
X157951295Y-67591701D01*
X157960560Y-67602044D01*
X158161833Y-67853751D01*
X158169884Y-67865063D01*
X158341758Y-68137701D01*
X158348493Y-68149843D01*
X158488806Y-68439978D01*
X158494142Y-68452797D01*
X158601140Y-68756807D01*
X158605009Y-68770142D01*
X158677346Y-69084205D01*
X158679700Y-69097889D01*
X158716569Y-69418926D01*
X158717363Y-69431057D01*
X158719982Y-69592085D01*
X158719998Y-69594102D01*
X158720000Y-73700000D01*
X158720000Y-123700000D01*
X158719998Y-127799141D01*
X158719987Y-127800816D01*
X158717807Y-127962232D01*
X158717038Y-127974441D01*
X158680806Y-128296007D01*
X158678477Y-128309716D01*
X158606654Y-128624392D01*
X158602805Y-128637754D01*
X158496198Y-128942420D01*
X158490876Y-128955267D01*
X158350833Y-129246067D01*
X158344107Y-129258237D01*
X158172382Y-129531536D01*
X158164335Y-129542877D01*
X157963090Y-129795231D01*
X157953824Y-129805599D01*
X157725596Y-130033827D01*
X157715228Y-130043093D01*
X157462874Y-130244338D01*
X157451533Y-130252385D01*
X157178234Y-130424109D01*
X157166064Y-130430835D01*
X156875263Y-130570878D01*
X156862416Y-130576200D01*
X156557748Y-130682808D01*
X156544385Y-130686657D01*
X156229714Y-130758477D01*
X156216005Y-130760806D01*
X155894434Y-130797038D01*
X155882232Y-130797807D01*
X155720808Y-130799995D01*
X155719127Y-130800006D01*
X96720856Y-130799984D01*
X96719183Y-130799973D01*
X96714544Y-130799910D01*
X96557766Y-130797793D01*
X96545557Y-130797024D01*
X96223991Y-130760791D01*
X96210282Y-130758462D01*
X95895600Y-130686638D01*
X95882238Y-130682788D01*
X95577589Y-130576186D01*
X95564742Y-130570865D01*
X95273934Y-130430819D01*
X95261764Y-130424093D01*
X94988466Y-130252368D01*
X94977125Y-130244321D01*
X94724773Y-130043075D01*
X94714405Y-130033809D01*
X94486175Y-129805578D01*
X94476909Y-129795209D01*
X94474377Y-129792034D01*
X94275667Y-129542858D01*
X94267624Y-129531523D01*
X94175409Y-129384763D01*
X94095894Y-129258214D01*
X94089170Y-129246046D01*
X94078048Y-129222950D01*
X93949126Y-128955238D01*
X93943814Y-128942415D01*
X93837200Y-128637727D01*
X93833356Y-128624384D01*
X93761533Y-128309699D01*
X93759205Y-128295992D01*
X93752657Y-128237876D01*
X93722971Y-127974400D01*
X93722205Y-127962232D01*
X93720011Y-127800793D01*
X93720000Y-127799109D01*
X93720000Y-126825734D01*
X112622466Y-126825734D01*
X112661801Y-127074090D01*
X112739508Y-127313244D01*
X112853668Y-127537293D01*
X113001463Y-127740717D01*
X113001467Y-127740722D01*
X113179277Y-127918532D01*
X113179282Y-127918536D01*
X113356720Y-128047451D01*
X113382710Y-128066334D01*
X113525474Y-128139076D01*
X113606755Y-128180491D01*
X113606757Y-128180491D01*
X113606760Y-128180493D01*
X113734949Y-128222144D01*
X113845909Y-128258198D01*
X114094266Y-128297534D01*
X114345729Y-128297534D01*
X114345734Y-128297534D01*
X114594090Y-128258198D01*
X114656634Y-128237876D01*
X114833240Y-128180493D01*
X115057290Y-128066334D01*
X115260724Y-127918531D01*
X115438531Y-127740724D01*
X115586334Y-127537290D01*
X115700493Y-127313240D01*
X115778198Y-127074090D01*
X115817534Y-126825729D01*
X115820000Y-126700000D01*
X115817534Y-126574271D01*
X115778198Y-126325910D01*
X115700493Y-126086760D01*
X115700491Y-126086757D01*
X115700491Y-126086755D01*
X115648308Y-125984341D01*
X115586334Y-125862710D01*
X115524657Y-125777819D01*
X115438536Y-125659282D01*
X115438532Y-125659277D01*
X115260722Y-125481467D01*
X115260717Y-125481463D01*
X115057293Y-125333668D01*
X115057292Y-125333667D01*
X115057290Y-125333666D01*
X114987322Y-125298015D01*
X114833244Y-125219508D01*
X114594090Y-125141801D01*
X114345734Y-125102466D01*
X114345729Y-125102466D01*
X114094271Y-125102466D01*
X114094266Y-125102466D01*
X113845909Y-125141801D01*
X113606755Y-125219508D01*
X113382706Y-125333668D01*
X113179282Y-125481463D01*
X113179277Y-125481467D01*
X113001467Y-125659277D01*
X113001463Y-125659282D01*
X112853668Y-125862706D01*
X112739508Y-126086755D01*
X112661801Y-126325909D01*
X112622466Y-126574265D01*
X112622466Y-126825734D01*
X93720000Y-126825734D01*
X93720000Y-123317887D01*
X95872568Y-123317887D01*
X95913507Y-123550067D01*
X95994147Y-123771621D01*
X95994150Y-123771628D01*
X96112032Y-123975805D01*
X96112034Y-123975809D01*
X96179773Y-124056536D01*
X96263583Y-124156417D01*
X96382614Y-124256296D01*
X96444190Y-124307965D01*
X96444191Y-124307965D01*
X96444193Y-124307967D01*
X96648376Y-124425852D01*
X96869927Y-124506491D01*
X96869931Y-124506491D01*
X96869932Y-124506492D01*
X96916560Y-124514713D01*
X97102115Y-124547432D01*
X97337883Y-124547432D01*
X97337885Y-124547432D01*
X97570073Y-124506491D01*
X97791624Y-124425852D01*
X97995807Y-124307967D01*
X98176417Y-124156417D01*
X98327967Y-123975807D01*
X98445852Y-123771624D01*
X98526491Y-123550073D01*
X98567432Y-123317885D01*
X98570000Y-123200000D01*
X98567432Y-123082115D01*
X98526491Y-122849927D01*
X98445852Y-122628376D01*
X98327967Y-122424193D01*
X98327965Y-122424191D01*
X98327965Y-122424190D01*
X98276296Y-122362614D01*
X98176417Y-122243583D01*
X98076536Y-122159773D01*
X97995809Y-122092034D01*
X97995805Y-122092032D01*
X97791628Y-121974150D01*
X97791625Y-121974149D01*
X97791624Y-121974148D01*
X97570073Y-121893509D01*
X97570072Y-121893508D01*
X97570067Y-121893507D01*
X97337887Y-121852568D01*
X97337885Y-121852568D01*
X97102115Y-121852568D01*
X97102112Y-121852568D01*
X96869932Y-121893507D01*
X96648378Y-121974147D01*
X96648371Y-121974150D01*
X96444194Y-122092032D01*
X96444190Y-122092034D01*
X96263583Y-122243583D01*
X96112034Y-122424190D01*
X96112032Y-122424194D01*
X95994150Y-122628371D01*
X95994147Y-122628378D01*
X95913507Y-122849932D01*
X95872568Y-123082112D01*
X95872568Y-123317887D01*
X93720000Y-123317887D01*
X93720000Y-101245000D01*
X104864341Y-101245000D01*
X104884936Y-101480403D01*
X104884938Y-101480413D01*
X104946094Y-101708655D01*
X104946096Y-101708659D01*
X104946097Y-101708663D01*
X105013831Y-101853918D01*
X105045965Y-101922830D01*
X105045967Y-101922834D01*
X105115109Y-102021578D01*
X105181501Y-102116396D01*
X105181506Y-102116402D01*
X105303430Y-102238326D01*
X105336915Y-102299649D01*
X105331931Y-102369341D01*
X105290059Y-102425274D01*
X105259083Y-102442189D01*
X105127669Y-102491203D01*
X105127664Y-102491206D01*
X105012455Y-102577452D01*
X105012452Y-102577455D01*
X104926206Y-102692664D01*
X104926202Y-102692671D01*
X104875908Y-102827517D01*
X104869501Y-102887116D01*
X104869501Y-102887123D01*
X104869500Y-102887135D01*
X104869500Y-104682870D01*
X104869501Y-104682876D01*
X104875908Y-104742483D01*
X104926202Y-104877328D01*
X104926206Y-104877335D01*
X105012452Y-104992544D01*
X105012455Y-104992547D01*
X105127664Y-105078793D01*
X105127671Y-105078797D01*
X105159046Y-105090499D01*
X105262517Y-105129091D01*
X105322127Y-105135500D01*
X105345497Y-105135499D01*
X105412536Y-105155181D01*
X105458292Y-105207983D01*
X105469500Y-105259499D01*
X105469500Y-112493918D01*
X105469500Y-112493920D01*
X105469499Y-112493920D01*
X105498340Y-112638907D01*
X105498343Y-112638917D01*
X105554914Y-112775492D01*
X105587812Y-112824727D01*
X105587813Y-112824730D01*
X105637046Y-112898414D01*
X105637052Y-112898421D01*
X119753181Y-127014548D01*
X119786666Y-127075871D01*
X119789500Y-127102229D01*
X119789500Y-128237870D01*
X119789501Y-128237876D01*
X119795908Y-128297483D01*
X119846202Y-128432328D01*
X119846206Y-128432335D01*
X119932452Y-128547544D01*
X119932455Y-128547547D01*
X120047664Y-128633793D01*
X120047671Y-128633797D01*
X120182517Y-128684091D01*
X120182516Y-128684091D01*
X120189444Y-128684835D01*
X120242127Y-128690500D01*
X121377769Y-128690499D01*
X121444808Y-128710184D01*
X121465450Y-128726818D01*
X121857049Y-129118416D01*
X121961584Y-129222951D01*
X121961587Y-129222953D01*
X121961588Y-129222954D01*
X122084503Y-129305083D01*
X122084506Y-129305085D01*
X122141079Y-129328518D01*
X122141080Y-129328518D01*
X122221088Y-129361659D01*
X122337241Y-129384763D01*
X122356468Y-129388587D01*
X122366081Y-129390500D01*
X122366082Y-129390500D01*
X132033918Y-129390500D01*
X132131460Y-129371096D01*
X132178911Y-129361658D01*
X132315493Y-129305084D01*
X132364727Y-129272186D01*
X132385639Y-129258214D01*
X132403850Y-129246046D01*
X132438414Y-129222952D01*
X134102949Y-127558416D01*
X134185082Y-127435495D01*
X134241656Y-127298913D01*
X134270498Y-127153918D01*
X134270498Y-127006083D01*
X134270498Y-126825734D01*
X136622466Y-126825734D01*
X136661801Y-127074090D01*
X136739508Y-127313244D01*
X136853668Y-127537293D01*
X137001463Y-127740717D01*
X137001467Y-127740722D01*
X137179277Y-127918532D01*
X137179282Y-127918536D01*
X137356720Y-128047451D01*
X137382710Y-128066334D01*
X137525474Y-128139076D01*
X137606755Y-128180491D01*
X137606757Y-128180491D01*
X137606760Y-128180493D01*
X137734949Y-128222144D01*
X137845909Y-128258198D01*
X138094266Y-128297534D01*
X138345729Y-128297534D01*
X138345734Y-128297534D01*
X138594090Y-128258198D01*
X138656634Y-128237876D01*
X138833240Y-128180493D01*
X139057290Y-128066334D01*
X139260724Y-127918531D01*
X139438531Y-127740724D01*
X139586334Y-127537290D01*
X139700493Y-127313240D01*
X139778198Y-127074090D01*
X139817534Y-126825729D01*
X139820000Y-126700000D01*
X139817534Y-126574271D01*
X139778198Y-126325910D01*
X139700493Y-126086760D01*
X139700491Y-126086757D01*
X139700491Y-126086755D01*
X139648308Y-125984341D01*
X139586334Y-125862710D01*
X139524657Y-125777819D01*
X139438536Y-125659282D01*
X139438532Y-125659277D01*
X139260722Y-125481467D01*
X139260717Y-125481463D01*
X139057293Y-125333668D01*
X139057292Y-125333667D01*
X139057290Y-125333666D01*
X138987322Y-125298015D01*
X138833244Y-125219508D01*
X138594090Y-125141801D01*
X138345734Y-125102466D01*
X138345729Y-125102466D01*
X138094271Y-125102466D01*
X138094266Y-125102466D01*
X137845909Y-125141801D01*
X137606755Y-125219508D01*
X137382706Y-125333668D01*
X137179282Y-125481463D01*
X137179277Y-125481467D01*
X137001467Y-125659277D01*
X137001463Y-125659282D01*
X136853668Y-125862706D01*
X136739508Y-126086755D01*
X136661801Y-126325909D01*
X136622466Y-126574265D01*
X136622466Y-126825734D01*
X134270498Y-126825734D01*
X134270498Y-123317887D01*
X153872568Y-123317887D01*
X153913507Y-123550067D01*
X153994147Y-123771621D01*
X153994150Y-123771628D01*
X154112032Y-123975805D01*
X154112034Y-123975809D01*
X154179773Y-124056536D01*
X154263583Y-124156417D01*
X154382614Y-124256296D01*
X154444190Y-124307965D01*
X154444191Y-124307965D01*
X154444193Y-124307967D01*
X154648376Y-124425852D01*
X154869927Y-124506491D01*
X154869931Y-124506491D01*
X154869932Y-124506492D01*
X154916560Y-124514713D01*
X155102115Y-124547432D01*
X155337883Y-124547432D01*
X155337885Y-124547432D01*
X155570073Y-124506491D01*
X155791624Y-124425852D01*
X155995807Y-124307967D01*
X156176417Y-124156417D01*
X156327967Y-123975807D01*
X156445852Y-123771624D01*
X156526491Y-123550073D01*
X156567432Y-123317885D01*
X156570000Y-123200000D01*
X156567432Y-123082115D01*
X156526491Y-122849927D01*
X156445852Y-122628376D01*
X156327967Y-122424193D01*
X156327965Y-122424191D01*
X156327965Y-122424190D01*
X156276296Y-122362614D01*
X156176417Y-122243583D01*
X156076536Y-122159773D01*
X155995809Y-122092034D01*
X155995805Y-122092032D01*
X155791628Y-121974150D01*
X155791625Y-121974149D01*
X155791624Y-121974148D01*
X155570073Y-121893509D01*
X155570072Y-121893508D01*
X155570067Y-121893507D01*
X155337887Y-121852568D01*
X155337885Y-121852568D01*
X155102115Y-121852568D01*
X155102112Y-121852568D01*
X154869932Y-121893507D01*
X154648378Y-121974147D01*
X154648371Y-121974150D01*
X154444194Y-122092032D01*
X154444190Y-122092034D01*
X154263583Y-122243583D01*
X154112034Y-122424190D01*
X154112032Y-122424194D01*
X153994150Y-122628371D01*
X153994147Y-122628378D01*
X153913507Y-122849932D01*
X153872568Y-123082112D01*
X153872568Y-123317887D01*
X134270498Y-123317887D01*
X134270498Y-121596080D01*
X134270498Y-121596077D01*
X134241657Y-121451090D01*
X134241656Y-121451089D01*
X134241656Y-121451085D01*
X134241654Y-121451080D01*
X134185085Y-121314509D01*
X134185078Y-121314496D01*
X134102950Y-121191583D01*
X134102949Y-121191582D01*
X133998414Y-121087047D01*
X125723549Y-112812181D01*
X125690064Y-112750858D01*
X125695048Y-112681166D01*
X125736920Y-112625233D01*
X125802384Y-112600816D01*
X125811230Y-112600500D01*
X138233920Y-112600500D01*
X138331462Y-112581096D01*
X138378913Y-112571658D01*
X138515495Y-112515084D01*
X138564729Y-112482186D01*
X138638416Y-112432952D01*
X145904548Y-105166817D01*
X145965871Y-105133333D01*
X145992229Y-105130499D01*
X147127871Y-105130499D01*
X147127872Y-105130499D01*
X147187483Y-105124091D01*
X147322331Y-105073796D01*
X147437546Y-104987546D01*
X147523796Y-104872331D01*
X147574091Y-104737483D01*
X147580500Y-104677873D01*
X147580499Y-103542228D01*
X147600184Y-103475190D01*
X147616813Y-103454553D01*
X148812951Y-102258416D01*
X148847272Y-102207051D01*
X148895084Y-102135495D01*
X148951658Y-101998913D01*
X148961096Y-101951462D01*
X148980500Y-101853920D01*
X148980500Y-92717651D01*
X148951659Y-92572664D01*
X148951658Y-92572663D01*
X148951658Y-92572659D01*
X148895084Y-92436077D01*
X148862186Y-92386842D01*
X148862185Y-92386840D01*
X148812956Y-92313161D01*
X148812952Y-92313156D01*
X127922439Y-71422642D01*
X127888954Y-71361319D01*
X127893938Y-71291627D01*
X127935810Y-71235694D01*
X128001274Y-71211277D01*
X128069547Y-71226129D01*
X128081245Y-71233387D01*
X128082170Y-71234035D01*
X128296337Y-71333903D01*
X128524592Y-71395063D01*
X128701034Y-71410500D01*
X128759999Y-71415659D01*
X128760000Y-71415659D01*
X128760001Y-71415659D01*
X128818966Y-71410500D01*
X128995408Y-71395063D01*
X129223663Y-71333903D01*
X129437830Y-71234035D01*
X129631401Y-71098495D01*
X129798495Y-70931401D01*
X129928730Y-70745405D01*
X129983307Y-70701781D01*
X130052805Y-70694587D01*
X130115160Y-70726110D01*
X130131879Y-70745405D01*
X130261890Y-70931078D01*
X130428917Y-71098105D01*
X130622421Y-71233600D01*
X130836507Y-71333429D01*
X130836516Y-71333433D01*
X131050000Y-71390634D01*
X131050000Y-70493012D01*
X131107007Y-70525925D01*
X131234174Y-70560000D01*
X131365826Y-70560000D01*
X131492993Y-70525925D01*
X131550000Y-70493012D01*
X131550000Y-71390633D01*
X131763483Y-71333433D01*
X131763492Y-71333429D01*
X131977578Y-71233600D01*
X132171082Y-71098105D01*
X132338105Y-70931082D01*
X132473600Y-70737577D01*
X132473601Y-70737575D01*
X132561776Y-70548484D01*
X132607948Y-70496044D01*
X132675141Y-70476892D01*
X132742023Y-70497108D01*
X132761839Y-70513207D01*
X151153181Y-88904548D01*
X151186666Y-88965871D01*
X151189500Y-88992229D01*
X151189500Y-97135677D01*
X151172887Y-97197677D01*
X151112821Y-97301714D01*
X151056564Y-97474855D01*
X151054326Y-97481744D01*
X151034540Y-97670000D01*
X151054326Y-97858256D01*
X151054327Y-97858259D01*
X151112818Y-98038277D01*
X151112821Y-98038284D01*
X151207467Y-98202216D01*
X151334129Y-98342888D01*
X151487265Y-98454148D01*
X151487270Y-98454151D01*
X151660192Y-98531142D01*
X151660197Y-98531144D01*
X151845354Y-98570500D01*
X151845355Y-98570500D01*
X152034644Y-98570500D01*
X152034646Y-98570500D01*
X152219803Y-98531144D01*
X152392730Y-98454151D01*
X152545871Y-98342888D01*
X152672533Y-98202216D01*
X152767179Y-98038284D01*
X152825674Y-97858256D01*
X152845460Y-97670000D01*
X152825674Y-97481744D01*
X152767179Y-97301716D01*
X152767178Y-97301714D01*
X152707113Y-97197677D01*
X152690500Y-97135677D01*
X152690500Y-88556079D01*
X152661659Y-88411092D01*
X152661658Y-88411091D01*
X152661658Y-88411087D01*
X152661656Y-88411082D01*
X152605087Y-88274511D01*
X152605080Y-88274498D01*
X152522952Y-88151585D01*
X152522951Y-88151584D01*
X152418416Y-88047049D01*
X147492671Y-83121304D01*
X138689255Y-74317887D01*
X153872568Y-74317887D01*
X153913507Y-74550067D01*
X153994147Y-74771621D01*
X153994150Y-74771628D01*
X154112032Y-74975805D01*
X154112034Y-74975809D01*
X154179773Y-75056536D01*
X154263583Y-75156417D01*
X154382614Y-75256296D01*
X154444190Y-75307965D01*
X154444191Y-75307965D01*
X154444193Y-75307967D01*
X154648376Y-75425852D01*
X154869927Y-75506491D01*
X154869931Y-75506491D01*
X154869932Y-75506492D01*
X154916560Y-75514713D01*
X155102115Y-75547432D01*
X155337883Y-75547432D01*
X155337885Y-75547432D01*
X155570073Y-75506491D01*
X155791624Y-75425852D01*
X155995807Y-75307967D01*
X156176417Y-75156417D01*
X156327967Y-74975807D01*
X156445852Y-74771624D01*
X156526491Y-74550073D01*
X156567432Y-74317885D01*
X156570000Y-74200000D01*
X156567432Y-74082115D01*
X156526491Y-73849927D01*
X156445852Y-73628376D01*
X156327967Y-73424193D01*
X156327965Y-73424191D01*
X156327965Y-73424190D01*
X156276296Y-73362614D01*
X156176417Y-73243583D01*
X156076536Y-73159773D01*
X155995809Y-73092034D01*
X155995805Y-73092032D01*
X155791628Y-72974150D01*
X155791625Y-72974149D01*
X155791624Y-72974148D01*
X155570073Y-72893509D01*
X155570072Y-72893508D01*
X155570067Y-72893507D01*
X155337887Y-72852568D01*
X155337885Y-72852568D01*
X155102115Y-72852568D01*
X155102112Y-72852568D01*
X154869932Y-72893507D01*
X154648378Y-72974147D01*
X154648371Y-72974150D01*
X154444194Y-73092032D01*
X154444190Y-73092034D01*
X154263583Y-73243583D01*
X154112034Y-73424190D01*
X154112032Y-73424194D01*
X153994150Y-73628371D01*
X153994147Y-73628378D01*
X153913507Y-73849932D01*
X153872568Y-74082112D01*
X153872568Y-74317887D01*
X138689255Y-74317887D01*
X135197103Y-70825734D01*
X136622466Y-70825734D01*
X136661801Y-71074090D01*
X136739508Y-71313244D01*
X136853668Y-71537293D01*
X137001463Y-71740717D01*
X137001467Y-71740722D01*
X137179277Y-71918532D01*
X137179282Y-71918536D01*
X137356720Y-72047451D01*
X137382710Y-72066334D01*
X137525474Y-72139076D01*
X137606755Y-72180491D01*
X137606757Y-72180491D01*
X137606760Y-72180493D01*
X137734949Y-72222144D01*
X137845909Y-72258198D01*
X138094266Y-72297534D01*
X138345729Y-72297534D01*
X138345734Y-72297534D01*
X138594090Y-72258198D01*
X138833240Y-72180493D01*
X139057290Y-72066334D01*
X139260724Y-71918531D01*
X139438531Y-71740724D01*
X139586334Y-71537290D01*
X139700493Y-71313240D01*
X139778198Y-71074090D01*
X139817534Y-70825729D01*
X139820000Y-70700000D01*
X139817534Y-70574271D01*
X139778198Y-70325910D01*
X139700493Y-70086760D01*
X139700491Y-70086757D01*
X139700491Y-70086755D01*
X139659076Y-70005474D01*
X139586334Y-69862710D01*
X139548038Y-69810000D01*
X139438536Y-69659282D01*
X139438532Y-69659277D01*
X139260722Y-69481467D01*
X139260717Y-69481463D01*
X139057293Y-69333668D01*
X139057292Y-69333667D01*
X139057290Y-69333666D01*
X138987322Y-69298015D01*
X138833244Y-69219508D01*
X138594090Y-69141801D01*
X138345734Y-69102466D01*
X138345729Y-69102466D01*
X138094271Y-69102466D01*
X138094266Y-69102466D01*
X137845909Y-69141801D01*
X137606755Y-69219508D01*
X137382706Y-69333668D01*
X137179282Y-69481463D01*
X137179277Y-69481467D01*
X137001467Y-69659277D01*
X137001463Y-69659282D01*
X136853668Y-69862706D01*
X136739508Y-70086755D01*
X136661801Y-70325909D01*
X136622466Y-70574265D01*
X136622466Y-70825734D01*
X135197103Y-70825734D01*
X132548421Y-68177052D01*
X132548414Y-68177046D01*
X132474729Y-68127812D01*
X132474729Y-68127813D01*
X132425491Y-68094913D01*
X132288917Y-68038343D01*
X132288907Y-68038340D01*
X132143920Y-68009500D01*
X132143918Y-68009500D01*
X119766082Y-68009500D01*
X119766076Y-68009500D01*
X119737242Y-68015234D01*
X119737243Y-68015235D01*
X119621093Y-68038339D01*
X119621083Y-68038342D01*
X119541081Y-68071479D01*
X119541082Y-68071480D01*
X119484505Y-68094915D01*
X119402372Y-68149795D01*
X119361585Y-68177047D01*
X119361581Y-68177050D01*
X117957046Y-69581585D01*
X117947193Y-69596334D01*
X117947189Y-69596339D01*
X117874916Y-69704502D01*
X117874914Y-69704506D01*
X117818343Y-69841082D01*
X117818340Y-69841092D01*
X117789500Y-69986079D01*
X117789500Y-82745500D01*
X117769815Y-82812539D01*
X117717011Y-82858294D01*
X117665500Y-82869500D01*
X117089998Y-82869500D01*
X117089980Y-82869501D01*
X116987203Y-82880000D01*
X116987200Y-82880001D01*
X116820668Y-82935185D01*
X116820663Y-82935187D01*
X116671345Y-83027287D01*
X116577327Y-83121305D01*
X116516003Y-83154789D01*
X116446312Y-83149805D01*
X116401965Y-83121304D01*
X116308345Y-83027684D01*
X116159124Y-82935643D01*
X116159119Y-82935641D01*
X115992697Y-82880494D01*
X115992690Y-82880493D01*
X115889986Y-82870000D01*
X115740000Y-82870000D01*
X115740000Y-84196000D01*
X115720315Y-84263039D01*
X115667511Y-84308794D01*
X115616000Y-84320000D01*
X114390001Y-84320000D01*
X114390001Y-84569986D01*
X114400494Y-84672697D01*
X114455641Y-84839119D01*
X114455643Y-84839124D01*
X114547684Y-84988345D01*
X114671654Y-85112315D01*
X114745719Y-85157999D01*
X114792443Y-85209947D01*
X114803666Y-85278910D01*
X114775822Y-85342992D01*
X114745719Y-85369076D01*
X114651347Y-85427285D01*
X114651343Y-85427288D01*
X114527289Y-85551342D01*
X114435187Y-85700663D01*
X114435186Y-85700666D01*
X114380001Y-85867203D01*
X114380001Y-85867204D01*
X114380000Y-85867204D01*
X114369500Y-85969983D01*
X114369500Y-86970001D01*
X114369501Y-86970019D01*
X114380000Y-87072796D01*
X114380001Y-87072799D01*
X114435185Y-87239331D01*
X114435186Y-87239334D01*
X114527288Y-87388656D01*
X114651344Y-87512712D01*
X114800666Y-87604814D01*
X114967203Y-87659999D01*
X115069991Y-87670500D01*
X115870008Y-87670499D01*
X115870016Y-87670498D01*
X115870019Y-87670498D01*
X115926302Y-87664748D01*
X115972797Y-87659999D01*
X116139334Y-87604814D01*
X116288656Y-87512712D01*
X116382319Y-87419049D01*
X116443642Y-87385564D01*
X116513334Y-87390548D01*
X116557681Y-87419049D01*
X116651344Y-87512712D01*
X116800666Y-87604814D01*
X116967203Y-87659999D01*
X117069991Y-87670500D01*
X117870008Y-87670499D01*
X117870016Y-87670498D01*
X117870019Y-87670498D01*
X117926302Y-87664748D01*
X117972797Y-87659999D01*
X118139334Y-87604814D01*
X118288656Y-87512712D01*
X118412712Y-87388656D01*
X118504814Y-87239334D01*
X118559999Y-87072797D01*
X118570500Y-86970009D01*
X118570499Y-86482228D01*
X118590183Y-86415190D01*
X118606813Y-86394553D01*
X119122952Y-85878415D01*
X119161843Y-85820210D01*
X119205084Y-85755495D01*
X119229790Y-85695849D01*
X119261659Y-85618912D01*
X119290500Y-85473917D01*
X119290500Y-85326082D01*
X119290500Y-70422229D01*
X119310185Y-70355190D01*
X119326819Y-70334548D01*
X119408374Y-70252993D01*
X119577821Y-70083545D01*
X119639142Y-70050062D01*
X119708833Y-70055046D01*
X119764767Y-70096917D01*
X119789184Y-70162382D01*
X119789500Y-70171228D01*
X119789500Y-70957870D01*
X119789501Y-70957876D01*
X119795908Y-71017483D01*
X119846202Y-71152328D01*
X119846206Y-71152335D01*
X119932452Y-71267544D01*
X119932455Y-71267547D01*
X120047664Y-71353793D01*
X120047671Y-71353797D01*
X120182517Y-71404091D01*
X120182516Y-71404091D01*
X120189444Y-71404835D01*
X120242127Y-71410500D01*
X121377769Y-71410499D01*
X121444808Y-71430184D01*
X121465450Y-71446818D01*
X122161580Y-72142948D01*
X122161584Y-72142951D01*
X122284498Y-72225080D01*
X122284511Y-72225087D01*
X122364449Y-72258198D01*
X122421087Y-72281658D01*
X122421091Y-72281658D01*
X122421092Y-72281659D01*
X122566079Y-72310500D01*
X122566082Y-72310500D01*
X122713917Y-72310500D01*
X126636198Y-72310500D01*
X126703237Y-72330185D01*
X126723879Y-72346819D01*
X143064879Y-88687819D01*
X143098364Y-88749142D01*
X143093380Y-88818834D01*
X143051508Y-88874767D01*
X142986044Y-88899184D01*
X142977198Y-88899500D01*
X119876080Y-88899500D01*
X119731092Y-88928340D01*
X119731086Y-88928342D01*
X119594508Y-88984914D01*
X119594496Y-88984921D01*
X119545269Y-89017813D01*
X119471588Y-89067044D01*
X119471580Y-89067050D01*
X113707048Y-94831583D01*
X113687100Y-94861438D01*
X113667284Y-94891097D01*
X113653187Y-94912195D01*
X113624916Y-94954504D01*
X113624912Y-94954511D01*
X113568343Y-95091082D01*
X113568340Y-95091092D01*
X113539500Y-95236079D01*
X113539500Y-95236082D01*
X113539500Y-97433918D01*
X113539500Y-97433920D01*
X113539499Y-97433920D01*
X113568340Y-97578907D01*
X113568343Y-97578917D01*
X113604624Y-97666506D01*
X113624916Y-97715495D01*
X113643260Y-97742949D01*
X113643259Y-97742949D01*
X113707046Y-97838414D01*
X113707052Y-97838421D01*
X114217130Y-98348497D01*
X114250615Y-98409820D01*
X114252977Y-98446985D01*
X114234341Y-98659997D01*
X114234341Y-98660000D01*
X114254936Y-98895403D01*
X114254938Y-98895413D01*
X114316094Y-99123655D01*
X114316096Y-99123659D01*
X114316097Y-99123663D01*
X114396004Y-99295023D01*
X114415965Y-99337830D01*
X114415967Y-99337834D01*
X114443973Y-99377830D01*
X114551501Y-99531396D01*
X114551506Y-99531402D01*
X114718597Y-99698493D01*
X114718603Y-99698498D01*
X114904158Y-99828425D01*
X114947783Y-99883002D01*
X114954977Y-99952500D01*
X114923454Y-100014855D01*
X114904158Y-100031575D01*
X114718597Y-100161505D01*
X114551505Y-100328597D01*
X114415965Y-100522169D01*
X114415964Y-100522171D01*
X114316098Y-100736335D01*
X114316094Y-100736344D01*
X114254938Y-100964586D01*
X114254936Y-100964596D01*
X114234341Y-101199999D01*
X114234341Y-101200001D01*
X114252977Y-101413013D01*
X114239210Y-101481513D01*
X114217130Y-101511501D01*
X113707052Y-102021578D01*
X113707049Y-102021581D01*
X113673761Y-102071400D01*
X113673762Y-102071401D01*
X113624914Y-102144508D01*
X113568343Y-102281082D01*
X113568340Y-102281092D01*
X113539500Y-102426079D01*
X113539500Y-102426082D01*
X113539500Y-118023918D01*
X113539500Y-118023920D01*
X113539499Y-118023920D01*
X113568340Y-118168907D01*
X113568343Y-118168917D01*
X113624914Y-118305492D01*
X113657812Y-118354727D01*
X113657813Y-118354730D01*
X113707046Y-118428414D01*
X113707052Y-118428421D01*
X121056452Y-125777819D01*
X121089937Y-125839142D01*
X121084953Y-125908834D01*
X121043081Y-125964767D01*
X120977617Y-125989184D01*
X120968771Y-125989500D01*
X120902229Y-125989500D01*
X120835190Y-125969815D01*
X120814548Y-125953181D01*
X107006819Y-112145451D01*
X106973334Y-112084128D01*
X106970500Y-112057770D01*
X106970500Y-105259499D01*
X106990185Y-105192460D01*
X107042989Y-105146705D01*
X107094500Y-105135499D01*
X107117871Y-105135499D01*
X107117872Y-105135499D01*
X107177483Y-105129091D01*
X107312331Y-105078796D01*
X107427546Y-104992546D01*
X107513796Y-104877331D01*
X107564091Y-104742483D01*
X107570500Y-104682873D01*
X107570499Y-102887128D01*
X107565299Y-102838757D01*
X107564091Y-102827516D01*
X107513797Y-102692671D01*
X107513793Y-102692664D01*
X107427547Y-102577455D01*
X107427544Y-102577452D01*
X107312335Y-102491206D01*
X107312328Y-102491202D01*
X107180917Y-102442189D01*
X107124983Y-102400318D01*
X107100566Y-102334853D01*
X107115418Y-102266580D01*
X107136563Y-102238332D01*
X107258495Y-102116401D01*
X107394035Y-101922830D01*
X107493903Y-101708663D01*
X107555063Y-101480408D01*
X107575659Y-101245000D01*
X107575221Y-101239999D01*
X107555063Y-101009596D01*
X107555063Y-101009592D01*
X107493903Y-100781337D01*
X107394035Y-100567171D01*
X107387462Y-100557783D01*
X107258494Y-100373597D01*
X107091402Y-100206506D01*
X107091396Y-100206501D01*
X106905842Y-100076575D01*
X106862217Y-100021998D01*
X106855023Y-99952500D01*
X106886546Y-99890145D01*
X106905842Y-99873425D01*
X106946230Y-99845145D01*
X107091401Y-99743495D01*
X107258495Y-99576401D01*
X107394035Y-99382830D01*
X107493903Y-99168663D01*
X107555063Y-98940408D01*
X107575659Y-98705000D01*
X107575221Y-98699999D01*
X107571539Y-98657918D01*
X107555063Y-98469592D01*
X107493903Y-98241337D01*
X107394035Y-98027171D01*
X107387462Y-98017783D01*
X107258494Y-97833597D01*
X107091402Y-97666506D01*
X107091396Y-97666501D01*
X106905842Y-97536575D01*
X106862217Y-97481998D01*
X106855023Y-97412500D01*
X106886546Y-97350145D01*
X106905842Y-97333425D01*
X106951130Y-97301714D01*
X107091401Y-97203495D01*
X107258495Y-97036401D01*
X107394035Y-96842830D01*
X107493903Y-96628663D01*
X107555063Y-96400408D01*
X107575659Y-96165000D01*
X107575221Y-96159999D01*
X107571539Y-96117918D01*
X107555063Y-95929592D01*
X107493903Y-95701337D01*
X107394035Y-95487171D01*
X107387768Y-95478220D01*
X107258494Y-95293597D01*
X107091402Y-95126506D01*
X107091401Y-95126505D01*
X106905405Y-94996269D01*
X106861781Y-94941692D01*
X106854588Y-94872193D01*
X106886110Y-94809839D01*
X106905405Y-94793119D01*
X107091082Y-94663105D01*
X107258105Y-94496082D01*
X107393600Y-94302578D01*
X107493429Y-94088492D01*
X107493432Y-94088486D01*
X107550636Y-93875000D01*
X106653012Y-93875000D01*
X106685925Y-93817993D01*
X106720000Y-93690826D01*
X106720000Y-93559174D01*
X106685925Y-93432007D01*
X106653012Y-93375000D01*
X107550636Y-93375000D01*
X107550635Y-93374999D01*
X107493432Y-93161513D01*
X107493429Y-93161507D01*
X107393600Y-92947422D01*
X107393599Y-92947420D01*
X107258113Y-92753926D01*
X107258108Y-92753920D01*
X107091082Y-92586894D01*
X106897578Y-92451399D01*
X106683492Y-92351570D01*
X106683486Y-92351567D01*
X106470000Y-92294364D01*
X106470000Y-93191988D01*
X106412993Y-93159075D01*
X106285826Y-93125000D01*
X106154174Y-93125000D01*
X106027007Y-93159075D01*
X105970000Y-93191988D01*
X105970000Y-92294364D01*
X105969999Y-92294364D01*
X105756513Y-92351567D01*
X105756507Y-92351570D01*
X105542422Y-92451399D01*
X105542420Y-92451400D01*
X105348926Y-92586886D01*
X105348920Y-92586891D01*
X105181891Y-92753920D01*
X105181886Y-92753926D01*
X105046400Y-92947420D01*
X105046399Y-92947422D01*
X104946570Y-93161507D01*
X104946567Y-93161513D01*
X104889364Y-93374999D01*
X104889364Y-93375000D01*
X105786988Y-93375000D01*
X105754075Y-93432007D01*
X105720000Y-93559174D01*
X105720000Y-93690826D01*
X105754075Y-93817993D01*
X105786988Y-93875000D01*
X104889364Y-93875000D01*
X104946567Y-94088486D01*
X104946570Y-94088492D01*
X105046399Y-94302578D01*
X105181894Y-94496082D01*
X105348917Y-94663105D01*
X105534595Y-94793119D01*
X105578219Y-94847696D01*
X105585412Y-94917195D01*
X105553890Y-94979549D01*
X105534595Y-94996269D01*
X105348594Y-95126508D01*
X105181505Y-95293597D01*
X105045965Y-95487169D01*
X105045964Y-95487171D01*
X104968136Y-95654075D01*
X104948430Y-95696335D01*
X104946098Y-95701335D01*
X104946094Y-95701344D01*
X104884938Y-95929586D01*
X104884936Y-95929596D01*
X104864341Y-96164999D01*
X104864341Y-96165000D01*
X104884936Y-96400403D01*
X104884938Y-96400413D01*
X104946094Y-96628655D01*
X104946096Y-96628659D01*
X104946097Y-96628663D01*
X105004817Y-96754588D01*
X105045965Y-96842830D01*
X105045967Y-96842834D01*
X105181501Y-97036395D01*
X105181506Y-97036402D01*
X105348597Y-97203493D01*
X105348603Y-97203498D01*
X105534158Y-97333425D01*
X105577783Y-97388002D01*
X105584977Y-97457500D01*
X105553454Y-97519855D01*
X105534158Y-97536575D01*
X105348597Y-97666505D01*
X105181505Y-97833597D01*
X105045965Y-98027169D01*
X105045964Y-98027171D01*
X104952401Y-98227816D01*
X104948430Y-98236335D01*
X104946098Y-98241335D01*
X104946094Y-98241344D01*
X104884938Y-98469586D01*
X104884936Y-98469596D01*
X104864341Y-98704999D01*
X104864341Y-98705000D01*
X104884936Y-98940403D01*
X104884938Y-98940413D01*
X104946094Y-99168655D01*
X104946096Y-99168659D01*
X104946097Y-99168663D01*
X105019719Y-99326546D01*
X105045965Y-99382830D01*
X105045967Y-99382834D01*
X105181501Y-99576395D01*
X105181506Y-99576402D01*
X105348597Y-99743493D01*
X105348603Y-99743498D01*
X105534158Y-99873425D01*
X105577783Y-99928002D01*
X105584977Y-99997500D01*
X105553454Y-100059855D01*
X105534158Y-100076575D01*
X105348597Y-100206505D01*
X105181505Y-100373597D01*
X105045965Y-100567169D01*
X105045964Y-100567171D01*
X104970984Y-100727967D01*
X104948430Y-100776335D01*
X104946098Y-100781335D01*
X104946094Y-100781344D01*
X104884938Y-101009586D01*
X104884936Y-101009596D01*
X104864341Y-101244999D01*
X104864341Y-101245000D01*
X93720000Y-101245000D01*
X93720000Y-83820000D01*
X114390000Y-83820000D01*
X115240000Y-83820000D01*
X115240000Y-82870000D01*
X115090027Y-82870000D01*
X115090012Y-82870001D01*
X114987302Y-82880494D01*
X114820880Y-82935641D01*
X114820875Y-82935643D01*
X114671654Y-83027684D01*
X114547684Y-83151654D01*
X114455643Y-83300875D01*
X114455641Y-83300880D01*
X114400494Y-83467302D01*
X114400493Y-83467309D01*
X114390000Y-83570013D01*
X114390000Y-83820000D01*
X93720000Y-83820000D01*
X93720000Y-74317887D01*
X95872568Y-74317887D01*
X95913507Y-74550067D01*
X95994147Y-74771621D01*
X95994150Y-74771628D01*
X96112032Y-74975805D01*
X96112034Y-74975809D01*
X96179773Y-75056536D01*
X96263583Y-75156417D01*
X96382614Y-75256296D01*
X96444190Y-75307965D01*
X96444191Y-75307965D01*
X96444193Y-75307967D01*
X96648376Y-75425852D01*
X96869927Y-75506491D01*
X96869931Y-75506491D01*
X96869932Y-75506492D01*
X96916560Y-75514713D01*
X97102115Y-75547432D01*
X97337883Y-75547432D01*
X97337885Y-75547432D01*
X97570073Y-75506491D01*
X97791624Y-75425852D01*
X97995807Y-75307967D01*
X98176417Y-75156417D01*
X98327967Y-74975807D01*
X98445852Y-74771624D01*
X98526491Y-74550073D01*
X98567432Y-74317885D01*
X98570000Y-74200000D01*
X98567432Y-74082115D01*
X98526491Y-73849927D01*
X98445852Y-73628376D01*
X98327967Y-73424193D01*
X98327965Y-73424191D01*
X98327965Y-73424190D01*
X98276296Y-73362614D01*
X98176417Y-73243583D01*
X98076536Y-73159773D01*
X97995809Y-73092034D01*
X97995805Y-73092032D01*
X97791628Y-72974150D01*
X97791625Y-72974149D01*
X97791624Y-72974148D01*
X97570073Y-72893509D01*
X97570072Y-72893508D01*
X97570067Y-72893507D01*
X97337887Y-72852568D01*
X97337885Y-72852568D01*
X97102115Y-72852568D01*
X97102112Y-72852568D01*
X96869932Y-72893507D01*
X96648378Y-72974147D01*
X96648371Y-72974150D01*
X96444194Y-73092032D01*
X96444190Y-73092034D01*
X96263583Y-73243583D01*
X96112034Y-73424190D01*
X96112032Y-73424194D01*
X95994150Y-73628371D01*
X95994147Y-73628378D01*
X95913507Y-73849932D01*
X95872568Y-74082112D01*
X95872568Y-74317887D01*
X93720000Y-74317887D01*
X93720000Y-70825734D01*
X112622466Y-70825734D01*
X112661801Y-71074090D01*
X112739508Y-71313244D01*
X112853668Y-71537293D01*
X113001463Y-71740717D01*
X113001467Y-71740722D01*
X113179277Y-71918532D01*
X113179282Y-71918536D01*
X113356720Y-72047451D01*
X113382710Y-72066334D01*
X113525474Y-72139076D01*
X113606755Y-72180491D01*
X113606757Y-72180491D01*
X113606760Y-72180493D01*
X113734949Y-72222144D01*
X113845909Y-72258198D01*
X114094266Y-72297534D01*
X114345729Y-72297534D01*
X114345734Y-72297534D01*
X114594090Y-72258198D01*
X114833240Y-72180493D01*
X115057290Y-72066334D01*
X115260724Y-71918531D01*
X115438531Y-71740724D01*
X115586334Y-71537290D01*
X115700493Y-71313240D01*
X115778198Y-71074090D01*
X115817534Y-70825729D01*
X115820000Y-70700000D01*
X115817534Y-70574271D01*
X115778198Y-70325910D01*
X115700493Y-70086760D01*
X115700491Y-70086757D01*
X115700491Y-70086755D01*
X115659076Y-70005474D01*
X115586334Y-69862710D01*
X115548038Y-69810000D01*
X115438536Y-69659282D01*
X115438532Y-69659277D01*
X115260722Y-69481467D01*
X115260717Y-69481463D01*
X115057293Y-69333668D01*
X115057292Y-69333667D01*
X115057290Y-69333666D01*
X114987322Y-69298015D01*
X114833244Y-69219508D01*
X114594090Y-69141801D01*
X114345734Y-69102466D01*
X114345729Y-69102466D01*
X114094271Y-69102466D01*
X114094266Y-69102466D01*
X113845909Y-69141801D01*
X113606755Y-69219508D01*
X113382706Y-69333668D01*
X113179282Y-69481463D01*
X113179277Y-69481467D01*
X113001467Y-69659277D01*
X113001463Y-69659282D01*
X112853668Y-69862706D01*
X112739508Y-70086755D01*
X112661801Y-70325909D01*
X112622466Y-70574265D01*
X112622466Y-70825734D01*
X93720000Y-70825734D01*
X93720000Y-69600872D01*
X93720011Y-69599199D01*
X93722189Y-69437783D01*
X93722958Y-69425573D01*
X93733314Y-69333666D01*
X93759189Y-69104001D01*
X93761518Y-69090296D01*
X93762908Y-69084205D01*
X93833342Y-68775605D01*
X93837183Y-68762271D01*
X93943801Y-68457572D01*
X93949108Y-68444761D01*
X94089161Y-68153935D01*
X94095876Y-68141784D01*
X94267616Y-67868459D01*
X94275646Y-67857141D01*
X94476905Y-67604771D01*
X94486154Y-67594420D01*
X94714408Y-67366164D01*
X94724758Y-67356915D01*
X94977128Y-67155656D01*
X94988446Y-67147625D01*
X95261766Y-66975886D01*
X95273918Y-66969170D01*
X95564751Y-66829112D01*
X95577553Y-66823808D01*
X95882257Y-66717187D01*
X95895591Y-66713346D01*
X96210296Y-66641516D01*
X96223974Y-66639192D01*
X96545573Y-66602957D01*
X96557755Y-66602191D01*
X96719326Y-66600025D01*
X96720688Y-66600015D01*
X155719128Y-66599993D01*
X155720858Y-66600005D01*
G37*
%TD.AperFunction*%
%TD*%
M02*
