M48
; DRILL file {KiCad 8.0.0-dirty} date 2024-04-14T22:52:09-0400
; FORMAT={-:-/ absolute / metric / decimal}
; #@! TF.CreationDate,2024-04-14T22:52:09-04:00
; #@! TF.GenerationSoftware,Kicad,Pcbnew,8.0.0-dirty
; #@! TF.FileFunction,Plated,1,2,PTH
FMAT,2
METRIC
; #@! TA.AperFunction,Plated,PTH,ViaDrill
T1C0.400
; #@! TA.AperFunction,Plated,PTH,ComponentDrill
T2C1.000
%
G90
G05
T1
X101.422Y-96.203
T2
X106.22Y-93.625
X106.22Y-96.165
X106.22Y-98.705
X106.22Y-101.245
X106.22Y-103.785
X115.59Y-96.12
X115.59Y-98.66
X115.59Y-101.2
X115.59Y-103.74
X118.13Y-96.12
X118.13Y-98.66
X118.13Y-101.2
X118.13Y-103.74
X121.13Y-70.06
X121.14Y-127.34
X123.67Y-70.06
X123.68Y-127.34
X126.21Y-70.06
X126.22Y-127.34
X128.75Y-70.06
X128.76Y-127.34
X131.29Y-70.06
X131.3Y-127.34
X146.23Y-93.63
X146.23Y-96.17
X146.23Y-98.71
X146.23Y-101.25
X146.23Y-103.79
M30
