M48
; DRILL file {KiCad 8.0.0-dirty} date 2024-04-13T23:55:45-0400
; FORMAT={-:-/ absolute / metric / decimal}
; #@! TF.CreationDate,2024-04-13T23:55:45-04:00
; #@! TF.GenerationSoftware,Kicad,Pcbnew,8.0.0-dirty
; #@! TF.FileFunction,Plated,1,2,PTH
FMAT,2
METRIC
; #@! TA.AperFunction,Plated,PTH,ViaDrill
T1C0.400
; #@! TA.AperFunction,Plated,PTH,ComponentDrill
T2C1.000
%
G90
G05
T1
X115.55Y-86.48
X151.94Y-97.67
T2
X106.22Y-93.625
X106.22Y-96.165
X106.22Y-98.705
X106.22Y-101.245
X106.22Y-103.785
X115.59Y-96.12
X115.59Y-98.66
X115.59Y-101.2
X115.59Y-103.74
X118.13Y-96.12
X118.13Y-98.66
X118.13Y-101.2
X118.13Y-103.74
X121.14Y-70.06
X121.14Y-127.34
X123.68Y-70.06
X123.68Y-127.34
X126.22Y-70.06
X126.22Y-127.34
X128.76Y-70.06
X128.76Y-127.34
X131.3Y-70.06
X131.3Y-127.34
X146.23Y-93.62
X146.23Y-96.16
X146.23Y-98.7
X146.23Y-101.24
X146.23Y-103.78
M30
