M48
; DRILL file {KiCad 8.0.0-dirty} date 2024-04-13T11:17:02-0400
; FORMAT={-:-/ absolute / metric / decimal}
; #@! TF.CreationDate,2024-04-13T11:17:02-04:00
; #@! TF.GenerationSoftware,Kicad,Pcbnew,8.0.0-dirty
; #@! TF.FileFunction,Plated,1,2,PTH
FMAT,2
METRIC
; #@! TA.AperFunction,Plated,PTH,ViaDrill
T1C0.400
; #@! TA.AperFunction,Plated,PTH,ComponentDrill
T2C1.000
%
G90
G05
T1
X137.3Y-101.0
X140.62Y-98.66
T2
X106.22Y-93.625
X106.22Y-96.165
X106.22Y-98.705
X106.22Y-101.245
X106.22Y-103.785
X115.11Y-96.14
X115.11Y-98.68
X115.11Y-101.22
X115.11Y-103.76
X117.65Y-96.14
X117.65Y-98.68
X117.65Y-101.22
X117.65Y-103.76
X121.14Y-70.06
X121.14Y-127.34
X123.68Y-70.06
X123.68Y-127.34
X126.22Y-70.06
X126.22Y-127.34
X128.76Y-70.06
X128.76Y-127.34
X131.3Y-70.06
X131.3Y-127.34
X146.23Y-93.62
X146.23Y-96.16
X146.23Y-98.7
X146.23Y-101.24
X146.23Y-103.78
M30
